<svg xmlns="http://www.w3.org/2000/svg" viewBox="0 0 1462.1 1356.4">
  <defs>
    <style>
      .a {
        opacity: 0.2;
      }

      .b {
        fill: #6d4c41;
      }

      .c {
        fill: #fff;
      }

      .d {
        fill: #ffcb6e;
      }

      .e {
        opacity: 0.5;
      }

      .f {
        fill: #ff795f;
      }
    </style>
  </defs>
  <g>
    <g class="a">
      <path class="b" d="M2680.1,909h-98.4V885.1a85.9,85.9,0,1,0-171.8,0V909H1697.2V885.1a86,86,0,0,0-171.9,0V909H1427a76.9,76.9,0,0,0-76.8,76.8V1263a19.9,19.9,0,0,0-.4,4.2,20.2,20.2,0,0,0,.4,4.3v677.2c0,81.2,66.1,147.3,147.3,147.3H2609.6c81.2,0,147.3-66.1,147.3-147.3V985.8A76.9,76.9,0,0,0,2680.1,909Z" transform="translate(-1294.8 -739.6)"/>
    </g>
    <g>
      <path class="c" d="M77.2,130.5H1330.3a56.2,56.2,0,0,1,56.2,56.2v962.9a126.7,126.7,0,0,1-126.7,126.7H147.7A126.7,126.7,0,0,1,21.1,1149.6V186.6a56.2,56.2,0,0,1,56.2-56.2Z"/>
      <path class="d" d="M1313.5,1189V911.3l35.2-37H2626.2l40.9,24.2v310.7S1311.3,1191.2,1313.5,1189Z" transform="translate(-1294.8 -739.6)"/>
      <g class="a">
        <path class="b" d="M2634.7,874.3h-72.6l32.4,24.2V1208l72.6,1.2V898.5Z" transform="translate(-1294.8 -739.6)"/>
      </g>
      <g class="a">
        <rect class="c" x="236" y="240.5" width="355.9" height="132.92" rx="42.9"/>
      </g>
      <g class="e">
        <path class="c" d="M1374.6,1939.5v-989a30.1,30.1,0,0,1,30.1-30.1H2680.9a56.2,56.2,0,0,0-55.8-50.4H1372a56.2,56.2,0,0,0-56.2,56.2v962.9a126.7,126.7,0,0,0,77.6,116.8A126,126,0,0,1,1374.6,1939.5Z" transform="translate(-1294.8 -739.6)"/>
      </g>
      <path class="b" d="M2554.6,2036.4H1442.5c-81.2,0-147.3-66.1-147.3-147.3V926.2a76.9,76.9,0,0,1,76.8-76.8H2625.1a76.9,76.9,0,0,1,76.8,76.8v962.9C2701.9,1970.3,2635.8,2036.4,2554.6,2036.4ZM1372,890.6a35.6,35.6,0,0,0-35.5,35.6v962.9a106.1,106.1,0,0,0,106,106.1H2554.6a106.1,106.1,0,0,0,106-106.1V926.2a35.6,35.6,0,0,0-35.5-35.6Z" transform="translate(-1294.8 -739.6)"/>
      <path class="b" d="M2678.3,1228.3H1315.4a20.7,20.7,0,0,1,0-41.3H2678.3a20.7,20.7,0,0,1,0,41.3Z" transform="translate(-1294.8 -739.6)"/>
      <g>
        <rect class="c" x="196.2" y="20.6" width="130.6" height="255.27" rx="65.3"/>
        <path class="b" d="M1556.3,1036.1a86.1,86.1,0,0,1-86-85.9V825.5a86,86,0,0,1,171.9,0V950.2A86,86,0,0,1,1556.3,1036.1Zm0-255.3a44.7,44.7,0,0,0-44.7,44.7V950.2a44.7,44.7,0,0,0,89.3,0V825.5A44.7,44.7,0,0,0,1556.3,780.8Z" transform="translate(-1294.8 -739.6)"/>
      </g>
      <g class="a">
        <path class="b" d="M1556.3,937.5a65.3,65.3,0,0,1-65.3-65.3v78a65.3,65.3,0,0,0,130.6,0v-78A65.3,65.3,0,0,1,1556.3,937.5Z" transform="translate(-1294.8 -739.6)"/>
      </g>
      <g>
        <rect class="c" x="1080.7" y="20.6" width="130.6" height="255.27" rx="65.3"/>
        <path class="b" d="M2440.8,1036.1a86,86,0,0,1-85.9-85.9V825.5a85.9,85.9,0,1,1,171.8,0V950.2A86,86,0,0,1,2440.8,1036.1Zm0-255.3a44.8,44.8,0,0,0-44.7,44.7V950.2a44.7,44.7,0,0,0,89.4,0V825.5A44.7,44.7,0,0,0,2440.8,780.8Z" transform="translate(-1294.8 -739.6)"/>
      </g>
      <g>
        <path class="f" d="M1971.3,1413.1l27,27,28.4-28.4a129.8,129.8,0,0,1,183.5.1h0a129.8,129.8,0,0,1,0,183.4l-28.4,28.4-153.6,153.6a42.3,42.3,0,0,1-59.8,0l-153.5-153.6-28.4-28.4a129.7,129.7,0,0,1,16.8-197.7C1854.9,1360.4,1926.4,1368.1,1971.3,1413.1Z" transform="translate(-1294.8 -739.6)"/>
        <path class="b" d="M1998.3,1807.8a60.7,60.7,0,0,1-42.9-17.7l-181.9-182a148,148,0,0,1,19.1-225.5c57.8-41.5,140.2-34,191.7,17.5l14,14.1,15.5-15.4c57.7-57.7,151.6-57.7,209.3,0s57.8,151.7,0,209.4l-182,181.9A60.3,60.3,0,0,1,1998.3,1807.8ZM1877,1392.4a108.5,108.5,0,0,0-63,19.9c-27.5,19.8-44.1,48.9-46.8,82a111.4,111.4,0,0,0,32.2,87.9l182,182a24,24,0,0,0,33.8,0l182-181.9a111.4,111.4,0,0,0-157.5-157.6l-28.4,28.4a18.5,18.5,0,0,1-13,5.4h0a18.4,18.4,0,0,1-12.9-5.4l-27.1-27A115,115,0,0,0,1877,1392.4Z" transform="translate(-1294.8 -739.6)"/>
      </g>
      <g class="a">
        <path class="b" d="M2210.2,1411.8h0a129,129,0,0,0-30.2-22.5,129.8,129.8,0,0,1-22.5,153.2l-28.4,28.4-153.6,153.6a42.5,42.5,0,0,1-59.7.1l52.6,52.6a42.3,42.3,0,0,0,59.8,0l153.6-153.6,28.4-28.4A129.8,129.8,0,0,0,2210.2,1411.8Z" transform="translate(-1294.8 -739.6)"/>
      </g>
      <g class="e">
        <path class="c" d="M2008.3,1458.2a18.3,18.3,0,0,0,12.9,5.3h.1a18.3,18.3,0,0,0,12.9-5.3l28.4-28.4a110.3,110.3,0,0,1,78.8-32.6h0a103.6,103.6,0,0,1,12.5.7,110.8,110.8,0,0,0-35.4-5.8h-.1a110.7,110.7,0,0,0-78.7,32.6l-28.4,28.4a16.7,16.7,0,0,1-4.7,3.3Z" transform="translate(-1294.8 -739.6)"/>
      </g>
      <g class="e">
        <path class="c" d="M2004.3,1769.3l-182-182a111.4,111.4,0,0,1-32.2-87.9c2.7-33.2,19.3-62.3,46.8-82a107.8,107.8,0,0,1,63-19.9,116.9,116.9,0,0,1,13.2.8,114.2,114.2,0,0,0-36.1-5.9,107.9,107.9,0,0,0-63,20c-27.5,19.7-44.1,48.8-46.8,81.9a111.4,111.4,0,0,0,32.2,87.9l182,182a23.7,23.7,0,0,0,23.9,5.8Z" transform="translate(-1294.8 -739.6)"/>
      </g>
      <g class="a">
        <rect class="b" x="20.6" y="460.5" width="1375" height="77.92"/>
      </g>
      <path class="b" d="M2438.3,2022.8a16.9,16.9,0,0,1-5.8-1,18.4,18.4,0,0,1-11.6-23.2l16-47.6c15-44.8,45.8-80.2,86.9-99.6a153,153,0,0,1,121.2-4.7l38.2,14.6a18.3,18.3,0,1,1-13.1,34.2l-38.2-14.6a116.9,116.9,0,0,0-92.4,3.6c-32,15.1-56,42.9-67.9,78.2l-15.9,47.6A18.4,18.4,0,0,1,2438.3,2022.8Z" transform="translate(-1294.8 -739.6)"/>
      <g class="a">
        <path class="b" d="M2433.7,2025.1s34.5-96.3,37.9-103.2,70.4-55.4,70.4-55.4l56.7-6.4,84.2,37.8s-23.5,52.3-24,60-64.7,62.6-64.7,62.6-82.5,9.2-91.7,9.2S2433.7,2025.1,2433.7,2025.1Z" transform="translate(-1294.8 -739.6)"/>
      </g>
      <g class="a">
        <path class="b" d="M2440.9,937.5a65.3,65.3,0,0,1-65.3-65.3v78a65.3,65.3,0,1,0,130.6,0v-78A65.3,65.3,0,0,1,2440.9,937.5Z" transform="translate(-1294.8 -739.6)"/>
      </g>
    </g>
  </g>
</svg>
