<svg xmlns="http://www.w3.org/2000/svg" viewBox="0 0 2736.9 2111.5">
  <defs>
    <style>
      .a {
        fill: #ffe2b0;
      }

      .b {
        opacity: 0.2;
      }

      .c {
        fill: #6e4848;
      }

      .d {
        opacity: 0.6;
      }

      .e {
        fill: #fff;
      }

      .f {
        fill: #e05893;
      }

      .g {
        fill: #ff795f;
      }

      .h {
        fill: #5a497a;
      }

      .i {
        fill: #f9a529;
      }

      .j {
        fill: #ff457d;
      }

      .k {
        fill: #fffffe;
      }

      .l {
        fill: #b0421e;
      }
    </style>
  </defs>
  <g>
    <path class="a" d="M2716,796a832,832,0,0,1-4.9,97.1c-11.4,106.9-41.1,206.7-84.2,299.4a1073.6,1073.6,0,0,1-56.5,105.9l-.5.9-8.7,14.1h-.1q-27,43.4-57.8,84.4-23,30.9-47.7,60.4l-.4.5c-252.9,302.4-629,500.7-844.2,596.8a412.5,412.5,0,0,1-334.6,0q-29-13-61.5-28.3c-144.5-68.4-337.2-173.3-517.8-315.2H697c-87.6-68.9-172.3-146.4-247.3-232.7-62-71.5-117.3-148.9-162-232.4h0a9.2,9.2,0,0,0-.7-1.3l-.5-1.1c-8.8-16.3-17-32.8-24.8-49.6h-.1a986.7,986.7,0,0,1-56-150.2,917.4,917.4,0,0,1-29.3-151.6c-21.7-202.5,30.5-366,124.8-485.9C591,38.6,1279.1,82.3,1443.7,669.9a799.3,799.3,0,0,1,41-113.3C1763.9-61.2,2709.1,95,2716,796Z" transform="translate(0.1 0.4)"/>
    <g class="b">
      <path class="c" d="M1375.1,1819.2s-25.6,153.6-45,255.9a406,406,0,0,1-53.7-19.5q-29-13-61.5-28.3c-144.5-68.4-337.2-173.3-517.8-315.2,251.1,138.9,321.6,9,321.6,9C1172.8,1809.1,1375.1,1819.2,1375.1,1819.2Z" transform="translate(0.1 0.4)"/>
    </g>
    <path class="a" d="M1319.4,275.8c-.4,125.6-19.6,250.5-19.6,250.5L997.6,245.6h.1c1.8-3.9,36.4-73,85.1-133.8S1192.9-.7,1250.5,27.3c48.1,23.3,65.1,111.4,68.3,207.2C1319.3,248.1,1319.5,262,1319.4,275.8Z" transform="translate(0.1 0.4)"/>
    <g class="d">
      <path class="e" d="M1318.8,234.5c-23.1-73.7-58.2-162.2-100.3-167.6-72.1-9.3-216,172.5-220.8,178.6,3.7-7.6,137.2-274.3,252.8-218.2C1298.6,50.6,1315.6,138.7,1318.8,234.5Z" transform="translate(0.1 0.4)"/>
    </g>
    <path class="c" d="M1299.8,546.3a19.7,19.7,0,0,1-13.6-5.3L984,260.3a20,20,0,0,1-4.3-23.5c1.4-2.9,35.4-71.4,84.7-134.1C1152.9-9.7,1219.2-10.1,1259.3,9.3c57,27.7,83.2,122.3,79.8,289.3-2.3,117.6-19.4,229.6-19.5,230.8a20,20,0,0,1-13.2,15.8A19.1,19.1,0,0,1,1299.8,546.3ZM1022.3,241.2l263,244.4c21.4-166.5,26.7-406.2-43.5-440.3C1165,8,1063.3,163.4,1022.3,241.2Z" transform="translate(0.1 0.4)"/>
    <path class="f" d="M1081.2,263.6s66.5-135.1,124.1-107.2,24.2,245,24.2,245Z" transform="translate(0.1 0.4)"/>
    <g class="b">
      <path class="c" d="M1319.4,275.8c-.4,125.6-19.6,250.5-19.6,250.5L997.6,245.6h.1c1.8-3.9,36.4-73,85.1-133.8C1084.5,115.3,1170.3,287.5,1319.4,275.8Z" transform="translate(0.1 0.4)"/>
    </g>
    <path class="g" d="M357.5,410.8l-126,388.6S104.3,640.6,47.2,506c-2.9-6.9-5.6-13.8-8.2-20.5-20.4-54.4-27.1-103.1-6.2-133.3C80.4,283.6,201,327.3,281,367.4a848.3,848.3,0,0,1,76.4,43.3Z" transform="translate(0.1 0.4)"/>
    <g class="d">
      <path class="e" d="M357.5,410.8S128.1,331,78.2,367.8c-37,27.3-39,59.8-39.2,117.7-20.4-54.4-27.1-103.1-6.2-133.3,73.3-105.6,319.2,55,324.6,58.5Z" transform="translate(0.1 0.4)"/>
    </g>
    <path class="c" d="M231.5,819.3a20.1,20.1,0,0,1-15.6-7.4c-2.8-3.6-69.7-87.3-128.7-185.8C3.5,486.2-19.7,392.8,16.4,340.8c25.2-36.3,82.8-69,213.8-18,73,28.4,135.7,69.5,138.3,71.3a19.9,19.9,0,0,1,8,22.8l-126,388.6A19.9,19.9,0,0,1,235.1,819,21.9,21.9,0,0,1,231.5,819.3ZM112.9,336.1c-27.2,0-50,7.8-63.6,27.5C5,427.4,125.2,627.2,224.1,757.3l109.6-338C281,386.6,182.3,336.1,112.9,336.1Z" transform="translate(0.1 0.4)"/>
    <path class="f" d="M293.6,465.7S168.1,382.9,131,436.4s99.5,223.8,99.5,223.8Z" transform="translate(0.1 0.4)"/>
    <g class="b">
      <path class="c" d="M357.5,410.8l-126,388.6S104.3,640.6,47.2,506C173.8,542.9,281,367.4,281,367.4a848.3,848.3,0,0,1,76.4,43.3Z" transform="translate(0.1 0.4)"/>
    </g>
    <path class="a" d="M1014.8,1392.8C575.3,1517,291.9,1252.6,287.7,1247h0a9.2,9.2,0,0,0-.7-1.3l-.5-1.1L261.7,1195h-.1A991.9,991.9,0,0,1,213,1069.7c-2.6-8.3-5.1-16.6-7.4-25a917.4,917.4,0,0,1-29.3-151.6c-21.7-202.5,30.5-366,124.8-485.9,276.9-352.1,917.2-328,1117.4,187q14.1,36.3,25.2,75.7S1522,1249.6,1014.8,1392.8Z" transform="translate(0.1 0.4)"/>
    <g class="b">
      <path class="c" d="M1014.8,1392.8C562.1,1527.5,291.9,1252.6,287.7,1247h0a9.2,9.2,0,0,0-.7-1.3l-.5-1.1L261.7,1195h-.1A991.9,991.9,0,0,1,213,1069.7v-.2S472.4,1378.2,936.9,1247s481.6-652.8,481.6-652.8q14.1,36.3,25.2,75.7S1520,1242.6,1014.8,1392.8Z" transform="translate(0.1 0.4)"/>
      <path class="h" d="M770.6,1432.1c-120.3,0-218.1-27.6-288.5-57.3-127.8-53.9-195.9-125.6-196.4-126.3l-.5-.9-.4-.7-.4-.8-15.8-31.7-9.3-18.5a1006.7,1006.7,0,0,1-48.7-125.5v-7.6l4.4,5.1c.6.8,66,77.6,187.2,137.4,111.7,55.2,295,106.8,534.1,39.3s356.7-240.7,413.4-374.1C1411,725.9,1416,595.4,1416,594.1l.4-12.2,4.4,11.4c9.5,24.3,18,49.8,25.3,75.9.3,1.8,18.7,145.9-25,306.5-25.7,94.4-67.5,175.9-124.3,242.4-70.9,83.1-165.6,142.7-281.3,177.1h0C926.2,1421.8,844.2,1432.1,770.6,1432.1ZM289.8,1245.6c5.2,5.5,72.8,73.5,194.9,124.9,112.7,47.4,296,89.3,529.4,19.9,259.8-77.2,362.1-268.8,402.2-415.9,43.4-159.6,25.1-302.8,24.9-304.3-6.1-21.8-13.2-43.4-20.9-64.3-2.7,35.3-14.9,146-66.1,266.4-57.1,134.5-175.7,309-416.6,377.1s-425.4,15.9-538-39.7c-98.3-48.6-160.2-108.4-180.9-130.2a1002.6,1002.6,0,0,0,45,114l.2.4,9.2,18.3c8,15.9,13.4,26.8,15.6,31.3l.5.9Z" transform="translate(0.1 0.4)"/>
    </g>
    <path class="g" d="M678.2,752.8c0,197.5-134.1,357.6-299.6,357.6-64.4,0-124.1-24.3-173-65.7a917.4,917.4,0,0,1-29.3-151.6c-21.7-202.5,30.5-366,124.8-485.9a253.8,253.8,0,0,1,77.5-12.1C544.1,395.1,678.2,555.2,678.2,752.8Z" transform="translate(0.1 0.4)"/>
    <g class="d">
      <path class="e" d="M1441.9,794c-1.3-30.7-3.8-48.9-3.8-48.9-71.9-256.6-239.1-414.8-428.9-480.9-8.6,17-42.9,25.3-81.4,18.6-42.4-7.4-73.8-30-70.3-50.6l.3-.9c-202.4-19.2-408.6,57.5-539,223.3-73.7,93.6-144.9,241.8-152.1,386.6-8.2-178.7,42.8-324.6,128.8-434,289.9-368.6,978-324.9,1142.6,262.7C1438.1,669.9,1445,719.9,1441.9,794Z" transform="translate(0.1 0.4)"/>
    </g>
    <path class="c" d="M776.2,1442.1c-126.5,0-228.6-28.3-301.4-58.4-122-50.4-187.9-114.1-198.6-125.1h-.1l-1.5-1.7h0a16.9,16.9,0,0,1-1.9-3.2h0l-.8-1.5-15.7-31.6-8.9-17.8-.6-1a1000.3,1000.3,0,0,1-56.9-152.7A937.5,937.5,0,0,1,160,894.9c-20.6-192.8,23.7-365,128.2-497.9C436.8,208,693.8,118,942.8,167.6c253.9,50.6,442.3,232,516.7,497.9a14.2,14.2,0,0,1,.5,2.2c.8,6.1,19.9,151.4-24.1,316.2-40.9,153.4-146.5,351.6-416.8,424.8h0C930.6,1432.7,849.3,1442.1,776.2,1442.1ZM301.3,1237.4c18.4,18.1,275.2,257.2,709.2,139.6h0c204.6-55.4,336.9-190.2,393.4-400.6,40.6-151.3,25.3-289.8,23.7-303.2-71.3-252.9-250.2-425.4-491.2-473.4C699.4,152.6,455.1,238,314,417.4c-99.1,125.9-141.1,289.9-121.4,474a916,916,0,0,0,28.8,148.8,973.1,973.1,0,0,0,54.8,147.1l.2.3,9.1,18.3c8,16,13.5,26.9,15.7,31.5Z" transform="translate(0.1 0.4)"/>
    <path class="i" d="M2626.9,1192.5a1073.6,1073.6,0,0,1-56.5,105.9l-.5.9-8.7,14.1h-.1q-27,43.4-57.8,84.4-23,30.9-47.7,60.4l-.4.5c-.2.2-.3.4-.5.5-252.9,302.1-628.6,500.2-843.7,596.3a410.6,410.6,0,0,1-334.6,0q-29-13-61.5-28.3c-104.8-51.9-161.9-106.5-159.2-175.2s63.3-89.5,63.3-89.5l250.6-109.5,371.2-162.2,26.1-11.4s253.5-256.9,269.4-268.8c11.6-8.7,320.8-14.4,487.1-16.8Z" transform="translate(0.1 0.4)"/>
    <g class="b">
      <path class="c" d="M2626.9,1192.5a1073.6,1073.6,0,0,1-56.5,105.9l-.5.9-8.7,14.1h-.1q-27,43.4-57.8,84.4-23,30.9-47.7,60.4l-.4.5c-.2.2-.3.4-.5.5-252.9,302.1-628.6,500.2-843.7,596.3a410.6,410.6,0,0,1-334.6,0q-29-13-61.5-28.3c-104.8-51.9-161.9-106.5-159.2-175.2s63.3-89.5,63.3-89.5l250.6-109.5,480.6,101.7s-151.1,168.6-519,108.7c-33.9-5.5-61.4,28.2-47.6,59.6,17.7,40.4,60.2,83.2,160.1,84.7,260.7,4.1,582.7-269.6,767.8-426.4,19.9-16.9,42.2-39.3,66.1-65.7-273.8,66.5-455.5,11.8-536.8-24.8l26.1-11.4s253.5-256.9,269.4-268.8c11.6-8.7,320.8-14.4,487.1-16.8Z" transform="translate(0.1 0.4)"/>
    </g>
    <g>
      <path class="c" d="M1081.6,1790.1c-.3-.5-.2-.3-.1-.3l.4.2.9.6,2.2,1.5,4.8,3.2,10.7,6.4c7.4,4.2,14.9,8.6,22.7,12.8l23.9,12.6c8.1,4.2,16.2,8.3,24.3,12.9h.1a1.8,1.8,0,0,1,.6,2.3,1.4,1.4,0,0,1-1.5.8,234.2,234.2,0,0,1-27.8-3.2,256.9,256.9,0,0,1-27.3-6.3c-9.1-2.8-18.1-5.8-26.8-10.2-2.1-1.1-4.3-2.2-6.4-3.5a52.3,52.3,0,0,1-6.3-4.1,53.1,53.1,0,0,1-6.2-4.9,26.9,26.9,0,0,1-3-2.9l-1.5-1.8-.9-1-1.1-1.5a11.4,11.4,0,1,1,18.3-13.6Z" transform="translate(0.1 0.4)"/>
      <path class="c" d="M1063,1843.4c8.3,5.1,17,11.2,25.4,16.8s17.1,11.5,25.9,16.8,17.9,10.1,27.3,14.6a210.5,210.5,0,0,0,29.5,10.8h.1a1.7,1.7,0,0,1,1.1,2.1,1.9,1.9,0,0,1-1.4,1.2,120.3,120.3,0,0,1-33.3-1.2,178.9,178.9,0,0,1-32.2-9,202.9,202.9,0,0,1-30.1-14.4c-9.6-5.8-18.5-12-26.9-20.2a11.4,11.4,0,0,1,14.1-17.8Z" transform="translate(0.1 0.4)"/>
      <path class="c" d="M1087.4,1920.4c-.3-.4-.2-.3-.1-.3h.2l.7.3,1.8.9,4,2c2.9,1.3,5.9,2.7,9.1,4,6.4,2.6,12.9,5.5,19.8,8.1s14,5,21.2,7.4,14.4,4.8,21.8,7.7h0a1.7,1.7,0,0,1-.3,3.2,154.9,154.9,0,0,1-23.5,2.5,190,190,0,0,1-23.8-.8,107.2,107.2,0,0,1-23.9-5,43.1,43.1,0,0,1-6-2.2,53.5,53.5,0,0,1-5.9-2.9,57.3,57.3,0,0,1-5.8-3.8,28.2,28.2,0,0,1-2.9-2.4l-1.5-1.4-.8-.9-1.2-1.4a11.4,11.4,0,1,1,17.1-15Z" transform="translate(0.1 0.4)"/>
    </g>
    <path class="c" d="M979.2,1089.9c-13.3,27.9-37.4,51.5-79.2,61.1-44.7,10.1-79.8-.2-106.7-18.6-53.8-36.7-74.9-105.2-74.9-105.2,42,4,100.8-6.3,122-88,0,0,72.5,92.3,146.6,10.7C987,949.9,1007.9,1029.8,979.2,1089.9Z" transform="translate(0.1 0.4)"/>
    <path class="j" d="M979.2,1089.9c-13.3,27.9-37.4,51.5-79.2,61.1-44.7,10.1-79.8-.2-106.7-18.6,13.4-36.3,58.2-62.9,111.3-62.9C933,1069.5,959.1,1077.1,979.2,1089.9Z" transform="translate(0.1 0.4)"/>
    <path class="i" d="M2716,796a832,832,0,0,1-4.9,97.1c-15.9,148.8-67.2,283.9-140.7,405.3l-.5.9-8.7,14.1h-.1q-27,43.4-57.8,84.4l-491.2,83.6c-136.5,11.7-452.2,16.7-627.6-159.9-127.4-128.2-135.6-238.8-105.1-324h0c24.1-67.5,72.4-119.2,105.1-151.1,59.2-58.1,34.1-95.1,59.2-176.6C1653-77.2,2708.7,55,2716,796Z" transform="translate(0.1 0.4)"/>
    <g class="d">
      <path class="e" d="M2678.4,616.9C2552.5,330.6,2225.1,182.4,1937.1,244a7.7,7.7,0,0,0,.7,1.6c5.6,16.3-24.9,41.7-68.2,56.7s-81.6,14.2-88.3-1.3c-146.3,78.7-266.8,225.5-321.1,452.5-19.8,82.9-16.5,117.7-75.7,159.7-37.3,26.4-83.3,103-88.6,167.9,0,0-20.1,85.2-9.2,135.2-40.8-79.3-38.1-149.1-17.3-207.3h.1c24.1-67.5,72.4-119.1,105-151.1,59.3-58.1,34.2-95.1,59.3-176.6C1623.7,3.6,2510,49.4,2678.4,616.9Z" transform="translate(0.1 0.4)"/>
    </g>
    <path class="e" d="M2019.2,1481.5h-.1c-136.4,11.7-452.1,16.7-627.6-159.9-127.3-128.2-135.5-238.8-105.1-324h.1c1.1-3.4,79.6-149.1,275.1-80.8,146.1,51.1,188.3,225.3,283.4,260.5s353.7-96.8,409.9,110.8S2023.5,1481.7,2019.2,1481.5Z" transform="translate(0.1 0.4)"/>
    <g class="b">
      <path class="c" d="M2060.1,1403.5c-136.5,11.7-479.4,31.3-654.8-145.3-97.3-97.9-123.2-223.5-86.4-309.5-25.2,23-37,45.1-37.4,46.3h-.1c-30.4,85.2-22.2,195.8,105.2,323.9,175.4,176.6,491.1,171.7,627.6,160h0c4.1.2,254.8,11.1,242.5-155.3C2186.2,1373.4,2060.1,1403.5,2060.1,1403.5Z" transform="translate(0.1 0.4)"/>
    </g>
    <path class="c" d="M1443.7,2111.1a430.4,430.4,0,0,1-175.5-37.3c-20.7-9.2-41.5-18.8-61.9-28.5C1081,1986,894.2,1886.9,715.7,1751.7c-201.5-152.6-351.4-319.2-445.6-495.2l-.6-1.3h0a6.3,6.3,0,0,1-.8-1.5c-8.5-15.8-16.9-32.6-24.8-49.6a3,3,0,0,1-.4-.8,1018.1,1018.1,0,0,1-57.2-153.2,957.5,957.5,0,0,1-29.9-154.8c-20.7-193.8,23.9-366.9,129-500.5,149.4-190,407.8-280.6,658.1-230.7,235.7,46.9,415.1,206,500.2,440.3,55.8-153.6,152.4-275.6,282-355.2s289.6-113.2,446.9-92.4c277.7,36.8,559.5,248.6,563.4,639h0a863.3,863.3,0,0,1-5,99.5c-11.1,103.9-40,206.8-85.9,305.6a1128.2,1128.2,0,0,1-57.6,107.9l-.5.9c-2.2,3.7-4.5,7.4-6.8,11.1l-2,3.1a5.7,5.7,0,0,1-.8,1.3c-18,28.7-37.5,57.1-58.1,84.6-14.8,20.1-31.1,40.7-48.3,61.4h0l-.9.9c-257.9,308.1-643.8,509.2-850.9,601.7A430.7,430.7,0,0,1,1443.7,2111.1ZM305.5,1237.9c210.3,392.6,665.4,651.7,917.9,771.3,20.1,9.5,40.7,19,61.2,28.1a391.1,391.1,0,0,0,318.2,0c204.1-91.1,584.3-289.1,837.1-591.3l.6-.8c16.7-20,32.4-39.9,46.7-59.3,20.3-27,39.4-54.9,57-83a4.1,4.1,0,0,1,.7-1.1l1.2-2c2.3-3.6,4.5-7.2,6.7-10.9l.3-.5a1089.2,1089.2,0,0,0,55.7-104.3c44.1-94.9,71.8-193.5,82.4-293.1a805.9,805.9,0,0,0,4.8-94.8c-3.6-366.4-268.1-565.2-528.6-599.7-273.7-36.3-597.7,97.7-704.4,478.8a20,20,0,0,1-38.5,0c-70.7-252.2-248.8-424.2-488.8-472C700,156.4,457.1,241.2,316.8,419.6,218.3,544.8,176.6,707.8,196.2,891a911.7,911.7,0,0,0,28.6,148.3,979.1,979.1,0,0,0,54.6,146.4l.4.8c7.7,16.6,15.9,33,24.3,48.7l.3.5c0,.1.3.6.3.7A11.5,11.5,0,0,1,305.5,1237.9Zm2134.1,208.4Z" transform="translate(0.1 0.4)"/>
    <path class="c" d="M1899.5,1506.3c-157.7,0-387.4-27.9-529.2-170.6-113.7-114.5-150.6-230.5-109.8-344.8a10.4,10.4,0,0,1,.4-1c25.2-69.8,74.6-123.4,109.6-157.7,33-32.5,35.5-54.7,39.6-91.5,2.3-21.4,5-45.8,14.4-76.4,51-181.9,155.2-325.4,301.2-415.1,130.9-80.4,289.6-113.2,446.9-92.4,277.7,36.8,559.5,248.6,563.4,639h0a863.3,863.3,0,0,1-5,99.5c-15.2,142.1-63.5,281.2-143.5,413.5l-.5.9c-2.2,3.7-4.5,7.4-6.8,11.1l-2,3.1a5.7,5.7,0,0,1-.8,1.3c-18,28.7-37.5,57.1-58.1,84.6a20.1,20.1,0,0,1-12.6,7.8l-491.3,83.6-1.6.2C1984.2,1504,1944.8,1506.3,1899.5,1506.3Zm-601.6-501.1c-34.7,98.3-.8,200,100.8,302.3,170.3,171.4,483.2,165,610.8,154.1l482.5-82.1c18.5-25,36-50.7,52.2-76.6a4.1,4.1,0,0,1,.7-1.1l1.2-2c2.3-3.6,4.5-7.2,6.7-10.9l.3-.5c77.2-127.5,123.6-261.1,138.1-397.4a805.9,805.9,0,0,0,4.8-94.8c-3.6-366.4-268.1-565.2-528.6-599.7-273.7-36.3-597.7,97.7-704.4,478.8l-.2.5c-8.3,27.2-10.8,49.6-13,69.3-4.3,39.3-8.1,73.2-51.3,115.6-32.4,31.7-77.9,81.1-100.3,143.6Z" transform="translate(0.1 0.4)"/>
    <g>
      <ellipse class="c" cx="1499.1" cy="992.3" rx="52.1" ry="79.2" transform="translate(143 2172.8) rotate(-74.5)"/>
      <g>
        <ellipse class="k" cx="1494" cy="966.5" rx="15.3" ry="29.6" transform="translate(286 2273.4) rotate(-80.1)"/>
        <path class="c" d="M1500.9,984.9a55.8,55.8,0,0,1-9.9-.8c-17.7-3.1-30.3-13.2-28.6-23,.9-5,5.2-9,12.1-11.2s14.4-2.3,22.6-.9c17.7,3.1,30.3,13.2,28.5,23h0c-.8,5-5.1,9-12.1,11.2A44.7,44.7,0,0,1,1500.9,984.9Zm-13.7-31.8a38.8,38.8,0,0,0-11.2,1.6c-4.9,1.6-8.1,4.2-8.6,7.2-1.1,6.1,8.5,14.5,24.5,17.3,7.4,1.2,14.5,1,20.1-.8s8.2-4.2,8.7-7.2h0c1.1-6.1-8.5-14.5-24.5-17.3A55.7,55.7,0,0,0,1487.2,953.1Z" transform="translate(0.1 0.4)"/>
      </g>
    </g>
    <path class="c" d="M1452.2,1120.9s-8.9,78.5,56.4,111.8c10.8,5.6,23.6,9.8,38.7,12.3,43.4,7.2,75.9-6.6,99-24.8,31.6-24.9,45.5-58.3,45.5-58.3-125.6,21-198.5-7.9-239.6-41-38.9-31.1-49.4-65.9-49.4-65.9" transform="translate(0.1 0.4)"/>
    <path class="j" d="M1646.3,1220.2c-23.1,18.2-55.6,32-99,24.8-15.1-2.5-27.9-6.7-38.7-12.3,8.4-24.1,37.5-41.8,72.1-41.8C1609,1190.9,1633.6,1202.7,1646.3,1220.2Z" transform="translate(0.1 0.4)"/>
    <path class="c" d="M1464.9,1125.6c-.1.8-.1,2.7-.1,4.1s.1,3.2.2,4.8c.2,3.2.6,6.4,1,9.6a119.2,119.2,0,0,0,4.3,18.8,96.8,96.8,0,0,0,17.6,32.9,88.8,88.8,0,0,0,29,22.7c11.1,5.6,23.8,9.1,36.8,10.8,25.8,3.7,51.5-1.3,73-15.3a128.9,128.9,0,0,0,29-25.8,157.2,157.2,0,0,0,11.8-16c1.7-2.8,3.5-5.6,5-8.5s3.2-6,4.2-8.2l17.9,22.6-21.3,3.1c-7.1.9-14.3,1.5-21.4,2.3s-14.3,1.1-21.5,1.6-14.5.4-21.7.6c-29,.3-58.5-2.6-87.2-10.7s-56-22.5-78.3-42.9a160.5,160.5,0,0,1-28.8-34.3,136.8,136.8,0,0,1-10.3-19.7,104.5,104.5,0,0,1-6.6-21.6,5.5,5.5,0,0,1,4.5-6.3,5.4,5.4,0,0,1,5.7,2.6l.3.6a174.6,174.6,0,0,0,23.7,31.2,206.9,206.9,0,0,0,29.5,25.2c21.1,14.7,45,24.5,69.8,31.5a330.5,330.5,0,0,0,77.9,10.9c26.7.4,53.6-2.1,80.2-6.5h.3a16.2,16.2,0,0,1,18.7,13.4,15.9,15.9,0,0,1-1.1,9.2,120.8,120.8,0,0,1-5.7,11.4c-2,3.6-4.1,7-6.2,10.4a178.2,178.2,0,0,1-14.3,19.3,163.6,163.6,0,0,1-36.4,32.4,135.8,135.8,0,0,1-45.9,18.8,146.1,146.1,0,0,1-49.3,1.4,152,152,0,0,1-47-14,123.1,123.1,0,0,1-39.6-31.1,130.2,130.2,0,0,1-23.7-44.1,154,154,0,0,1-5.4-24c-.6-4-1-8.1-1.3-12.2-.1-2.1-.2-4.2-.2-6.3s0-4,.1-6.8a16.4,16.4,0,1,1,32.8,1.8Z" transform="translate(0.1 0.4)"/>
    <path class="c" d="M1494,853.8c-14.3-.5-26.4-1.7-38-2.4a226.9,226.9,0,0,0-31.9-.1,131,131,0,0,0-29.6,5.7c-10.2,3.2-20.9,8.4-34.2,14.2,1.4-14.4,8.7-27.5,19.7-37.6a70.1,70.1,0,0,1,41.4-17.2,79.8,79.8,0,0,1,42.4,8.7C1476.2,831.7,1487.3,840.8,1494,853.8Z" transform="translate(0.1 0.4)"/>
    <path class="l" d="M2716,796a832,832,0,0,1-4.9,97.1c-15.9,148.8-67.2,283.9-140.7,405.3l-.5.9c-5.1,8.8-50.2,86.2-114.3,159l-.4.5c-80.2,90.9-180.9,158.4-288.2,108.3-51-23.8-77.9-55.9-88.9-92.5-12.4-41.3-4.7-88.3,11.6-135.8,26-75.3,73.6-151.6,97-207.8,51.5-123.3-13.2-261.8,19.8-399.4,39.7-165,190.1-205.9,190.1-205.9s109.3-31.3,188.8,13.6c46.7,26.4,77.8,63.3,96.4,91.1,15.2,22.8,22,39.5,22,39.5l10.5,109.3Z" transform="translate(0.1 0.4)"/>
    <g class="d">
      <path class="e" d="M2374.2,530c-2.7,2.7-90.3,91.5-114.7,180.8l-.2.9a45,45,0,0,0-1.6,4.8c-.1.2-.2.3-.2.5-2,6.2-3.8,12.6-5.3,19.1-32.2,135.6,27.8,286.6-22.4,408.1s-213.9,344.1-28.3,437.2a181.2,181.2,0,0,1-44.5-14.3c-199.1-93-31.7-312.8,19.7-436.1s-13.2-261.8,19.8-399.4q1.2-4.6,2.4-9C2234.1,593.2,2338.2,543.5,2374.2,530Z" transform="translate(0.1 0.4)"/>
    </g>
    <path class="c" d="M2588.4,533.4c15,4.6,29.9,10.6,43.3,19.3,7,3.9,13.2,9,19.7,13.6a209.9,209.9,0,0,1,18,16,226.9,226.9,0,0,1,30.7,37c4.5,6.7,8.7,13.5,12.7,20.6,1.9,3.6,3.8,7.1,5.6,10.8,1,1.8,1.8,3.8,2.7,5.7l1.3,2.9,1.3,3.4a17.2,17.2,0,0,1,.7,2.1v.8c2.1,9.5,3.6,18.3,5.1,27.4s2.6,18.1,3.6,27.2c2,18.2,3.3,36.5,3.6,55s-.4,36.6-1,54.7-1.8,36.2-3.6,54.4a959.1,959.1,0,0,1-45.7,212.8c-23.1,68.8-54,135-90.5,197.3l-13.7,23.2c-4.7,7.8-9.4,15.6-14.3,23.2q-14.5,23-30.2,45.1a1041.9,1041.9,0,0,1-67.2,85.7l1-1.3-1.1,1.4-.8.9-.5.5-1,1.1-2,2.2-4.1,4.5-8.1,8.8c-5.8,5.9-11.4,11.8-17.3,17.6-11.9,11.5-24.2,22.6-37.3,33-26.2,20.7-55.2,38.9-87.9,51s-69.4,15.9-104.4,9.5c-4.5-.5-8.7-1.9-13-3l-12.8-3.5c-8.2-3.2-16.5-6.4-24.4-9.9l-11.5-6-5.8-2.9-5.5-3.5-11.1-7c-3.6-2.6-7.1-5.4-10.6-8-13.8-11.1-26.9-24.2-36.5-40a152.6,152.6,0,0,1-20.5-50.8c-3.7-17.8-3.9-35.8-2.6-53.1.5-8.7,2-17.2,3.2-25.7s3.4-16.7,5.7-24.8a439,439,0,0,1,15.4-47.5c5.9-15.4,12.4-30.4,19.2-45.2,13.6-29.5,28.5-58,43-86.2s29-56.4,37.1-83.8,11.2-58.2,11.1-88.8c-.3-61.4-11.3-124.9-10.7-191,.2-33,3.6-66.6,12-99.5a295.5,295.5,0,0,1,16.7-48.2,343.9,343.9,0,0,1,24.1-45.2,247.8,247.8,0,0,1,70.6-73.6,207,207,0,0,1,44.9-23.6,187.5,187.5,0,0,1,24.2-7.4c8.4-1.7,16.5-3.2,25.6-3.3a6.8,6.8,0,0,1,6.9,6.8,7.1,7.1,0,0,1-3,5.8l-.5.3c-26,17.5-51,34.9-73.8,53.9s-43.4,40.1-60.5,64.2a242.3,242.3,0,0,0-36.5,80.4c-7.3,28.9-10.5,59-10.7,89.7-.7,61.5,10.2,124.4,10.7,190.6.1,33-2.9,67.1-12.7,100.1-2.4,8.3-5.6,16.3-8.5,24.4s-6.4,15.5-9.9,22.9c-6.9,14.8-14.2,29.3-21.5,43.5-14.6,28.5-29.2,56.4-42.2,84.8-6.6,14.2-12.8,28.4-18.2,42.7a391.7,391.7,0,0,0-14.1,43.4c-2.1,7.2-3.4,14.5-5,21.7s-2.3,14.6-2.7,21.7c-1.1,14.4-.9,28.6,1.9,42a113.6,113.6,0,0,0,42.7,67.5l8.4,6.4,9.2,5.7,4.5,2.9,4.9,2.5,9.8,5c6.5,2.9,13.2,5.5,19.8,8.1l10.2,2.8c3.4.8,6.8,2.1,10.3,2.4,27.6,4.9,56.3,2.1,83.5-7.8s52.9-25.9,76.6-44.7c11.9-9.4,23.2-19.7,34.3-30.3l16.2-16.5,8-8.7,4-4.4,2-2.2,1-1.1.5-.6-.3.4-.6.7,1-1.2a1009.9,1009.9,0,0,0,64.5-82.2c10-14.3,19.8-28.9,29.1-43.6,4.8-7.3,9.3-14.8,13.8-22.2l13.4-22.8c35.4-60.4,65-123.9,87.2-190a905.8,905.8,0,0,0,43.6-203.7c1.4-17.2,2.3-34.6,2.7-52s.4-35.2-.3-52.1-2.2-34.3-4.3-51.4c-.9-8.6-2-17.2-3.3-25.7s-2.5-17.3-3.9-25.2l.8,2.9c-.8-2.3-2.2-5.7-3.6-8.7s-2.8-6.2-4.2-9.3q-4.7-9.3-9.9-18.3a325.1,325.1,0,0,0-23.5-34.7c-4.1-5.7-8.8-10.8-13.2-16.4s-9.5-10.5-14.6-15.4c-10-10.3-21.1-19.4-32.5-29l-.3-.3a6.7,6.7,0,0,1-.8-9.5A6.5,6.5,0,0,1,2588.4,533.4Z" transform="translate(0.1 0.4)"/>
    <path class="c" d="M761.1,883.1s48.7-38.6,121.1-20.3c0,0-19.5,66.3-41.8,76.4C840.4,939.2,794.5,938.1,761.1,883.1Z" transform="translate(0.1 0.4)"/>
    <g>
      <ellipse class="k" cx="823.8" cy="881.3" rx="26.9" ry="11.2" transform="translate(-114.5 123.4) rotate(-8)"/>
      <path class="c" d="M816.7,894.9a43.1,43.1,0,0,1-11.2-1.3c-6.1-1.6-9.7-4.5-10.2-8.3s2.1-7.6,7.6-10.8,11.7-5.2,19-6.2,14.5-.8,20.1.7,9.7,4.5,10.3,8.3-2.2,7.6-7.6,10.8-11.8,5.2-19.1,6.2A67.7,67.7,0,0,1,816.7,894.9Zm14.1-23.5a59,59,0,0,0-8.3.6c-6.9,1-13.2,3-17.7,5.7s-6.1,5-5.8,7.1,3.1,4.1,7.5,5.2,11.7,1.6,18.6.6,13.1-3,17.7-5.7,6.1-5,5.8-7.1h0c-.3-2.1-3.1-4-7.6-5.2A39.1,39.1,0,0,0,830.8,871.4Z" transform="translate(0.1 0.4)"/>
    </g>
    <path class="c" d="M840.4,955.6h-.3c-2.3-.1-55.4-2-93-64a16.4,16.4,0,0,1,3.8-21.4c2.3-1.8,56-43.4,135.3-23.4A16.5,16.5,0,0,1,898,867.4c-5.1,17.3-23.8,74.6-50.8,86.7A15.7,15.7,0,0,1,840.4,955.6ZM784.5,888c20.3,25.7,42.6,32.4,52,34.2,6.7-6.5,16.4-25.5,24.2-46.8A132.1,132.1,0,0,0,784.5,888Z" transform="translate(0.1 0.4)"/>
    <path class="c" d="M733.1,1044.3c-5.8,0-11.2-.3-16.2-.7a199.6,199.6,0,0,1-50.2-11.7,16.4,16.4,0,0,1,12.5-30.4,161.7,161.7,0,0,0,40.8,9.4c54.9,5.2,90.1-20.3,104.5-75.9a16.6,16.6,0,0,1,12.6-11.9,16.2,16.2,0,0,1,16.2,5.9c.3.4,29.7,36.9,66.3,38.1,19,.7,37.6-8.8,55.2-28.2A197,197,0,0,0,998,906.7a16.4,16.4,0,1,1,28.3,16.7A226.6,226.6,0,0,1,999.1,961c-24.4,26.9-51.7,40-80.9,39s-54.5-16.9-70.7-30.5C821.2,1031.5,770.4,1044.3,733.1,1044.3Z" transform="translate(0.1 0.4)"/>
    <path class="c" d="M865.7,1171.4c-29.5,0-56.8-8.5-81.6-25.4-57.9-39.5-80.4-110.9-81.4-114a16.4,16.4,0,0,1,17.3-21.1c54.9,5.2,90.1-20.3,104.5-75.9a16.6,16.6,0,0,1,12.6-11.9,16.2,16.2,0,0,1,16.2,5.9c.3.4,29.7,36.9,66.3,38.1,19,.7,37.6-8.8,55.2-28.2a16.4,16.4,0,0,1,16.1-4.9,16.2,16.2,0,0,1,11.9,11.8c1,3.5,22.2,86.3-8.8,151.1h0c-17.6,36.9-48,60.4-90.4,70.1A173.8,173.8,0,0,1,865.7,1171.4ZM742.9,1044c10.1,21.5,29.3,54.1,59.7,74.8,27.3,18.7,58.8,24.1,93.7,16.1,32.6-7.4,54.9-24.4,68.1-52.1h0c16-33.4,14.8-74.4,11.6-101-18.1,12.8-37.5,18.9-57.8,18.2-29.6-1.1-54.5-16.9-70.7-30.5C823.4,1026.3,778.9,1041.8,742.9,1044Z" transform="translate(0.1 0.4)"/>
    <path class="a" d="M1913.6,1666c3.9,204.7-669.1,202-929.8,34.7l-4.6-3,184.9-289s6.4,4.4,20.5,11.3c34.4,16.9,115.2,48.5,263.1,66.4,145.6,17.6,313-2.2,402.2,54.3,30.5,19.4,51.8,47.6,60,89.3A209.6,209.6,0,0,1,1913.6,1666Z" transform="translate(0.1 0.4)"/>
    <g class="d">
      <path class="e" d="M1909.9,1630c-51.7-48.6-143.5-81.7-294.6-89.3-314.1-15.7-413.1-87.2-430.7-120.7,34.4,16.9,115.2,48.5,263.1,66.4,145.6,17.6,313-2.2,402.2,54.3C1880.4,1560.1,1901.7,1588.3,1909.9,1630Z" transform="translate(0.1 0.4)"/>
    </g>
    <g class="b">
      <path class="c" d="M1913.6,1666c3.9,204.7-669.1,202-929.8,34.7,12.8,4.2,25.7,8.1,38.6,11.5,29.1,7.6,58.8,12.7,88.5,17a1731.9,1731.9,0,0,0,581.2-15.3c63.2-12.5,134.3-35.6,158.9-95.1,10.3-24.7,9.4-53.7-1.1-78.1C1888.4,1565.2,1912.3,1603.9,1913.6,1666Z" transform="translate(0.1 0.4)"/>
    </g>
    <path class="c" d="M1167.3,1404.2c17.8,5.9,36.3,11.4,54.5,16.6s36.6,10.3,55.1,15.1c36.9,9.3,74.3,17.9,112.1,24.8,75.6,14.3,152.7,17.4,230.8,23.1,39,2.9,78.2,6.2,117.5,12,19.6,3,39.3,6.8,58.9,11.8s39.1,11.4,58.1,20.7,37.3,21.8,51.6,39.4,23.1,40.1,25,62.1a154,154,0,0,1-.5,32.6,119.8,119.8,0,0,1-2.6,16.3c-.6,2.8-1.5,5.4-2.3,8.2a56.6,56.6,0,0,1-2.7,7.9c-8,21.1-21.9,39-37.6,53.5-31.9,28.8-70,45.7-108.1,58.4s-77.5,20.6-116.8,26c-78.7,10.5-157.9,11.3-236.5,6.1s-156.9-17.3-233.5-36.8c-19.1-4.9-38.2-10.3-57.1-16.3s-37.8-11.9-56.5-18.9a346.9,346.9,0,0,1-54-25.8,210.5,210.5,0,0,1-24.7-17.3c-4-3.2-7.7-6.6-11.4-10.1a139.2,139.2,0,0,1-10.4-11.3,5.7,5.7,0,0,1,.9-8.1,5.5,5.5,0,0,1,4.9-1.1h.2a149.3,149.3,0,0,1,14.3,4.4c4.7,1.5,9.3,3,13.7,4.8s9.1,3.2,13.5,5l13.3,5.2,52.7,21.7c17.5,7.3,35.3,14.4,53.5,20.2s36.7,11,55.3,15.8c74.3,18.9,150.8,30.5,227.5,35.8s154.1,4.3,229.8-5.9c37.9-5.2,75.3-12.8,111-24.5s70.1-27.8,96.2-51.5c12.8-11.9,23.3-25.7,29.1-41.1a39.7,39.7,0,0,0,2-5.8c.6-2,1.3-4,1.7-6a93.3,93.3,0,0,0,2-12.5,123,123,0,0,0,.4-25.7,82.9,82.9,0,0,0-17.8-44.6c-10.3-12.7-24.6-22.8-40.6-30.7s-33.8-13.6-51.9-18.3a557.9,557.9,0,0,0-55.6-11.1c-37.7-5.6-76.2-8.9-114.9-11.7s-77.6-5.1-116.7-8.4c-19.5-1.6-39.2-3.7-58.8-6l-29.3-3.7c-9.7-1.2-19.5-3-29.2-4.3-39-5.9-78-13.5-116-25.5-18.9-6-37.8-12.7-55.7-21.7-4.6-2-9-4.7-13.4-7s-8.7-5.1-13-7.8c-8.5-5.6-16.6-11.3-24.3-19a5.6,5.6,0,0,1,5.7-9.2Z" transform="translate(0.1 0.4)"/>
    <g class="b">
      <path class="c" d="M1014.8,1392.8C575.3,1517,291.9,1252.6,287.7,1247c44.7,83.5,100,160.9,162,232.4,95.5,37,200.9,57.4,311.6,57.4,238.1,0,451.5-94.9,595.7-244.8-23.7-27.2-42.1-53.5-56-78.8C1236.7,1290.4,1145.1,1356,1014.8,1392.8Z" transform="translate(0.1 0.4)"/>
    </g>
    <g>
      <path class="c" d="M1804.3,1596.1c8.1-1.7,15.8-3.3,23.5-5.3s15.2-4,22.7-6.3,14.8-4.6,22.3-6.6a204.9,204.9,0,0,1,22.3-5.2h.7a12,12,0,0,1,13.7,10.2,12.1,12.1,0,0,1-6.6,12.7c-8,3.9-15.9,6-24.1,7.7a160.7,160.7,0,0,1-24.9,2.7c-16.7.5-33.9-.8-49.9-6.4a1.9,1.9,0,0,1-1.1-2.3,2.5,2.5,0,0,1,1.3-1.2Z" transform="translate(0.1 0.4)"/>
      <path class="c" d="M1919.9,1652.1a62.3,62.3,0,0,1-7.6,4.8c-2.5,1.3-4.9,2.6-7.4,3.6a71.5,71.5,0,0,1-7.7,2.9,52.8,52.8,0,0,1-7.7,2.4,149.1,149.1,0,0,1-31.7,4.8,194.4,194.4,0,0,1-31.5-1.1c-5.2-.6-10.3-1.7-15.4-2.6s-10.1-2.5-15.1-4a1.7,1.7,0,0,1-1.1-2.2,1.7,1.7,0,0,1,1.4-1.2h.1l15-2.1c5-.9,10-1.3,14.8-2.3,9.8-1.5,19.3-3.7,28.7-6s18.3-5.3,27.2-8.3l13.1-4.6,6.4-2.4,5.8-2.2,2.1-.6a12,12,0,0,1,10.6,21.1Z" transform="translate(0.1 0.4)"/>
      <path class="c" d="M1903.2,1719.4c-8.8,4.4-17.4,6.7-26.4,8.6a156.8,156.8,0,0,1-27.3,2.6,158.4,158.4,0,0,1-27.5-2,112,112,0,0,1-26.3-7.6,1.8,1.8,0,0,1-.9-2.4,1.6,1.6,0,0,1,1.4-1h.1c8.9-.9,17.4-1.8,25.8-3.3s16.6-3.1,24.7-5.2,16.1-4.5,24.1-6.6,16.3-4.3,23.9-5.7h.9a12.1,12.1,0,0,1,7.5,22.7Z" transform="translate(0.1 0.4)"/>
    </g>
    <path class="c" d="M1443.7,2107.6a426.5,426.5,0,0,1-174-37.1c-20.7-9.2-41.5-18.8-61.8-28.4-117.9-58.4-171.4-118.9-168.6-190.6,3-79,71.4-103.4,74.3-104.4a16.4,16.4,0,1,1,10.7,31c-1.9.7-50,18.6-52.2,74.7s45.5,107.9,150.1,159.8c19.8,9.3,40.4,18.8,60.9,28a395,395,0,0,0,321.2,0c204.4-91.3,585.1-289.6,838.3-592.4l.6-.7c16.7-20,32.5-40,46.9-59.4,20.3-27.1,39.5-55.1,57.1-83.3a3.6,3.6,0,0,1,.7-1l1.3-2.1c2.2-3.7,4.4-7.3,6.7-10.9l.3-.6a1072.6,1072.6,0,0,0,55.8-104.6,16.6,16.6,0,0,1,21.9-8,16.3,16.3,0,0,1,7.9,21.8,1107,1107,0,0,1-57.3,107.5l-.6.9c-2.2,3.7-4.5,7.4-6.8,11.1l-1.9,3.2a10.5,10.5,0,0,0-.8,1.1c-17.9,28.6-37.4,57-57.9,84.5-14.8,20-31.1,40.6-48.3,61.2a3,3,0,0,1-.8.8c-257.4,307.6-642.8,508.5-849.7,600.8A426.5,426.5,0,0,1,1443.7,2107.6Zm998.8-659.1Z" transform="translate(0.1 0.4)"/>
    <g class="b">
      <path class="c" d="M2716,796a832,832,0,0,1-4.9,97.1c-15.9,148.8-67.2,283.9-140.7,405.3l-.5.9c-5.1,8.8-50.2,86.2-114.3,159l-.4.5c-80.2,90.9-180.9,158.4-288.2,108.3-51-23.8-77.9-55.9-88.9-92.5-12.4-41.3-4.7-88.3,11.6-135.8-5.6,37.7,18,75.8,51.1,95.1s74.2,22,112.3,16.3c90.3-13.4,172.5-73.5,212.7-155.5,46.3-94.5,37-206.9,71.3-306.4,24.4-70.6,67.1-133.4,102.4-199.3,38.9-72.8,38.9-89.8,42.3-158.6,15.2,22.8,22,39.5,22,39.5l10.5,109.3Z" transform="translate(0.1 0.4)"/>
    </g>
    <path class="c" d="M1809.5,977.1a74.3,74.3,0,0,1,19-16.9,90.1,90.1,0,0,1,23.3-10.8,88.5,88.5,0,0,1,53.4.2,87.3,87.3,0,0,1,24.6,12.3c3.8,2.5,7,5.6,10.4,8.6s6.2,6.2,8.7,9.7a102.6,102.6,0,0,1,20.7,45,6.5,6.5,0,0,1-5.1,7.5,6.4,6.4,0,0,1-5.7-1.8h-.1c-10.7-11.1-20.8-21.2-31.3-29.3a101.4,101.4,0,0,0-16.1-10.3,71.3,71.3,0,0,0-16.6-6.7c-11.4-3.1-23.5-3.9-36.6-3.1s-27.1,3.3-41.8,5.8l-.7.2a6.5,6.5,0,0,1-7.4-5.3A6.4,6.4,0,0,1,1809.5,977.1Z" transform="translate(0.1 0.4)"/>
    <path class="c" d="M445.1,898a78.1,78.1,0,0,1,2.6-26.1,97.9,97.9,0,0,1,10.2-24.4,91.8,91.8,0,0,1,40.7-37.1,88.7,88.7,0,0,1,27.2-7.7c4.7-.8,9.3-.7,13.9-.8s9.1.4,13.4,1.3A106.3,106.3,0,0,1,600.2,823a6.6,6.6,0,0,1,1.3,9.2,6.7,6.7,0,0,1-5.6,2.6h-.1c-15.9-.9-30.6-1.6-44.2-.4a107.6,107.6,0,0,0-19.4,3.3,78.3,78.3,0,0,0-17.3,6.6c-10.8,5.6-20.5,13.3-29.9,23.1s-18.3,21.4-27.7,33.5l-.4.6a6.7,6.7,0,0,1-9.3,1.2A6.5,6.5,0,0,1,445.1,898Z" transform="translate(0.1 0.4)"/>
    <path class="c" d="M1153.6,731.5c-13.6-7.1-26.6-14-39.1-18.8s-24.7-7.9-36.9-8.4a81.8,81.8,0,0,0-18.4,1.2,105.6,105.6,0,0,0-19,5.2c-12.9,4.6-26,11.4-40,18.8h-.1a6.5,6.5,0,0,1-8.8-8.9,105.7,105.7,0,0,1,34.4-37.7c3.6-2.7,7.7-4.6,11.7-6.8s8.3-3.9,12.9-5.1a87.1,87.1,0,0,1,27.9-4.4,91.5,91.5,0,0,1,52.5,16.6,97.9,97.9,0,0,1,19.5,17.9,76.2,76.2,0,0,1,13.3,22.6,6.5,6.5,0,0,1-9.1,8.1Z" transform="translate(0.1 0.4)"/>
  </g>
</svg>
