<svg xmlns="http://www.w3.org/2000/svg" viewBox="0 0 2842.6 2039.9">
  <defs>
    <style>
      .a {
        fill: #f97e2b;
      }

      .b {
        opacity: 0.21;
      }

      .b, .d, .h {
        isolation: isolate;
      }

      .c {
        fill: #754545;
      }

      .d {
        opacity: 0.6;
      }

      .e {
        fill: #fff;
      }

      .f {
        fill: #8c8c8c;
      }

      .g {
        fill: #ffa86e;
      }

      .h {
        opacity: 0.2;
      }

      .i {
        fill: #b55040;
      }

      .j {
        fill: #f08484;
      }
    </style>
  </defs>
  <g>
    <path class="a" d="M956.6,1428.2a3751.5,3751.5,0,0,0-98.2,501.6c-21.8-11.7-46.1-26-70.8-42.2h0C447.5,1666.4,601.1,1464.2,956.6,1428.2Z" transform="translate(-580.9 -1023.4)"/>
    <g class="b">
      <path class="c" d="M956.6,1428.2a3751.5,3751.5,0,0,0-98.2,501.6c-21.8-11.7-46.1-26-70.8-42.2h0c-82.8-55.1-174.7-130.8-189.4-226,116.3,103.9,242.6-145.4,301.2-224.3C919.4,1433.7,938.6,1430.7,956.6,1428.2Z" transform="translate(-580.9 -1023.4)"/>
    </g>
    <path class="c" d="M1962,3014.3c-72.8,0-160.1-35.9-234.5-66.4-17.1-7.1-33.3-13.7-48.5-19.6a19.9,19.9,0,0,1-12.7-17.5c-1.8-30.2,10.2-60.6,32.8-83.3s54.5-35.7,85.9-34a20,20,0,0,1-2.3,40c-19.9-1.1-40,7-55.3,22.3a72,72,0,0,0-20.7,40.4l36,14.7c96.4,39.6,216.4,88.9,278.1,48.8,28.8-18.7,44.3-58.2,46-117.4a20.1,20.1,0,0,1,20.5-19.4,19.9,19.9,0,0,1,19.4,20.6c-2,73-23.6,123.4-64.1,149.7C2019.5,3008.2,1992,3014.3,1962,3014.3Z" transform="translate(-580.9 -1023.4)"/>
    <g class="d">
      <path class="e" d="M956.6,1428.2c-5.2,19.7-10.4,39.5-15.4,59.3-135.5,19.9-290.6,58.2-337.2,200.4C548.6,1509,807,1448.2,956.6,1428.2Z" transform="translate(-580.9 -1023.4)"/>
    </g>
    <path class="c" d="M858.7,1949.7a19.8,19.8,0,0,1-9.2-2.2c-94.2-49-165.4-103.1-211.6-160.8s-64.6-116.3-54.2-170.6c21.2-110.4,156.5-186.2,371.2-207.8a20,20,0,0,1,21.4,25,3746.2,3746.2,0,0,0-97.8,498.9,19.7,19.7,0,0,1-19.8,17.5Zm71.4-498.3c-176.6,22.8-290.6,86.3-307.1,172.2s65,188.7,219.6,274.8A3795,3795,0,0,1,930.1,1451.4Z" transform="translate(-580.9 -1023.4)"/>
    <path class="c" d="M3357.7,2065.2c-166.7,545.9-718.3,844.1-1243.9,978.1a294.2,294.2,0,0,1-119.5-14.9c-335.6-113.5-673.8-250.8-909.4-514.7h-.1C941.6,2358.5,833,2168.9,797.1,1960c-4.2-23.9-7.3-48.2-9.5-72.4-13.6-150.7,9.4-306.1,74.8-442.9,228.1-479,935.4-555,1227.2-55.3.1-.1.2-.2.2-.3C2316.1,993.8,2845.5,943.7,3163,1235,3387.2,1440.4,3442.7,1781.7,3357.7,2065.2Z" transform="translate(-580.9 -1023.4)"/>
    <path class="c" d="M2065.9,3063.4a22.5,22.5,0,0,1-5.2-.7c-436.4-115.1-769.9-295.7-991.4-536.7-136.6-141.6-236.1-323.9-280-512.9-47.4-204.6-28.3-404,55.3-576.8,71-156.3,192.6-274.9,351.8-343.3,145.6-62.5,312-77.4,468.4-41.9,145.4,32.9,269.3,105.6,358.3,210.3,96.2,113.2,146.4,260.1,145.3,425.4,113.4,83.3,152.8,231.6,104.7,392.7,241.5,146.4,487.5,321.1,731.2,519.6a20.1,20.1,0,0,1,.7,30.4c-202.6,182.6-646.6,406.9-937.3,433.8Zm-570.8-1991c-234.6,0-491,109.3-614.1,380.6l-.3.5c-155.5,321.1-66,750.9,217.7,1045.1,216,235,541.9,411.3,969.1,524.5,275.1-26.8,688.9-233.3,893.1-407.9-240.7-194.8-483.4-366.2-721.7-509.6a20,20,0,0,1-8.6-23.5c39.9-120.2,36.4-280.1-93.3-368.5a20.3,20.3,0,0,1-8.7-16.9c7.2-366.8-239.3-553.8-472.3-606.6A727.9,727.9,0,0,0,1495.1,1072.4Z" transform="translate(-580.9 -1023.4)"/>
    <path class="e" d="M2991.4,2614.6c-204.3,183.9-644,402.5-925.5,428.7-362-95.1-728.4-255.3-981-529.7h-.1c-36.4-55.5-49.8-131.6-54.2-202.6-137.3-65.7-215.2-204.5-233.5-350.9-1.1-6.6-2.5-14.8-3.4-21.5h0c-24.4-166.5-4-341.4,68.8-493.8C1153.7,822.7,2162.7,961.2,2148,1697c128.3,87.5,149,246.7,100.9,391.4C2508.9,2245,2755.8,2422.9,2991.4,2614.6Z" transform="translate(-580.9 -1023.4)"/>
    <path class="f" d="M1747.6,1515.4c-66.3,67.8-169.6,94.5-262.7,81.5-43.3-80.3-178.6-278.1-80.9-347.2,93.5-55.5,209.9-68.8,307.6-55.4C1816.4,1271.4,1844.8,1419.2,1747.6,1515.4Z" transform="translate(-580.9 -1023.4)"/>
    <path class="a" d="M2749.4,2425.8c-74.5,178.7-306.9,368-495.9,236.2-85.4-65-80.6-165.8-33.2-252,37.3-91.4-30.4-138.4-117.7-140.7A780.3,780.3,0,0,0,2256.7,2093C2426,2195.4,2589.8,2306.8,2749.4,2425.8Z" transform="translate(-580.9 -1023.4)"/>
    <path class="a" d="M2086.5,2842.9c-7.3,254.9-253.2,123.8-400.5,66.7-3.1-52.9,45.2-99,97.6-96.1,39.2,1.7,72.7,27.3,108.9,42.6C1954.3,2882.4,2028,2876.5,2086.5,2842.9Z" transform="translate(-580.9 -1023.4)"/>
    <path class="c" d="M2309.1,2040.1a369.5,369.5,0,0,1-34.2,73.9c-3.5,5.8-7.1,11.6-10.8,17.3l-11.6,16.7-12.4,16.2-13,15.6a443.7,443.7,0,0,1-58.8,55.9,371.5,371.5,0,0,1-67.9,43.2,7.8,7.8,0,0,1-10.4-3.6,7.9,7.9,0,0,1,1.7-9.1h.1c19-17.7,37.3-35.6,54.5-54.3a702.2,702.2,0,0,0,48.3-58.4l11.1-15.2,10.6-15.6,10.2-15.7c3.2-5.4,6.5-10.7,9.8-16,12.8-21.5,24.5-43.6,35.9-66.1h0a20,20,0,0,1,36.9,15.3Z" transform="translate(-580.9 -1023.4)"/>
    <path class="g" d="M1731.1,1467.9a1997.7,1997.7,0,0,0-219.3-130.8c-19.3-13.7-45.5-6.2-50.1,18.5C1469.1,1519.6,1604.5,1576.5,1731.1,1467.9Z" transform="translate(-580.9 -1023.4)"/>
    <g class="h">
      <path class="c" d="M2926,2562c-210.1-167.2-429-323.2-658.3-462.2-4.7-9.6-9.3-19.1-13.9-28.7,43-141.5,16.4-290-105.7-374.2a793.4,793.4,0,0,0-20-176.1c2,132.7,21.2,265.3,55.3,393.5-68.4-150.1-72-313.5-78.7-475.1-28.6-101.6-117.2-189.4-185.8-247.7a1063.6,1063.6,0,0,1,134.3,224.2c-124.4,291.2,241.2,540.5-15.7,843.6-47.3,61.9-136.2,107.6-207.1,140.1C1605,2503,1058,2648.8,1072.2,2277.6c-142-47.9-229.9-222.1-278.5-339.2.9,6.7,2.3,14.9,3.4,21.5,31.1,208.7,147.4,398.3,287.7,553.5h.1c252.5,274.3,619.1,434.7,980.9,529.8,280.6-25.8,721.4-244.8,925.5-428.7C2969.6,2596.9,2947.9,2579.4,2926,2562Zm-323.5,176.1c-113.6,72.7-275.9,153.2-410.3,102.7-103.8-62.2-62.3-214.6-130.9-301.4,12.5,138.3-37.2,325.8-211.9,295.4-78.9-18.3-170.7-44.8-240.9-93.4-51.9-35.9-40.3-116.1,19.8-135.3,128.6-41.1,247.3-113.3,342-209.6-15.9,4.4-31.5,9-47.3,13.7,133.3-62.6,248.7-163.9,330.6-286.9,91.4,181.2,143.4,406.4,340.2,503.3C2637.7,2649,2642.7,2709.8,2602.5,2738.1Z" transform="translate(-580.9 -1023.4)"/>
    </g>
    <path class="e" d="M3401.2,1849.5c-20.4,234.6-126.2,459-282.7,633.9-46.1,55.5-119.6,71.4-194.1,77.4-208.6,17.3-435.6-86.6-507.5-290.8-38.4-50.1-85.9-97.2-121.3-153.3-143.9-214.9-242.9-494.2-190.2-751.2,164-235.8,420.5-364.7,694.3-309.4h0C3169.2,1107.6,3431.4,1482,3401.2,1849.5Z" transform="translate(-580.9 -1023.4)"/>
    <g class="h">
      <path class="c" d="M3401.2,1849.5c-43.9,372.3-272.3,856.9-713.1,680.9-122.3-41.1-232.5-144.1-273.2-266.2-196.9-198.8-418.7-662.1-286.8-929.6-51.1,235.8,120.8,418.8,304.4,194.4,79.9-106.4,119.1-246.6,226.1-325.8,54.9-39.9,137-70.9,146.1-147,60.9,33,46.6,146,14.3,194.2-110.8,174.8-137.3,265.8-203.1,503.2C2572.2,1911,2402,1953,2325,1834.4c-176.8,26.6-13.1,374.8,230.5,182.6-196.7,325.8,559.4,631,575.6,227.4,248.6-33.9,304.6-649.5,152.1-863.3C3368.8,1514.2,3413.3,1685.4,3401.2,1849.5Z" transform="translate(-580.9 -1023.4)"/>
    </g>
    <path class="i" d="M2840.2,1132.8c-30.9,102-143.5,76.8-208.1,303.4-22.3,78.7-44.4,157.4-72.2,234.4-96.8,267.8-405.3,157.8-448.7,18.6-20.1-97.8-25.9-197-13.9-293,154.4-298.2,471.6-387.4,702.3-340.1C2824.6,1075.1,2843.7,1101.2,2840.2,1132.8Z" transform="translate(-580.9 -1023.4)"/>
    <path class="c" d="M2065.9,3063.3a18.1,18.1,0,0,1-5.2-.7c-436.4-115.1-770-295.7-991.4-536.7-136.6-141.6-236.1-323.9-280-512.8-47.4-204.7-28.3-404.2,55.5-577.1,114-239.5,353.6-395.5,625.3-406.9,253.3-10.7,482.6,109.1,619.7,321.8,106.2-167.9,272.2-278.1,471-311.8,217.3-36.8,436.7,24.6,601.8,168.5,223,192.5,310,536.8,216.5,856.6,0,.1,0,.2-.1.2-79.5,260.5-257.1,493.8-513.4,674.6-225.1,158.8-507.9,273.9-796.3,324ZM1501.1,1068.5c-9.7,0-19.5.2-29.3.6-256.8,10.8-483.3,158-591,384.2-155.6,321.3-66.1,751,217.6,1045.2,215.8,234.9,541.5,411.1,968.3,524.3,477.7-84.1,1096.3-388.1,1274-969.9,89.2-305.1,7.1-632.6-204.3-815.1-156.1-136-363.5-194-568.9-159.2-197.8,33.5-361.3,147.4-460.2,320.7a19.9,19.9,0,0,1-17.3,10.1h-.1a20,20,0,0,1-17.2-9.9C1950.8,1190.7,1738.7,1068.5,1501.1,1068.5Zm1858.8,990.1Z" transform="translate(-580.9 -1023.4)"/>
    <path class="a" d="M1748,1515.4c-66.4,67.8-169.8,94.5-262.9,81.5-41.3-73.8-178.9-284.8-80.9-347.2,94-55.3,207.5-68.8,307.7-55.4C1817.4,1273.2,1845.2,1417.6,1748,1515.4Z" transform="translate(-580.9 -1023.4)"/>
    <g class="d">
      <path class="e" d="M1543,1229c2.8,7.7-15.7,21.3-41.1,30.3-22.6,8.1-43.2,9.9-49.4,4.8-31.5,20.2-53.1,46.7-54.5,82.6q5.6,60,15.5,119.5c-22.9-64.4-83.1-166.2-9.3-216.4,88.4-52.4,197.2-67.1,291.3-57.4-37.6,9.1-97.7,18-154.1,34.4A4.8,4.8,0,0,1,1543,1229Z" transform="translate(-580.9 -1023.4)"/>
    </g>
    <g class="h">
      <path class="c" d="M1748,1515.4c-66.4,67.8-169.8,94.5-262.9,81.5-48-78-92.5-159-111.6-248.8,96,150.9,330.1,158.7,435.3,13.7C1811,1417.7,1787.3,1474.8,1748,1515.4Z" transform="translate(-580.9 -1023.4)"/>
    </g>
    <path class="i" d="M2586.9,1896.2c4.8-277.8,418-277.8,422.7,0C3004.9,2174,2591.7,2174,2586.9,1896.2Z" transform="translate(-580.9 -1023.4)"/>
    <path class="c" d="M1486.9,1618.5c-18.6-27.6-38-55.5-55.8-84.5s-34.8-58.8-49.3-90.3-26.8-64.9-31-102.1c-1.8-18.5-1.8-38.4,5-58.2a82.7,82.7,0,0,1,6.1-14.5c1.2-2.3,2.4-4.7,3.8-6.9l4.6-6.6,2.4-3.2a37.1,37.1,0,0,1,2.7-2.9l5.5-5.8a141.3,141.3,0,0,1,12.1-9.9l.6-.5.6-.3c24.5-14.4,50.6-25.6,77.3-34.4s54.2-14.6,81.7-18.5a492.7,492.7,0,0,1,83.1-3.9,470.1,470.1,0,0,1,82,10.1,9.1,9.1,0,0,1-2.6,17.9h0a634.7,634.7,0,0,0-79.2-.8,563.9,563.9,0,0,0-77.9,9.6,480.1,480.1,0,0,0-74.9,20.8,409,409,0,0,0-69.4,33l1.2-.8a58.3,58.3,0,0,0-21.7,30c-4.1,12.3-4.7,26.9-3.2,41.8s5,30.3,9.4,45.6a420.6,420.6,0,0,0,16.2,45.6c12.2,30.3,26.9,60.1,42.1,89.8s31.4,59.2,46,90.2a10,10,0,0,1-17.3,9.8Z" transform="translate(-580.9 -1023.4)"/>
    <path class="j" d="M1731.3,1467.9c-218.5,181.2-320.2-129.1-243.8-137.9C1574.9,1359.3,1653.2,1418.8,1731.3,1467.9Z" transform="translate(-580.9 -1023.4)"/>
    <path class="c" d="M1601.5,1543.8a146.3,146.3,0,0,1-58.8-12.1c-60.2-26-96.8-89.9-100.6-175.3a17.1,17.1,0,0,1,.3-4.5c3.3-17.7,14.3-31.5,30.2-37.9s34.6-4.3,49.8,5.9a2023.2,2023.2,0,0,1,220.3,131.5,20.1,20.1,0,0,1,1.7,31.7C1697.8,1523,1648.1,1543.8,1601.5,1543.8Zm-119.3-186.4c3.7,68.1,31.4,118.2,76.3,137.6,40.8,17.7,90.4,8.1,138.9-25.9A1984.9,1984.9,0,0,0,1503,1354.9a12.8,12.8,0,0,1-2.5-1.5c-4.2-3-9.1-3.9-12.9-2.4A9.1,9.1,0,0,0,1482.2,1357.4Z" transform="translate(-580.9 -1023.4)"/>
    <path class="c" d="M2870.5,2582.6a19.9,19.9,0,0,1-18.7-27.2c6.5-16.7,12.6-32.5,21.3-58.5a20,20,0,1,1,37.9,12.7c-8.3,25-14,40.1-21.8,60.2A20.2,20.2,0,0,1,2870.5,2582.6Z" transform="translate(-580.9 -1023.4)"/>
    <path class="c" d="M1357.9,2481.8c-25.9,0-52.6-10.7-70.2-36a20,20,0,0,1,32.9-22.8c14.3,20.6,41.7,22.5,60.1,13.8,8.3-3.9,26.7-15.7,19.5-41.8a20,20,0,0,1,35.7-16.8c23.2,33.1,61.2,37.2,89,30s59.1-29.4,63.3-69.7a20,20,0,1,1,39.7,4.1c-5.1,50-41.6,90.9-92.9,104.3-35,9.1-70.2,3.6-98.2-13.8-6.8,16.9-20.2,31.1-39.1,39.9A93.5,93.5,0,0,1,1357.9,2481.8Z" transform="translate(-580.9 -1023.4)"/>
    <path class="c" d="M1973.2,2390.7c-38.7,28-80.1,52-122.7,73.5-21.2,10.9-43,20.7-64.7,30.4-11,4.7-22,9.3-33.1,13.7s-22.2,8.8-33.4,13c-44.7,16.5-90.2,31.1-136.5,43.4a1116.1,1116.1,0,0,1-141.1,28.7c-23.9,3.5-48,5.5-72.2,7l-18.3.6c-6.1.2-12.2.3-18.3.1l-18.3-.2-18.4-1c-24.5-1.7-49.1-4.6-73.5-10.4l-9.2-2-9.1-2.6-9-2.7a86,86,0,0,1-9-2.9l-17.9-6.6-17.4-8c-22.9-11.3-44.9-25.7-63.6-44a230,230,0,0,1-45.6-63.2c-11.4-23.2-18.8-47.7-23.6-72.2s-6.8-49.3-7.4-73.7h0l10.9,17.2a445.1,445.1,0,0,1-95.7-65,420.6,420.6,0,0,1-75-88.5A475.9,475.9,0,0,1,802,2070.9a566.7,566.7,0,0,1-15.3-55.3c-1.8-9.4-4.1-18.8-5.5-28.1l-2.2-13.8-1.1-6.9-.5-3.5c-.2-1.8-.4-3.9-.5-5.8a19.9,19.9,0,0,1,39.5-4.4l.4,2.7a3.7,3.7,0,0,1,.1,1.1l.5,3.4,1,6.7,2.2,13.5c1.4,9.1,3.5,17.6,5.2,26.4,3.9,17.4,8.5,34.5,14.1,51.4a442.2,442.2,0,0,0,45,95.6,377.1,377.1,0,0,0,67.8,80.1,401.7,401.7,0,0,0,87.2,59,20.3,20.3,0,0,1,10.9,16.7v.5h0c2.8,45.1,10.6,89.8,30.2,127.7a183.9,183.9,0,0,0,37.7,50c15.1,14.4,33.1,26.1,52.5,35.3s40.4,15.7,61.8,20.7,43.8,7.6,66.2,9.1l16.9.9h17c5.6.1,11.3,0,17-.2l17-.5c22.8-1.4,45.6-3.1,68.4-6.4,45.5-5.8,90.8-15.4,135.7-26.7s89.3-25,133.1-40.6a2419.2,2419.2,0,0,0,257.4-108h0a11.2,11.2,0,0,1,11.5,19.1Z" transform="translate(-580.9 -1023.4)"/>
    <path class="c" d="M2063.6,2523.4c5,22.8,11,45.9,16.3,69.2s10.3,46.6,14.7,70.3,8.2,47.4,10.8,71.5,4.7,48.4,4.7,73-.9,49.5-5.3,74.6-11.6,50.7-26.1,74.5a132.1,132.1,0,0,1-27.6,32.4,116.9,116.9,0,0,1-37.9,21.1c-27.4,9.3-55.4,8.7-81,5l-1.6-.3h-.4a1834.9,1834.9,0,0,1-196.6-60.4c-64.3-24.1-127.2-52.4-187.7-85.8s-118.4-72.1-170.4-118.6-98.5-100.2-132.3-162.2a20,20,0,0,1,34.8-19.7h0c32.9,56.2,76.6,105.9,126.4,148.8s105.2,79.9,163.4,111.8,119.4,59.1,182,82.5a1814.4,1814.4,0,0,0,191.4,60l-2-.4c21.1,3.4,42.2,3.5,60-2.4s32.3-17.7,42.8-34.5,17.1-37.6,21.1-59.2a415,415,0,0,0,6.3-67.4c.7-45.9-3.1-92.6-8.3-139.4-2.6-23.4-5.7-46.8-8.6-70.4s-6.1-47.1-7.7-71.4a9.5,9.5,0,0,1,18.8-2.7Z" transform="translate(-580.9 -1023.4)"/>
    <g class="d">
      <path class="e" d="M3401.2,1849.5c-5.7,124.5-56.4,267.3-109.3,377.6C3529.4,1652.9,3142.5,1120,2681,1103.8a9.5,9.5,0,0,1,.4,1.8c1.9,19.6-34.1,39-80.3,43.5s-85.4-7.7-87.3-27.2v-1.1c-143.1,34.4-287.1,121.6-416.4,275,128.7-259.3,430.6-394.3,702.2-339.7h0C3169.2,1107.6,3431.4,1482,3401.2,1849.5Z" transform="translate(-580.9 -1023.4)"/>
    </g>
    <path class="c" d="M1857.5,2458.9a756.9,756.9,0,0,0-113,272.2,12.1,12.1,0,0,1-23.9-4.1,787.9,787.9,0,0,1,103-289.4h.1a20,20,0,1,1,34.3,20.6A3.5,3.5,0,0,0,1857.5,2458.9Z" transform="translate(-580.9 -1023.4)"/>
    <path class="c" d="M1353.2,2329c-23.7,25.8,35,54.7,53.8,61.9,29.4,9.9,46.2-45.3,54.5-66C1461.1,2284.1,1374.2,2310.1,1353.2,2329Z" transform="translate(-580.9 -1023.4)"/>
    <path class="c" d="M2881.3,2583.8c-193.7.1-410.2-100.4-483-307.1l-4.4-5.1c-39.3-44.9-80-91.4-114.4-143.6-162.9-238.8-235.2-515.5-198.3-758.9a19.9,19.9,0,0,1,3.4-8.4c88.8-127.5,195.3-220.7,316.5-277,125.5-58.3,260.9-74.2,402.5-47.3,176.3,32.8,338.5,136.2,456.6,291s175.9,341.5,161,523.5c-12.5,228.7-212.2,740.8-494.7,731.1C2911.6,2583.2,2896.5,2583.8,2881.3,2583.8ZM2120.1,1379.7c-33.8,232.4,36.2,496.7,192.6,726,33.1,50.2,72.9,95.6,111.3,139.6l7,8a22.6,22.6,0,0,1,3.9,6.7c70.5,206.6,299.5,298.3,489.4,282h10c141.8,0,252.4-159.6,306.3-255.9,76.3-136.5,134.1-316.5,140.7-437.8v-.5c29.1-354.2-238.9-707.8-585.1-772.2C2533.2,1025.7,2293.2,1133.7,2120.1,1379.7Z" transform="translate(-580.9 -1023.4)"/>
    <path class="c" d="M2399.8,2283.6c-11.6-31.2-13.6-65.6-7.8-98.1s19.1-63.2,37.9-89.8a219.8,219.8,0,0,1,32.4-36.4,207.2,207.2,0,0,1,39.7-27.9c28.4-15.4,60.9-23.2,92.2-21.1a8.2,8.2,0,0,1,1.1,16.2h0a194,194,0,0,0-75.7,33.3,214.5,214.5,0,0,0-54.6,59.4,212.5,212.5,0,0,0-28.7,74.2,195.3,195.3,0,0,0,1.8,78.4v.3a20,20,0,0,1-15,24A20.2,20.2,0,0,1,2399.8,2283.6Z" transform="translate(-580.9 -1023.4)"/>
    <path class="c" d="M2705.2,1878c9.5,17.8,20.8,33.3,34.5,46.3a174.2,174.2,0,0,0,46.2,31.7,171.7,171.7,0,0,0,54.1,15.1c18.8,2.2,38.1.8,57.8-3.5h.3a10.8,10.8,0,0,1,8.5,19.5c-19.5,13.3-43.5,20.2-67.6,21.1a158.5,158.5,0,0,1-127.6-58.4c-15.1-18.9-25.5-41.8-28-65.3a11.4,11.4,0,0,1,10.2-12.7,11.3,11.3,0,0,1,11.4,6Z" transform="translate(-580.9 -1023.4)"/>
    <path class="c" d="M2346.5,1854.4h-6.1c-110.1-2.4-221.4-73.8-247.9-159.1a14.6,14.6,0,0,1-.5-2c-23.2-112.5-26.8-221.6-10.8-324.1a21.1,21.1,0,0,1,3.3-8.4c181.7-260.4,443.8-378.7,719.2-324.3a20.4,20.4,0,0,1,8.2,3.7c35.3,26.7,52.5,60.4,48.5,95a19.8,19.8,0,0,1-.8,3.5c-14.1,46.6-43.3,70.3-74.4,95.3-45.2,36.5-96.5,77.8-133.5,207.8l-3.5,12.4c-21,73.6-42.6,149.7-69.2,223.3C2538.2,1790.2,2453.7,1854.4,2346.5,1854.4Zm-215.6-170.2c22.1,68.6,118.1,128.1,210.4,130.2,54,1.2,151.7-16.8,200.1-150.6,26.1-72.2,47.5-147.7,68.3-220.6l3.5-12.4c40.5-142.3,99.5-189.8,146.9-228.1,29-23.3,50-40.3,60.7-73.9,1.9-23.9-16.2-43.2-29.5-54-256-48.7-500.2,62.3-671.3,305C2105.6,1475.9,2109.3,1578.3,2130.9,1684.2Zm709.6-551.4Z" transform="translate(-580.9 -1023.4)"/>
    <path class="c" d="M3234.8,2293.8a55.5,55.5,0,0,1-27.3-7.2c-37.7-20.9-53-82.5-43.6-127a20,20,0,0,1,39.1,8.3c-6.7,31.9,5.1,73.3,23.8,83.7,9.2,5.1,21,.7,35.2-13a20,20,0,1,1,27.8,28.8C3268.8,2287.7,3249.9,2293.8,3234.8,2293.8Z" transform="translate(-580.9 -1023.4)"/>
    <path class="c" d="M3114.6,2506.4a19.8,19.8,0,0,1-10.7-3.1,20,20,0,0,1-6.2-27.6c29.6-46.9,28-74.6,25.7-112.8-2.7-45.7-6-102.6,39.4-207.1a20,20,0,1,1,36.7,15.9c-41.6,95.8-38.7,145.2-36.1,188.8,2.4,40.5,4.6,78.8-31.9,136.5A19.9,19.9,0,0,1,3114.6,2506.4Z" transform="translate(-580.9 -1023.4)"/>
    <path class="c" d="M2881.7,2261.8c41.8,29.7,63.5,55,178,102,100.3,41.2-85.3,217.7-210.9,157.2C2728.1,2464.5,2769.2,2193.1,2881.7,2261.8Z" transform="translate(-580.9 -1023.4)"/>
    <path class="c" d="M2534.5,2208.4c-.5-34.4,53.6-34.4,53.1,0S2534,2242.8,2534.5,2208.4Z" transform="translate(-580.9 -1023.4)"/>
    <path class="c" d="M2616,2269.5c-.5-34.4,53.5-34.4,53.1,0S2615.5,2304,2616,2269.5Z" transform="translate(-580.9 -1023.4)"/>
    <path class="c" d="M2541.6,2315.5c-.3-25.1,39.2-25.1,38.8,0S2541.3,2340.7,2541.6,2315.5Z" transform="translate(-580.9 -1023.4)"/>
    <g class="h">
      <path class="c" d="M1731.3,1467.9c-46.9,35.1-91.3,61.1-148,56.1-35-48.6-44.3-110.8-38.4-169.6A1987.9,1987.9,0,0,1,1731.3,1467.9Z" transform="translate(-580.9 -1023.4)"/>
    </g>
    <g class="h">
      <path class="c" d="M2840.2,1132.8c-30.9,102-143.5,76.8-208.1,303.4-22.3,78.7-44.4,157.4-72.2,234.4-96.8,267.8-405.3,157.8-448.7,18.6-20.1-97.8-25.9-197-13.9-293,5.8,295.1,318.2,359.2,415.4,65.9,114.8-334.1,214.8-189.9,323.7-360A66.2,66.2,0,0,1,2840.2,1132.8Z" transform="translate(-580.9 -1023.4)"/>
    </g>
    <path class="c" d="M1723.8,1979.4c2.6,27.2-3.9,55.4-16.6,80.2a183,183,0,0,1-130.5,95.5c-27.4,4.5-56.2,2.3-81.2-8.2a12.5,12.5,0,0,1-6.7-16.4,12.7,12.7,0,0,1,11.7-7.7h.4c23.3.4,45.3-2.5,66.1-9.3a196.7,196.7,0,0,0,57.6-29.6,199.9,199.9,0,0,0,44.9-46.4c12.4-17.9,21.6-37.9,28.2-60.2v-.4a13.3,13.3,0,0,1,26,2.5Z" transform="translate(-580.9 -1023.4)"/>
    <path class="c" d="M1211.6,2243.8c-4.9,19.8-16.8,38-32.2,52.1a134,134,0,0,1-116.8,31.5c-20.3-4.3-39.7-14-54-28.4a11.1,11.1,0,0,1,.1-15.5,11.3,11.3,0,0,1,11.4-2.5l.4.2c16,5.7,31.6,9,47.2,9.6a148.9,148.9,0,0,0,88-24.6c13-8.5,24.6-19.2,35.4-32.2l.3-.4a11.6,11.6,0,0,1,20.2,10.2Z" transform="translate(-580.9 -1023.4)"/>
  </g>
</svg>
