<svg xmlns="http://www.w3.org/2000/svg" viewBox="0 0 2516.6 2596.5">
  <defs>
    <style>
      .a {
        fill: #fff;
      }

      .b {
        opacity: 0.2;
      }

      .c {
        fill: #593036;
      }

      .d {
        opacity: 0.3;
      }

      .e {
        fill: #f9744b;
      }

      .f {
        opacity: 0.5;
      }

      .g {
        fill: #fa508e;
      }

      .h {
        fill: #f27e80;
      }

      .i {
        fill: #ff0660;
      }

      .j {
        opacity: 0.7;
      }
    </style>
  </defs>
  <g>
    <g>
      <path class="a" d="M2847.4,2533.6c-98.3,248.3-307.6,230.4-428,154.7-38.8-24.3-68.4-54.7-82-84.1l55.3-309.6,24.9-139.8,5.8-32.4s18.6,73.6,56.1,140.8c41.3,73.6,105.5,139.6,193.2,91.9C2672.7,2355.1,2904.5,2389.2,2847.4,2533.6Z" transform="translate(-764.6 -770.5)"/>
      <g class="b">
        <path class="c" d="M2847.4,2533.6c-130,328.4-454.2,191.2-510,70.6l37.9-275.9c113.6,134.8,241,586,462.1,106.3C2856.3,2459.7,2863.8,2492.1,2847.4,2533.6Z" transform="translate(-764.6 -770.5)"/>
      </g>
      <path class="c" d="M2587.3,2755.1c-54.1.1-111-15.2-161.3-43.1s-87-64.1-104-100.7a17,17,0,1,1,30.8-14.3c28.3,61.1,134.5,127.1,241.5,124.1,74.1-2.1,175.4-37.4,237.3-193.7,11.1-28.2,10.5-52.3-2-73.8-18.5-32.1-60.4-52.6-92.2-64.1a400.2,400.2,0,0,0-62-16.7c-37.3,18.7-73.8,20.5-108.6,5.2-107.2-46.9-157.8-243.1-159.9-251.5a17,17,0,0,1,33-8.3h0c.4,1.9,48.5,188.5,140.6,228.7,26.7,11.7,54.2,9.5,84-6.7l5-2.7,5.6.8c5.7.8,139.4,21.3,183.9,98.3,17.8,30.6,19.1,65.4,4.2,103.3-28.7,72.4-68.5,127.7-118.3,164.3-43.8,32.2-94.1,49.3-149.6,50.8Z" transform="translate(-764.6 -770.5)"/>
      <path class="a" d="M2289.8,2652.5s153.9,61,170.2,211.6c22.9,209.8-153.2,328.3-153.2,328.3H1953.4V2636.2" transform="translate(-764.6 -770.5)"/>
      <g class="b">
        <path class="c" d="M2458.1,2952.6c-24.3,154.4-151.3,239.8-151.3,239.8H1953.3v-60h227.6c116.4,0,224.1-65.7,273.3-171.2C2455.6,2958.4,2456.9,2955.5,2458.1,2952.6Z" transform="translate(-764.6 -770.5)"/>
      </g>
      <path class="c" d="M2312,3209.4H1936.4V2636.2a17,17,0,1,1,33.9,0v539.2h331.1c11.5-8.6,45.7-35.9,77.6-79.5,51.5-70.3,73.1-147.7,64.2-230-6.3-57.6-34.7-108.2-84.5-150.4-38-32.1-74.8-47-75.1-47.2a17,17,0,0,1,12.5-31.6c1.7.7,41.5,16.7,83.6,52.1,24.9,20.9,45.5,44.4,61.3,69.7a245.4,245.4,0,0,1,35.9,103.7,348.8,348.8,0,0,1-15,147c-12.3,37.7-31.2,73.9-56.2,107.8-42.4,57.6-87.5,88.2-89.4,89.5Z" transform="translate(-764.6 -770.5)"/>
      <path class="a" d="M2262.5,3178.3c50.4-28.9,132.8-10.8,145.7,22.7,10.3,26.8,6.8,75.3-28.1,97.4-28,17.6-68.6,17.6-169.2,17.3H1712.5V2922.8Z" transform="translate(-764.6 -770.5)"/>
      <g class="d">
        <path class="c" d="M2380.1,3298.3c-28,17.7-68.6,17.7-169.2,17.4H1712.5V2922.8l6,2.7v329.8h498.4c100.6.3,141.2.3,169.2-17.3a67.7,67.7,0,0,0,24.7-28.3C2417.5,3237.3,2411.5,3278.5,2380.1,3298.3Z" transform="translate(-764.6 -770.5)"/>
      </g>
      <path class="c" d="M2261.1,3175.8a96.1,96.1,0,0,1,27.1-14.7,135.5,135.5,0,0,1,30.4-6.9c5.2-.5,10.4-.9,15.7-.9s10.5.2,15.8.7,10.5,1.4,15.8,2.5a126.5,126.5,0,0,1,15.7,4.4,108.1,108.1,0,0,1,15.6,7,71.5,71.5,0,0,1,14.9,11,52.1,52.1,0,0,1,6.6,7.9l1.5,2.3,1.4,2.4,1.2,2.6a13.3,13.3,0,0,1,.6,1.2l.4,1.1a93.9,93.9,0,0,1,4.7,17.2,110.3,110.3,0,0,1,.6,34.4,101.5,101.5,0,0,1-10.4,33.6,82.8,82.8,0,0,1-31.3,33.4,88.3,88.3,0,0,1-8,4.3,109.7,109.7,0,0,1-16.4,6.2,166.3,166.3,0,0,1-16.3,3.8c-5.3.9-10.5,1.7-15.7,2.2-10.4,1.1-20.5,1.7-30.6,2-40,1.2-78.9.2-118.1-.1l-58.7-.5c-19.6-.2-39.2-.2-58.7-.2h-58.8l-58.7.4c-78.3.6-156.6,1.7-234.9,1l-18.7-.2.2-18.3.4-49.1.6-49.2c.4-32.7,1-65.4,2-98.2s2.5-65.4,4.5-98.2c1-16.4,2.2-32.7,3.5-49.1s2.8-32.7,4.7-49.1a2.7,2.7,0,0,1,3.1-2.5,2.7,2.7,0,0,1,2.5,2.5c1.9,16.4,3.4,32.7,4.7,49.1s2.5,32.7,3.4,49.1q3,49.2,4.5,98.2c1.1,32.8,1.6,65.5,2.1,98.2l.6,49.2.4,49.1-18.5-18.5c78.3-.8,156.6.3,234.9.9l58.8.4,58.7.2,58.7-.3,58.8-.5,29.3-.3,29.4-.2c19.5,0,38.9-.3,58-.9,9.6-.3,19-.8,28.1-1.7a151.1,151.1,0,0,0,25.7-4.4,68.9,68.9,0,0,0,11.1-3.9,50,50,0,0,0,9.6-5.5,47.9,47.9,0,0,0,14.1-16.1,66.7,66.7,0,0,0,7.6-22,81.2,81.2,0,0,0,.6-24.1,75,75,0,0,0-2.5-11.3l-.4-1-.2-.8-.4-.8-.4-.9a29.8,29.8,0,0,0-2.5-3.6,47.7,47.7,0,0,0-8-7.2,78,78,0,0,0-10.6-6.3,116.8,116.8,0,0,0-12-5.1q-6.3-2.2-12.9-3.9c-4.3-1.1-8.8-2-13.3-2.7a124.9,124.9,0,0,0-13.7-1.6c-18.3-1.4-37.2.4-55.1,7.1h-.1a2.8,2.8,0,0,1-3.7-1.6A3,3,0,0,1,2261.1,3175.8Z" transform="translate(-764.6 -770.5)"/>
      <path class="a" d="M2777.8,2279.5c0-17.4,16.5-91.5,65.4-74.9,63.8,21.5-5.5,137.6-9,167.8" transform="translate(-764.6 -770.5)"/>
      <path class="c" d="M2834.2,2389.4h-2a17.1,17.1,0,0,1-14.9-18.9c1.1-9.7,6.4-23.3,13-40.4,12-30.8,30-77.4,19.9-99-2.3-5-6.2-8.2-12.5-10.3s-13.2-1.9-18.6,2c-15.8,11.3-24.3,45.4-24.3,56.8a17,17,0,0,1-34,0c0-15.2,9.1-63.4,38.5-84.4,14.4-10.4,31.5-12.7,49.3-6.6,14.9,5,26.1,14.7,32.4,28.1,16.3,34.8-4.1,87.3-19,125.7-5.1,13.1-10.3,26.6-11,32.1A17,17,0,0,1,2834.2,2389.4Z" transform="translate(-764.6 -770.5)"/>
      <path class="a" d="M816.1,2764.1a729.4,729.4,0,0,0,25.5,71.8c189.2,456.3,750.6,446,750.6,446l17.1-128.6c-17.5-3-35.1-6.2-52.8-9.9-214.7-43.9-438.8-136.7-531.4-309.3-42.1-78.4-57.1-170-50.7-251.8,9.4-121.7,66.2-221.6,151.6-222.8,54.1-.7,61,62,61.8,78.2,4.3,94.5,42.5,148.3,128.2,139.5,26.8-2.8,57.6-26.1,77.4-64.5,25.1-48.4,32.8-120.6-6.2-205.8C1238.4,1981.8,631.7,2143.9,816.1,2764.1Z" transform="translate(-764.6 -770.5)"/>
      <path class="e" d="M895,2241.3c-16.8,62.6-35.8,198.9,109.6,215.8,26.5-58.2,68.5-96.8,121.4-97.6s61,62,61.8,78.2c4.3,94.5,42.5,148.3,128.2,139.5,26.8-2.8,57.6-26.1,77.4-64.5,25.1-48.4,32.8-120.6-6.2-205.8C1298,2112,1044.2,2092.2,895,2241.3Z" transform="translate(-764.6 -770.5)"/>
      <g class="f">
        <path class="a" d="M1387.2,2346.9c14.6,32,22.7,62.2,25.7,89.9,4.5-40-1.7-87.5-25.7-139.9-131.9-288.2-623.7-193.5-605.1,264C799.9,2146.9,1260.2,2069.5,1387.2,2346.9Z" transform="translate(-764.6 -770.5)"/>
      </g>
      <g class="b">
        <path class="c" d="M974.4,2582.3c9.4-121.7,66.2-221.6,151.6-222.8,54.1-.7,61,62,61.8,78.2,4.3,94.5,42.5,148.3,128.2,139.5,26.8-2.8,57.6-26.1,77.4-64.5-25,13.1-54.2,16.8-83,14.4-66.1-5.3-79.4-86.2-88.8-171-10.8-98.9-172.4-105.5-218.8,25.3C977,2454.2,972.4,2527.4,974.4,2582.3Z" transform="translate(-764.6 -770.5)"/>
      </g>
      <g class="b">
        <path class="c" d="M841.6,2835.9c189.2,456.3,750.6,446,750.6,446l17.1-128.6c-17.5-3-35.1-6.2-52.8-9.9-82.5,19.2-255.6,36-474.9-72.9C984.1,3022.2,904.6,2933.5,841.6,2835.9Z" transform="translate(-764.6 -770.5)"/>
      </g>
      <path class="c" d="M1588.9,3298.9c-11.1,0-46.7-.5-97.8-6.6-56.1-6.7-142.1-21.6-233.7-54.9-103.4-37.5-192.6-90.2-265.1-156.6-90.9-83.2-155.7-188.2-192.5-311.8-24.3-82.1-36.2-160.1-35.1-232,.9-66.4,12.8-127.7,35.3-182.1,40.5-98,114.6-171.5,208.7-206.8,74.1-27.8,154-29.3,225-4.3a290.7,290.7,0,0,1,97.7,57.9c29.8,26.9,53.8,59.9,71.2,98.1,20.1,43.7,29.7,87.1,28.6,128.7-.9,36-10,70.2-26.4,98.8-21.6,37.9-55,63.5-87,66.7-40.6,4.2-73.6-4.4-98.1-25.5-29.7-25.6-46.1-69.3-48.9-130-.2-5.2-1.6-23.3-9.2-38.8s-19-23.4-35.4-23.2c-46.7.7-77.3,36.1-94.7,65.6-50.1,85.1-64.1,248.5,8.5,383.9,109.5,204.2,405.5,282.2,572.2,310.6a17,17,0,1,1-5.7,33.5c-130.5-22.2-249.9-58.8-345.4-105.7-118.8-58.5-203.3-133.3-251-222.3-34.7-64.6-53.9-143.5-54.1-222.1-.3-74.8,16.2-144.1,46.2-195.1,14.8-25.1,32.4-44.9,52.4-58.9,21.7-15.2,45.7-23.1,71.2-23.5h1.2c54.2,0,75.8,50.7,77.7,94.4,2.4,51,14.9,86.6,37.2,105.9,17.4,14.9,41.1,20.7,72.4,17.4,21-2.1,44.9-21.7,61-49.8,14.4-25.2,43-94.9-3.6-196.5-68.1-148.9-228.2-180.1-351-134-149.6,56.2-288.7,241.6-188.3,579.4,63.5,213.6,210.1,363.7,435.6,445.8,169.5,61.8,322.4,59.9,323.9,59.8a17,17,0,1,1,.6,34Z" transform="translate(-764.6 -770.5)"/>
      <path class="a" d="M2453.3,2443.5a1493.4,1493.4,0,0,1-33.9,244.8c-35.1,158.2-87.5,279.9-117.1,345.6-77.7,173.1-117,209.1-184.5,251.4-72.5,45.4-283.1,60.2-283.1,60.2H1673.1c-65,0-177.1-18.6-199-37.7s-29.6-49.9-49.3-71.7c-168.2-186.9-73.7-386,34.5-598.6,65.6-129,126-267.1,171-376,48.8-117.9,79.6-201.4,79.6-201.4s642.5-80.8,676.4,0c9.7,23.3,18.3,46.3,25.8,69.2l5.5,25.5,26.5,122.1,5.3,24.6A862,862,0,0,1,2453.3,2443.5Z" transform="translate(-764.6 -770.5)"/>
      <g class="b">
        <path class="c" d="M2375.3,2848.3c-26.7,80.8-54.4,144.2-73,185.6-77.7,173.1-117,209.1-184.5,251.4-72.5,45.4-283.1,60.2-283.1,60.2H1699.1l47.8-261h87.8s203.6-421.1,213.2-336.2C2087.9,3098.2,2291.1,2978.2,2375.3,2848.3Z" transform="translate(-764.6 -770.5)"/>
      </g>
      <path class="c" d="M2409.6,2130.1q-9.4-21.9-19.4-43.3c-3.4-7.1-6.8-14.3-10.3-21.3l-.6-1.3-.6-1.2-1-1.4a14.8,14.8,0,0,0-2.8-2.8,44.6,44.6,0,0,0-8.1-4.9,105.6,105.6,0,0,0-20.6-6.4c-7.3-1.6-14.8-2.8-22.4-3.7-15.2-1.9-30.7-2.8-46.2-3.4s-31.2-.8-46.8-.8-31.4.3-47.1.7c-31.4.8-62.8,2.2-94.3,3.8s-62.9,3.8-94.4,6.2-62.9,5.2-94.4,8.2-62.9,6.1-94.3,9.5l-47.1,5.3-46.9,5.6,15.4-12.2c-6.3,17.1-12.8,33.9-19.3,50.8s-13,33.7-19.7,50.5q-20,50.4-40.7,100.5c-27.8,66.7-56.5,133-86.6,198.8-15.1,32.8-30.5,65.6-46.3,98.1-7.9,16.3-15.8,32.6-23.9,48.7s-16.4,32.4-24.6,48.4c-16.3,32-32.4,64-47.3,96.4s-28.6,65.1-40.1,98.5-20.5,67.2-25.3,101.5-5.2,68.9.5,102.5c1.4,8.4,3.1,16.8,5.3,25l.8,3.1.9,3c.6,2.1,1.1,4.1,1.8,6.2,1.3,4,2.6,8.1,4,12.1s3,7.9,4.6,11.9c.8,2,1.6,3.9,2.5,5.9l1.2,2.9,1.4,2.9,2.7,5.8,2.9,5.8,1.4,2.8,1.5,2.8,3.1,5.7a366.9,366.9,0,0,0,28.5,42.9c5.3,6.8,10.8,13.5,16.5,20l4.4,5c1.8,2,3.5,4.1,5.1,6.1,3.2,4.2,6,8.4,8.6,12.6,5.2,8.4,9.5,16.6,13.7,24.1s8.5,14.4,13.2,20c1.1,1.4,2.4,2.7,3.6,4l1.8,1.8,1,.9.2.2.2.2h.2a18.3,18.3,0,0,0,3.2,2,41.2,41.2,0,0,0,4.7,2.3c3.5,1.5,7.3,2.9,11.2,4.2s8,2.5,12.1,3.7c16.5,4.5,33.8,8,51.2,11s34.9,5.3,52.4,7.1,35.1,3,52.2,3h161l9.3-.8,9.4-.8,18.8-1.8c12.5-1.3,25-2.8,37.5-4.3,25-3.2,49.9-6.9,74.6-11.4s49-9.9,72.5-16.9a289.8,289.8,0,0,0,34-12.1,157.9,157.9,0,0,0,15.4-7.7l3.5-2.1,3.9-2.5,7.9-5c5.1-3.5,10.2-6.9,15.1-10.5,2.5-1.7,4.8-3.5,7.3-5.3l7-5.6c4.7-3.8,9.1-7.8,13.4-11.8,2.2-2.1,4.4-4.1,6.4-6.3l3.1-3.1,3.1-3.3a295,295,0,0,0,22.7-28c7.1-9.8,13.8-20.1,20.3-30.6s12.4-21.4,18.4-32.4c3-5.4,5.8-11,8.7-16.5s5.7-11.2,8.5-16.8l4.2-8.5,4.1-8.5,8.1-17,7.9-17.2,7.9-17.3c20.8-46.1,40.3-92.5,57.8-139.8,4.3-11.8,8.6-23.7,12.7-35.6,2.1-5.9,4.2-11.9,6.2-17.9s4-11.9,5.9-17.9q11.7-36,21.8-72.4t18.6-73.4c5.7-24.5,10.9-49.3,15.4-74.1s8.5-49.8,11.9-74.9c1.6-12.5,3.3-25,4.6-37.6s2.5-25.2,3.8-37.8v-.2a8.2,8.2,0,0,1,8.9-7.4,8.3,8.3,0,0,1,7.5,8.5c-.5,12.8-.7,25.6-1.5,38.4s-1.6,25.6-2.4,38.4c-2.2,25.5-4.9,51-8.3,76.5a1471.8,1471.8,0,0,1-28.7,151.3c-6.1,25-12.7,49.8-20,74.5-1.8,6.1-3.7,12.3-5.6,18.4s-3.8,12.3-5.8,18.4c-3.9,12.3-8,24.4-12.2,36.6-16.9,48.5-36.3,96.3-57.2,143l-7.9,17.6-8.1,17.5c-5.5,11.6-11,23.2-16.9,34.7-2.8,5.8-5.8,11.5-8.8,17.3s-6,11.4-9.2,17.1c-6.2,11.4-12.7,22.7-19.6,33.8s-14.3,22.2-22.2,32.9a340.6,340.6,0,0,1-25.7,31l-3.5,3.7-3.6,3.6c-2.3,2.4-4.9,4.7-7.3,7-5,4.6-10.1,9-15.4,13.2a395.7,395.7,0,0,1-32.5,23.3l-8.2,5.2-4.2,2.6-4.7,2.8a191.6,191.6,0,0,1-18.8,9.2,382.8,382.8,0,0,1-38,13.4c-25.3,7.4-50.7,12.8-76.1,17.5s-50.9,8.5-76.4,11.7c-12.8,1.6-25.6,3.1-38.3,4.4l-19.2,1.8-9.7.9-9.7.8H1672.5c-18.9-.1-37.3-1.4-55.6-3.2s-36.6-4.3-54.7-7.4-36.3-6.8-54.5-11.8c-4.6-1.2-9.2-2.6-13.8-4.1s-9.3-3.3-14.1-5.4c-2.4-1-4.8-2.2-7.4-3.5a51.6,51.6,0,0,1-8.1-5.4l-1.2-.9-.4-.4-.4-.3-1.5-1.4-3-2.9c-1.9-2-3.8-4-5.5-6.1-6.8-8.2-12-16.9-16.6-25s-8.7-15.9-13-22.9a102.8,102.8,0,0,0-6.6-9.7l-3.6-4.3-4.5-5.2c-6.2-7-12.1-14.3-17.9-21.6a405.1,405.1,0,0,1-31.3-47.1l-3.3-6.2-1.7-3.1-1.6-3.2-3.2-6.4-3-6.4-1.5-3.2-1.4-3.3-2.8-6.6c-1.7-4.4-3.5-8.8-5.1-13.3-3.2-8.9-6-18-8.4-27.2s-4.4-18.6-6-27.9l-1.1-7-1-7.1c-.3-2.4-.5-4.7-.8-7.1s-.5-4.7-.6-7.1c-.9-9.4-1.2-18.9-1.3-28.3s.4-18.9,1-28.3,1.7-18.7,2.9-28c5.2-37.1,14.8-73.1,26.5-108s26-68.7,41-101.9,31.2-65.6,47.4-97.9c8.1-16.2,16.2-32.2,24.1-48.3s15.7-32.2,23.5-48.4q23.1-48.6,45.2-97.7,44.3-98.4,85.3-198.1c13.6-33.2,27.2-66.5,40.4-99.9q9.9-25,19.7-50.2c6.5-16.7,12.9-33.6,19.2-50.2l4-10.9,11.4-1.4c15.9-1.9,31.6-3.7,47.4-5.4s31.6-3.4,47.4-5c31.6-3.2,63.3-6.2,94.9-8.9s63.4-5.1,95.2-7.2,63.5-3.7,95.3-5,63.7-1.9,95.7-1.6,64,1.7,96.1,5.2a476.3,476.3,0,0,1,48.2,7.4c8,1.8,16,3.8,24,6.4a117.4,117.4,0,0,1,23.8,10.3,56.7,56.7,0,0,1,11.3,8.8,33.3,33.3,0,0,1,4.7,6.3,22.5,22.5,0,0,1,1.9,3.8c.3.7.4,1.1.6,1.6l.5,1.4c2.6,7.6,5.1,15.1,7.5,22.8,4.7,15.3,8.9,30.7,12.4,46.2a2.6,2.6,0,0,1-1.9,3.2A2.7,2.7,0,0,1,2409.6,2130.1Z" transform="translate(-764.6 -770.5)"/>
      <path class="c" d="M2753.3,2011.2l-.5,1,.7-1.2Z" transform="translate(-764.6 -770.5)"/>
      <path class="c" d="M2752.8,2012.2l-20.3,32.6C2739.5,2034.2,2746.3,2023.4,2752.8,2012.2Z" transform="translate(-764.6 -770.5)"/>
      <path class="c" d="M2753.4,2000.7l-.4.4-.4.6Z" transform="translate(-764.6 -770.5)"/>
      <path class="c" d="M2732.8,2025.9c6.8-7.8,13.4-15.8,19.8-24.2Z" transform="translate(-764.6 -770.5)"/>
      <path class="c" d="M1380.1,2025.9l-19.7-24C1366.7,2010.2,1373.2,2018.2,1380.1,2025.9Z" transform="translate(-764.6 -770.5)"/>
      <path class="c" d="M2768,1991.6l-.8,1,1-1.2Z" transform="translate(-764.6 -770.5)"/>
      <path class="c" d="M2767.2,1992.6l-20.2,22.6a.2.2,0,0,1,.2-.2C2754.1,2007.8,2760.8,2000.3,2767.2,1992.6Z" transform="translate(-764.6 -770.5)"/>
      <path class="a" d="M2098.5,2704.1c-45.9,231.8-44.4,531.3-42.6,536.2.6,1.7,74.6,31,34.3,72.9-56.2,58.4-238,36.1-256,9.6-26.3-38.8-100.3-493.8-77.1-704.5" transform="translate(-764.6 -770.5)"/>
      <path class="c" d="M2104,2705.2a75.8,75.8,0,0,1,2.9,13.3c.6,4.4.9,8.7,1.1,13s.1,8.5-.1,12.7-.7,8.4-1.1,12.5c-.8,8.3-1.8,16.6-3.1,24.9s-2.9,16.4-4.3,24.7l-1.1,6.2-.9,6.2c-.7,4.1-1.3,8.2-1.9,12.4-1.1,8.3-2,16.6-3,24.9-1.9,16.6-3.7,33.3-5.3,50-6.4,66.7-10.6,133.7-13,200.8-1.1,33.6-1.9,67.1-2,100.6,0,8.3.1,16.7.3,24.8v3a18.5,18.5,0,0,0,.1,2.5h0a2.4,2.4,0,0,1-.1-.7c2.2,1.5-5.8-11.6-6.2-10.1l-1.1-.8h-.2l.4.2,2.6,1.4c3.9,2,8,4.3,12,6.7a114.6,114.6,0,0,1,23.4,18.3,62.2,62.2,0,0,1,10.1,13.9,46.3,46.3,0,0,1,5.5,18.9,45.1,45.1,0,0,1-.6,10.4,45.7,45.7,0,0,1-2.8,9.5,59.1,59.1,0,0,1-9.2,15.1,95.4,95.4,0,0,1-23.5,19.9,141.4,141.4,0,0,1-25.9,12.2,202.3,202.3,0,0,1-26.5,7.5,321,321,0,0,1-53,6.5,420.7,420.7,0,0,1-52.7-1,378.8,378.8,0,0,1-52.4-7.8,189.9,189.9,0,0,1-26.6-7.9l-6.9-3a76.3,76.3,0,0,1-7.3-4l-3.9-2.7a27.9,27.9,0,0,1-4.2-3.7l-1.1-1.2-1.2-1.3-1.1-1.6-.8-1.2-.4-.6-.3-.6-.6-1.1-1.1-2c-1.2-2.6-2.2-4.9-3.1-7.2l-2.4-6.6q-2.1-6.6-3.9-12.9-3.6-12.6-6.6-25.2c-3.9-16.7-7.4-33.4-10.8-50.1-6.5-33.4-12.2-66.8-17.5-100.3s-9.9-67-14.2-100.7-8-67.2-11.3-101l-2.6-25.3-2.4-25.3c-1.6-16.9-3.1-33.8-4.2-50.8a939.4,939.4,0,0,1-1.6-102.1c.7-17,2.2-34.1,4.5-51.1,1.2-8.5,2.6-17,4.3-25.4a244.2,244.2,0,0,1,6.3-25.2,5.8,5.8,0,0,1,7.2-3.8,5.9,5.9,0,0,1,4.1,5h0c.7,8.4,1.2,16.8,1.8,25.2l1.5,25.1c1,16.7,2,33.3,2.9,50l5.4,100.1c1.7,33.4,3.7,66.8,6.7,100.2s7,66.8,11.1,100.1,8.9,66.5,14.1,99.7,10.8,66.1,17.3,98.9c3.2,16.4,6.7,32.7,10.5,48.8,1.9,8,3.9,16,6.1,23.8,1.2,3.8,2.3,7.7,3.5,11.3.6,1.8,1.3,3.6,1.9,5.2s1.3,3.3,1.9,4.5l.4.7.2.3v.2h.1l-.2-.3h-.1a21.8,21.8,0,0,0,1.9,1.3,25.9,25.9,0,0,0,3.8,2.1,41.5,41.5,0,0,0,4.7,2,159.7,159.7,0,0,0,21.8,6.5,339.1,339.1,0,0,0,47.6,7,391.1,391.1,0,0,0,48.4,1,284.4,284.4,0,0,0,47.3-5.8,170.9,170.9,0,0,0,22.1-6.2,109.2,109.2,0,0,0,19.8-9.3,60.4,60.4,0,0,0,15-12.6,29.4,29.4,0,0,0,4-6.3,10.5,10.5,0,0,0,.9-4.9,12.3,12.3,0,0,0-1.6-5.1,28,28,0,0,0-4.8-6.4c-4.2-4.5-10.1-8.8-16.4-12.7-3.2-1.9-6.5-3.7-10.1-5.6l-2.9-1.6-1.1-.5-.8-.5-1.8-1.3c-.6,1.4-8.8-12-6.6-10.7-.1-.5-.2-1.4-.2-1.5a9.2,9.2,0,0,1-.1-1.5c-.1-1.5-.2-2.6-.2-3.8v-3.3c-.2-8.8-.2-17.2-.2-25.8,0-34,.8-67.8,2-101.7,2.4-67.7,6.6-135.3,13.1-202.9,1.6-16.9,3.4-33.7,5.3-50.6l3.1-25.3c.5-4.2.9-8.4,1.3-12.7s.9-8.4,1.4-12.6c.8-8.5,1.7-17,2.9-25.4s2.8-16.8,4.7-25.1c1-4.2,2-8.3,3.2-12.4s2.6-8.2,4.2-12.2a129.9,129.9,0,0,1,5.7-11.9,70,70,0,0,1,7.7-11.5,6.5,6.5,0,0,1,9.1-.8,6.3,6.3,0,0,1,2,2.9Z" transform="translate(-764.6 -770.5)"/>
      <path class="c" d="M1957.1,3246a190.4,190.4,0,0,1,23.8-9.5,226.2,226.2,0,0,1,25.1-7l6.5-1.3,6.6-1c2.2-.4,4.4-.6,6.6-.8s4.5-.5,6.8-.6l6.8-.3h10.4c1.2,0,2.4.2,3.5.3l7.1.6a15.2,15.2,0,0,1-2.7,30.3,15,15,0,0,1-4.3-1l-.6-.3-5.2-2.1-2.7-1.1-2.7-.9-5.5-1.7-5.8-1.5a164.2,164.2,0,0,0-23.8-3.7,226.1,226.1,0,0,0-24.8-.7A212.6,212.6,0,0,0,1957.1,3246Z" transform="translate(-764.6 -770.5)"/>
      <path class="a" d="M2732.5,2034.3c6.8-7.9,13.5-16,19.9-24.3Z" transform="translate(-764.6 -770.5)"/>
      <path class="a" d="M1381.4,2034.3l-19.8-24.3C1367.9,2018.4,1374.6,2026.4,1381.4,2034.3Z" transform="translate(-764.6 -770.5)"/>
      <g class="b">
        <path class="c" d="M2479.5,2263.2c-11.8,4.8-23.6,9.4-35.4,13.7-17.1,6.3-34.3,12.2-51.4,17.7-251.3,79.8-513.5,69-762.4-33.1,48.8-117.9,79.6-201.4,79.6-201.4s642.5-80.8,676.4,0c9.7,23.3,18.3,46.3,25.8,69.2l5.5,25.5,5.8-32.4S2442,2196,2479.5,2263.2Z" transform="translate(-764.6 -770.5)"/>
      </g>
      <path class="a" d="M1195.6,1868.4c3.8,33.2,71.7,1.7,86.4-5.5a1.6,1.6,0,0,1,2.2,2c-1.4,5.8-5,18.7-14.3,39.3-11.5,25.5-20.8,45.3-15.6,58.6s28.6,19.7,57.4,16.5c16.1-1.8,33.3,12.2,48.7,29.2h.1l1.1,1.3a7.6,7.6,0,0,1-.8-1.1c7.5,8.3,14.5,17.4,20.8,25.6a523.3,523.3,0,0,0,86.7,78.8c41,28.8,86.2,51.5,133.9,69.3v-.4s65.3,24.2,162,46.3c0,0,86.4,18.5,165.4,28.7a1211.1,1211.1,0,0,0,126.9,7.2,1242.6,1242.6,0,0,0,127.8-7.2c78.9-10.2,165.4-28.7,165.4-28.7,96.6-22.1,162-46.3,162-46.3v.4c47.7-17.8,92.9-40.5,133.9-69.3a527.3,527.3,0,0,0,86.7-78.8c6.3-8.3,13.4-17.4,21-25.8l-.9,1.3,1.1-1.5h-.1c15.4-17,32.7-31.1,48.8-29.3,28.8,3.2,51.8-2.3,57.4-16.5s-4.2-33.1-15.6-58.6c-9.3-20.6-13-33.5-14.3-39.3-.3-1.4.9-2.6,2.1-2,14.8,7.2,82.7,38.7,86.5,5.5,2.2-18.5-27.7-74.2-38.1-131.3-30.2-165.4-39-198.1-39-198.1s-29.5-119.7-73.2-207c43.7-116.5,72.3-456.2-.8-527.1-58.7-57-279.5,62.5-362.3,146.2-125.3-52.4-319.6-60.2-348-60.2-9.7,0-39.1.9-78.6,4.3-75.3,6.3-187.2,21.5-269.3,55.9-82.8-83.7-303.6-203.2-362.3-146.2-73.2,70.9-44.5,410.6-.8,527.1-27.7,55.1-49.5,122.8-61.9,165.4-7.2,24.9-11.3,41.2-11.3,41.6s-8.8,32.7-39,198.1C1223.3,1794.2,1193.4,1849.9,1195.6,1868.4Z" transform="translate(-764.6 -770.5)"/>
      <path class="a" d="M1329.9,1276.6c-19.1-82.5-31.7-204.5-27.1-305.6,4.2,105.4,21.9,214.5,43.1,271C1340.3,1253.1,1335,1264.8,1329.9,1276.6Z" transform="translate(-764.6 -770.5)"/>
      <g class="b">
        <path class="c" d="M2844,1904.2c11.4,25.5,20.8,45.3,15.6,58.7s-28.6,19.6-57.4,16.4c-16.1-1.8-33.4,12.3-48.8,29.4,0-.1.1-.1.1-.2l-1.1,1.5.9-1.3c-7.6,8.4-14.7,17.5-21,25.8a527.3,527.3,0,0,1-86.7,78.8c-41,28.8-86.2,51.5-133.8,69.3v-.3s-65.5,24.1-162.1,46.2c0,0-86.4,18.5-165.4,28.7a1242.6,1242.6,0,0,1-127.8,7.2,1211.1,1211.1,0,0,1-126.9-7.2c-79-10.2-165.4-28.7-165.4-28.7-96.7-22.1-162-46.2-162-46.2v.3c-47.7-17.8-92.9-40.5-133.9-69.3a527.3,527.3,0,0,1-86.7-78.8c-6.3-8.2-13.3-17.3-20.8-25.6a7.6,7.6,0,0,0,.8,1.1l-1-1.3h-.2c-15.4-17-32.6-31-48.7-29.2-28.8,3.2-51.9-2.2-57.4-16.4s4.1-33.2,15.6-58.7c2.7-5.9,4.9-11.3,6.7-16,9.7,2.2,21.8,2.6,35.1,1.1,16.1-1.8,33.3,12.3,48.7,29.3h.2l1,1.3a4.4,4.4,0,0,1-.8-1.1c7.5,8.4,14.5,17.4,20.8,25.6a527.3,527.3,0,0,0,86.7,78.8c41,28.8,86.2,51.5,133.9,69.3v-.3s65.3,24.1,162,46.3c0,0,86.4,18.4,165.4,28.6a1211.1,1211.1,0,0,0,126.9,7.2,1242.6,1242.6,0,0,0,127.8-7.2c79-10.2,165.4-28.6,165.4-28.6,96.6-22.2,162.1-46.3,162.1-46.3v.3c47.6-17.8,92.8-40.5,133.8-69.3a527.3,527.3,0,0,0,86.7-78.8c6.3-8.3,13.4-17.4,21-25.8l-.9,1.3,1.1-1.4a.1.1,0,0,0-.1.1c15.4-17,32.7-31.2,48.8-29.4,13.3,1.5,25.4,1.1,35.1-1.1C2839.1,1892.9,2841.3,1898.3,2844,1904.2Z" transform="translate(-764.6 -770.5)"/>
      </g>
      <path class="e" d="M1284,1497.4a620.3,620.3,0,0,0,76.3,4.7c337.6,0,612.1-270.7,618-606.9-75.3,6.3-187.2,21.5-269.3,55.9-82.8-83.7-303.6-203.2-362.3-146.2-73.2,70.9-44.5,410.6-.8,527.1C1318.2,1387.1,1296.4,1454.8,1284,1497.4Z" transform="translate(-764.6 -770.5)"/>
      <path class="c" d="M2752.2,2010.1l-19.7,24.2C2739.3,2026.5,2745.9,2018.4,2752.2,2010.1Z" transform="translate(-764.6 -770.5)"/>
      <path class="c" d="M1381.4,2034.3l-19.8-24.2C1368,2018.4,1374.6,2026.5,1381.4,2034.3Z" transform="translate(-764.6 -770.5)"/>
      <path class="g" d="M2603.8,1101c57.9,58.8,94.4,141,99.5,131.4a25.6,25.6,0,0,0,1.6-3.3c11-26.9,29.4-133.5,29.4-228.5-.1-15.3-.5-28.8-1.3-40.8-2.2-32.2-7-52.8-13-66-7.3-16.2-23.8-21.1-38.4-15.7-38.9,14.4-149.4,83.2-185.4,127.4C2489.7,1013.3,2545.8,1042.2,2603.8,1101Z" transform="translate(-764.6 -770.5)"/>
      <g class="b">
        <path class="c" d="M2603.8,1101c57.9,58.8,94.4,141,99.5,131.4a25.6,25.6,0,0,0,1.6-3.3c-12.9-49.9-48.5-118.8-75.7-168.6-37.3-68,14.1-122,58.6-138.2,15.3-5.5,33.4,18.3,45.2,37.5-2.2-32.2-7-52.8-13-66-7.3-16.2-23.8-21.1-38.4-15.7-38.9,14.4-149.4,83.2-185.4,127.4C2489.7,1013.3,2545.8,1042.2,2603.8,1101Z" transform="translate(-764.6 -770.5)"/>
      </g>
      <path class="c" d="M2702.2,1248.1c-9.9,0-15.9-8.5-20-14.2s-8.6-13.1-14.2-21.9c-16.9-27-42.6-67.7-74.9-100.5-29.3-29.8-57.8-51.4-78.7-67.2-22.9-17.4-32.4-24.6-33.6-35.3a16.9,16.9,0,0,1,3.7-13c38.3-46.9,152.1-117.2,191.9-131.9,23.1-8.6,47.2,1.3,57.3,23.5s15.5,60.1,15.5,113c.1,98.4-19.7,214.9-32.7,238.9a16.1,16.1,0,0,1-13.7,8.6ZM2515,1006.8c4.7,3.9,11.4,8.9,17.6,13.6,20.3,15.4,51,38.7,81.9,70,34.6,35.1,61.3,77.6,78.9,105.6l3.9,6.1c9.5-39.9,22-121.9,21.9-201.5h0c0-47.8-4.3-81.7-12.9-100.6-4.3-9.5-13.2-10.2-19.5-7.8C2652.8,904.8,2555.7,964.3,2515,1006.8Z" transform="translate(-764.6 -770.5)"/>
      <path class="g" d="M1514.6,1101c-57.9,58.8-94.3,141-99.5,131.4a26.3,26.3,0,0,1-1.5-3.3c-11.1-26.9-29.5-133.5-29.4-228.5,0-15.3.4-28.8,1.2-40.8,2.2-32.2,7.1-52.8,13-66,7.3-16.2,23.8-21.1,38.5-15.7,38.9,14.4,149.4,83.2,185.4,127.4C1628.7,1013.3,1572.6,1042.2,1514.6,1101Z" transform="translate(-764.6 -770.5)"/>
      <g class="b">
        <path class="c" d="M1514.6,1101c-57.9,58.8-94.3,141-99.5,131.4a26.3,26.3,0,0,1-1.5-3.3c12.9-49.9,48.4-118.8,75.6-168.6,37.3-68-14.1-122-58.6-138.2-15.3-5.5-33.4,18.3-45.2,37.5,2.2-32.2,7.1-52.8,13-66,7.3-16.2,23.8-21.1,38.5-15.7,38.9,14.4,149.4,83.2,185.4,127.4C1628.7,1013.3,1572.6,1042.2,1514.6,1101Z" transform="translate(-764.6 -770.5)"/>
      </g>
      <path class="c" d="M1416.2,1248.1h-.6a16.1,16.1,0,0,1-13.7-8.6c-13-24-32.8-140.5-32.7-238.9h0c0-52.9,5.1-89.8,15.5-113s34.2-32.1,57.4-23.5c39.7,14.7,153.6,85,191.8,131.9a17.4,17.4,0,0,1,3.8,13c-1.3,10.7-10.8,17.9-33.7,35.3-20.8,15.8-49.4,37.4-78.7,67.2-32.3,32.8-57.9,73.5-74.9,100.5-5.6,8.8-10.4,16.4-14.2,21.9S1426.1,1248.1,1416.2,1248.1Zm12.1-22.9ZM1425.4,891c-5.1,0-10.3,2.4-13.3,9-8.5,18.9-12.9,52.8-12.9,100.6h0c-.1,79.6,12.4,161.6,21.9,201.5l3.9-6.1c17.7-28,44.4-70.5,78.9-105.6,30.9-31.3,61.6-54.6,82-70,6.1-4.7,12.8-9.7,17.5-13.6-40.6-42.5-137.8-102-171.8-114.6A18,18,0,0,0,1425.4,891Z" transform="translate(-764.6 -770.5)"/>
      <path class="c" d="M2183.2,2248.8c27.4-5.7,54.7-11.3,82-17.3l40.9-9,20.4-4.6,10.2-2.3,5.1-1.2,2.5-.6,2.4-.5,20-5.2c6.7-1.8,13.5-3.5,20.2-5.4,13.4-3.6,26.7-7.5,40-11.3s26.6-7.9,39.8-12.1c6.7-2,13.2-4.2,19.8-6.4l9.8-3.3,4.8-1.7,4.7-1.7,22.9-8.2v24.6l-23-16a650.4,650.4,0,0,0,60-26,543.3,543.3,0,0,0,56.5-32.4l6.7-4.5,6.6-4.5,6.4-4.8,6.5-4.9c8.5-6.7,16.9-13.6,25.1-20.8s16-14.5,23.6-22.2l5.7-5.8c1.9-1.9,3.7-3.9,5.6-5.9l5.5-5.9,2.7-3.1,1.3-1.5.7-.7.3-.4.2-.2a11,11,0,0,0-1.3,1.7l.5-.7a12.6,12.6,0,0,1,1.8-2.1,15.3,15.3,0,0,1,3.6-2.7l-4.5,3.6c7-8,13.8-16.2,20.1-24.7l.4-.5.4-.5a26.9,26.9,0,0,1,2.1-2l.5-.4-.5.4a15.4,15.4,0,0,0-1.9,1.9l26.6,22.6-21.1,26-27.5-21.7c9-11.9,18.4-23.9,29.7-35.3a132.1,132.1,0,0,1,19.4-16.2,71.6,71.6,0,0,1,12.6-6.8,49.4,49.4,0,0,1,16.1-4h6.8l1.8.2,4.8.4,9.4.3c3.1-.1,6.1-.3,8.9-.6a52.4,52.4,0,0,0,7.9-1.6,23.3,23.3,0,0,0,5.6-2.4c1.2-.8,1.6-1.4,1.6-1.5s.3-.5.3-2a31.1,31.1,0,0,0-.9-6.4c-.7-2.6-1.6-5.6-2.7-8.6s-2.4-6.1-3.7-9.3c-2.7-6.4-5.7-12.9-8.7-19.7s-6.1-14-8.8-21.4c-1.3-3.6-2.6-7.4-3.8-11.2-.6-2-1.2-3.9-1.7-6l-.4-1.5-.2-.8v-.4a5.5,5.5,0,0,1-.2-1.2,10,10,0,0,1-.2-1.6,19.6,19.6,0,0,1,18.8-21.5,18.9,18.9,0,0,1,9,2l.6.3,1.1.5,2.4,1.1,4.6,2.2,9.5,4a179.5,179.5,0,0,0,19,6.7,91.9,91.9,0,0,0,17.7,3.7,24.2,24.2,0,0,0,6.3-.2l1.1-.3a2.1,2.1,0,0,0-.7.5,4.4,4.4,0,0,0-.9,1.3c-.1.2,0,.2,0-.3s0-.2-.1-1.2a33.5,33.5,0,0,0-.6-3.6c-.7-2.7-1.5-5.8-2.5-9s-2.2-6.5-3.3-9.8c-4.7-13.4-10-27.2-14.8-41.3s-9.5-28.6-13.1-43.5c-.9-3.7-1.8-7.5-2.6-11.3-.4-1.9-.7-3.8-1.1-5.7l-1-5.4-4-21.5q-8-43.1-16.3-85.8c-2.8-14.3-5.6-28.6-8.5-42.8l-4.5-21.2-2.3-10.5-1.2-5.2-.6-2.5-.6-2.2-.3-1.4-3.1-12-3.6-13c-2.4-8.7-5-17.4-7.6-26.1q-7.8-26-16.7-51.6c-5.9-17-12.2-33.9-18.9-50.5-3.4-8.3-6.9-16.6-10.5-24.7s-7.5-16.2-11.4-24.1l-3.7-7.3,2.9-7.7c3.2-8.6,6-17.6,8.6-26.8s4.8-18.5,7-27.9q6.3-28.2,10.9-57.2c6.1-38.4,10.4-77.3,13.1-116.3a1139.3,1139.3,0,0,0,2.2-116.8c-.7-19.3-2-38.6-4.3-57.6s-5.4-37.8-10.3-55.5a183.4,183.4,0,0,0-8.9-25.3c-3.5-7.9-7.7-15.1-12.4-20.5l-1.7-1.9-.9-.9-.8-.7a28.5,28.5,0,0,0-3.3-2.5,33.8,33.8,0,0,0-8.8-3.7c-6.7-2-14.9-2.7-23.4-2.4a165.6,165.6,0,0,0-26.4,3.3,271.7,271.7,0,0,0-26.9,6.8,472.9,472.9,0,0,0-53.4,20c-17.5,7.8-34.8,16.4-51.8,25.6s-33.6,19.1-49.9,29.5-32.1,21.5-47.3,33.2a416.3,416.3,0,0,0-42.9,37l-9.3,9.4-12.2-5.1c-13-5.4-26.4-10.1-40-14.4l-10.3-3.2-10.3-3c-7-1.8-13.9-3.7-20.9-5.4-28-7-56.6-12.4-85.3-16.9s-57.8-7.9-86.8-10.6c-14.6-1.3-29.1-2.4-43.7-3.3l-21.7-1.1-10.9-.4-10.5-.2-10.5.2-10.8.4-21.8,1.1c-14.5.9-29.1,2-43.6,3.4q-43.7,3.9-86.8,10.6c-28.7,4.5-57.3,9.9-85.3,16.8-7,1.7-13.9,3.6-20.9,5.5l-10.3,3c-3.5.9-6.8,2.1-10.3,3.1-13.6,4.3-27,9.1-40,14.5l-12.2,5.1-9.4-9.4c-13-13.1-27.7-25.4-42.8-37.1s-31.1-22.6-47.4-33.1-32.9-20.3-49.9-29.5-34.3-17.8-51.8-25.5a493.7,493.7,0,0,0-53.4-20.1c-9-2.6-18-5-26.9-6.7a163,163,0,0,0-26.3-3.3c-8.5-.3-16.7.4-23.4,2.3a36.8,36.8,0,0,0-8.7,3.8,28,28,0,0,0-3.3,2.4l-.8.7-.8.9-1.8,1.9c-4.7,5.4-8.8,12.6-12.3,20.4a193.2,193.2,0,0,0-8.9,25.3c-4.9,17.7-8.1,36.5-10.3,55.5s-3.6,38.3-4.3,57.6a1111.6,1111.6,0,0,0,2.3,116.8c2.6,38.9,6.9,77.8,13.1,116.3,3.1,19.2,6.6,38.3,10.9,57.1,2.1,9.4,4.5,18.7,7,27.9s5.4,18.2,8.6,26.7l2.9,7.9-3.7,7.4c-3.9,8-7.7,16-11.4,24.1s-7.1,16.4-10.5,24.7q-10,24.9-18.9,50.6t-16.7,51.6c-2.6,8.6-5.1,17.3-7.6,26-1.2,4.3-2.4,8.7-3.5,13l-3.2,12-.3,1.4-.5,2.2-.6,2.5-1.2,5.2-2.3,10.5-4.5,21.2c-2.9,14.2-5.7,28.5-8.5,42.8q-8.4,42.8-16.3,85.8l-4,21.5-1,5.4c-.3,1.9-.7,3.8-1.1,5.7-.8,3.8-1.6,7.6-2.6,11.3-3.6,15-8.2,29.5-13,43.6s-10.2,27.9-14.8,41.2c-1.2,3.4-2.3,6.6-3.3,9.8s-1.9,6.3-2.5,9a33.5,33.5,0,0,0-.6,3.6c-.2.9-.1,1.5-.1,1.1s.1.4-.1.1a3.7,3.7,0,0,0-1-1.4,2.7,2.7,0,0,0-.8-.7h1a27.8,27.8,0,0,0,6.1.2,91.9,91.9,0,0,0,17.7-3.7c6.2-1.8,12.6-4.1,18.9-6.6l9.4-4.1,4.7-2.1,2.3-1.1,1.2-.6.6-.3a20.8,20.8,0,0,1,9.2-2,20.6,20.6,0,0,1,15.6,8.3,20.6,20.6,0,0,1,3.7,13.7,9.9,9.9,0,0,1-.2,1.7c-.1.4-.3,1.3-.2,1.2v.4l-.2.8-.4,1.5c-.6,2.1-1.1,4.1-1.7,6-1.2,3.9-2.5,7.6-3.9,11.3-2.6,7.4-5.6,14.5-8.7,21.4s-6.1,13.4-8.8,19.7c-1.3,3.2-2.6,6.3-3.7,9.3a72.9,72.9,0,0,0-2.6,8.5,21.3,21.3,0,0,0-.9,6.3,6.3,6.3,0,0,0,.2,1.8l.2.3,1.3,1a26.3,26.3,0,0,0,5.4,2.3,53.6,53.6,0,0,0,7.8,1.6c2.8.3,5.8.5,8.9.6l9.4-.3,4.7-.4,1.8-.2h7a52.1,52.1,0,0,1,16.1,4,69.4,69.4,0,0,1,12.7,6.9,122.9,122.9,0,0,1,19.5,16.3c11.4,11.4,20.8,23.4,29.8,35.2l-28.3,22.4-21.2-26,27.5-23.2a15.2,15.2,0,0,0-2.1-2l-.5-.4.6.5a21,21,0,0,1,2.2,2l.3.5.5.5c6.3,8.4,13,16.6,20,24.7l-4.6-3.8a20.8,20.8,0,0,1,3.7,2.8,23.5,23.5,0,0,1,1.9,2.2l.5.7-1.3-1.7v.2l.4.3.6.8,1.4,1.5,2.7,3,5.5,6,5.5,5.9,5.7,5.8q11.4,11.4,23.7,22.2c8.1,7.1,16.4,14,25,20.7,2.1,1.7,4.3,3.3,6.5,4.9l6.4,4.8,6.5,4.5,6.8,4.5a541.8,541.8,0,0,0,56.4,32.4q29.3,14.4,60,25.9l-23.7,16.5v-25.3l23.6,8.5,4.7,1.7,4.9,1.7,9.7,3.3,19.8,6.4c13.2,4.1,26.5,8.1,39.8,12s26.7,7.6,40.1,11.2l20.1,5.4,20,5.1,1.2.3,1.2.3,2.5.6,5.1,1.2,10.2,2.3,20.4,4.7,40.9,9.1c27.2,6,54.5,11.8,81.9,17.7h0a8.5,8.5,0,0,1-2.2,16.8c-28.3-1.4-56.4-4.4-84.4-8.1-14-1.8-27.9-3.8-41.9-6l-20.8-3.5-10.5-1.8-5.2-1-2.6-.4-1.3-.3-1.5-.3-20.9-4.5c-6.9-1.6-13.8-3.1-20.6-4.8-13.8-3.3-27.5-6.9-41.2-10.6s-27.2-7.9-40.8-12.1l-20.3-6.5-10.1-3.4-5.1-1.8-5.2-1.8,23.6-16.5v25.6L1596,2199a679.2,679.2,0,0,1-63.4-27.2,617.7,617.7,0,0,1-60.2-34.3l-7.2-4.8-7.3-5-7.1-5.3-6.9-5.2c-9.1-7.1-18.1-14.4-26.8-22s-17.2-15.6-25.4-23.8l-6.1-6.2-6-6.2-5.9-6.4-2.9-3.3-1.4-1.6-.8-.8-.3-.4-.2-.2c-.1-.1-1.7-2.1-1.4-1.9l.4.6a20.8,20.8,0,0,0,1.8,2.1,24,24,0,0,0,3.6,2.7l-4.6-3.7c-7.5-8.6-14.8-17.4-21.7-26.6l.8,1c1.1,1.2,1.7,1.6,2,2l.5.4-.5-.5a16.3,16.3,0,0,1-2.2-2.1l27.5-23.2,21.2,26-28.2,22.3c-4.4-5.7-8.7-11.2-13.2-16.5s-8.9-10.4-13.5-15a97.5,97.5,0,0,0-14-11.8,38.3,38.3,0,0,0-6.5-3.5,17.6,17.6,0,0,0-5-1.3h-2.2l-6.1.5c-4.1.3-8.2.5-12.5.4a114.5,114.5,0,0,1-12.9-.8,89,89,0,0,1-13.6-2.8,59.6,59.6,0,0,1-14.6-6.5,52.9,52.9,0,0,1-7.3-5.8,35.9,35.9,0,0,1-6.4-8.3,39,39,0,0,1-4.9-19.3,58.7,58.7,0,0,1,1.9-15.3,121.2,121.2,0,0,1,3.8-12.4c1.4-3.8,2.8-7.5,4.3-11,3-7.1,6.1-13.8,9-20.4s5.4-12.7,7.7-19.1c1.2-3.1,2.3-6.3,3.2-9.4.5-1.5.9-3.1,1.3-4.5l.3-1.1v-.8c0-.3-.2.6-.2.9a5.1,5.1,0,0,0-.2,1.3,16.2,16.2,0,0,0,3.1,11.1,15.9,15.9,0,0,0,5.2,4.7,17.4,17.4,0,0,0,8,2.3,16.4,16.4,0,0,0,7.9-1.7l-.6.3-1.3.6-2.6,1.3-5.3,2.4-10.6,4.6c-7.2,2.9-14.6,5.6-22.4,7.9a122.4,122.4,0,0,1-25.1,5.1,65.5,65.5,0,0,1-15.7-.6,38,38,0,0,1-9.4-2.8,34.4,34.4,0,0,1-10-6.7,32.3,32.3,0,0,1-7.1-10.3,38.3,38.3,0,0,1-2.8-10.5,39.1,39.1,0,0,1,.1-9.8,63.5,63.5,0,0,1,1.2-7.2c1-4.4,2.1-8.3,3.3-12.1s2.4-7.4,3.6-11c5-14.2,10.1-27.6,14.7-41.1s8.8-26.9,12-40.3c.8-3.3,1.5-6.7,2.2-10,.4-1.7.7-3.3,1-5l1-5.4,3.9-21.5c5.3-28.8,10.6-57.5,16.2-86.2,2.7-14.4,5.6-28.7,8.5-43.1q2.1-10.8,4.5-21.6l2.3-10.9,1.3-5.5.6-2.8.8-3.1-.3,1.4.3-1.3v-.5l.2-.9.5-1.8.8-3.4,1.8-6.8c1.2-4.5,2.4-9,3.7-13.5,2.5-8.9,5.1-17.8,7.7-26.7q8-26.7,17-53.1c6.1-17.6,12.5-35.1,19.5-52.5,3.5-8.7,7.2-17.3,11-25.9s7.9-17.2,12.1-25.7l-.8,15.3c-3.7-10-6.9-19.9-9.7-29.8s-5.2-19.8-7.5-29.7c-4.6-19.8-8.3-39.7-11.5-59.6q-9.6-59.7-13.7-119.8a1157.4,1157.4,0,0,1-2.5-120.8c.7-20.2,2.1-40.5,4.5-60.8s5.8-40.8,11.4-61.3a219.7,219.7,0,0,1,10.7-30.7c4.6-10.2,10.2-20.5,18.5-30.2l3.3-3.5,1.7-1.8,2-1.8a66.1,66.1,0,0,1,8.6-6.4,76,76,0,0,1,18.4-8.1c12.4-3.5,24.3-4.2,35.5-3.9a213.7,213.7,0,0,1,32.6,3.9c10.5,2.1,20.7,4.7,30.7,7.7a488.8,488.8,0,0,1,57.9,21.7q28,12.3,54.7,26.9c17.9,9.7,35.3,20,52.4,31s33.8,22.5,50,34.9,32.1,25.6,47,40.6l-21.6-4.3c14.3-5.9,28.8-11.1,43.4-15.7,3.6-1.1,7.2-2.3,10.9-3.3l11-3.2c7.3-2,14.6-4,22-5.8,29.4-7.3,59-12.9,88.7-17.5s59.4-8.2,89.2-11c14.9-1.3,29.9-2.5,44.8-3.4,7.5-.5,15-.8,22.5-1.2l11.4-.4,11.6-.2,11.7.2,11.3.4c7.6.4,15.1.7,22.5,1.2,15,.9,29.9,2.1,44.9,3.5q44.7,4.1,89.2,10.9c29.7,4.7,59.3,10.3,88.7,17.6,7.3,1.8,14.7,3.8,22,5.8l10.9,3.1,11,3.4c14.5,4.6,29,9.8,43.3,15.7l-21.4,4.3c14.9-15,30.7-28.1,46.9-40.6s32.9-24,50-34.9,34.6-21.3,52.4-31,36.1-18.7,54.8-26.9a512,512,0,0,1,57.8-21.6c10-3,20.2-5.6,30.7-7.7a213.9,213.9,0,0,1,32.5-3.9c11.3-.3,23.2.4,35.5,3.9a74.3,74.3,0,0,1,18.4,8.1,64.4,64.4,0,0,1,8.5,6.3l2,1.9,1.8,1.7,3.2,3.6c8.3,9.6,13.9,19.9,18.5,30.1a219.7,219.7,0,0,1,10.7,30.7,416,416,0,0,1,11.4,61.2c2.4,20.4,3.7,40.6,4.4,60.9a1156.1,1156.1,0,0,1-2.5,120.7q-4.2,60.2-13.7,119.8-4.8,29.9-11.5,59.5c-2.3,9.9-4.8,19.8-7.6,29.7s-5.9,19.8-9.6,29.8l-.8-15.1c4.2,8.5,8.2,17.1,12,25.7s7.5,17.2,11,25.9c7,17.4,13.4,34.9,19.5,52.5s11.7,35.3,17,53.1c2.7,8.9,5.2,17.8,7.7,26.7,1.3,4.5,2.5,9,3.7,13.5l1.7,6.8.9,3.4.5,1.7.2,1v.5l.3,1.2-.3-1.3.7,3.1.7,2.8,1.2,5.5,2.4,10.9,4.5,21.6c2.9,14.3,5.7,28.7,8.5,43.1q8.3,43,16.1,86.2l4,21.5.9,5.4c.3,1.6.7,3.3,1,5,.7,3.3,1.4,6.7,2.2,10,3.3,13.4,7.4,26.9,12,40.3s9.7,27,14.7,41.2c1.2,3.5,2.5,7.2,3.6,10.9s2.3,7.7,3.3,12.1a63.5,63.5,0,0,1,1.2,7.2,43.5,43.5,0,0,1,.1,9.7,37.1,37.1,0,0,1-2.8,10.3,31.6,31.6,0,0,1-16.8,16.7,37.4,37.4,0,0,1-9.3,2.8,64.2,64.2,0,0,1-15.5.6,122.4,122.4,0,0,1-25.1-5.1c-7.8-2.3-15.1-5-22.3-7.9l-10.6-4.6-5.3-2.4-2.6-1.2-1.3-.7-.6-.3a15.6,15.6,0,0,0,7.7,1.7,16.1,16.1,0,0,0,7.7-2.2,16.2,16.2,0,0,0,8.1-15.4c-.1-.4-.1-.8-.2-1.3s-.2-1.1-.2-.8v.8l.3,1.1c.4,1.5.8,3,1.3,4.6s2,6.2,3.2,9.4c2.3,6.4,4.9,12.8,7.7,19.1s6,13.3,9,20.4c1.5,3.5,2.9,7.1,4.3,11a119.1,119.1,0,0,1,3.8,12.3,57.9,57.9,0,0,1,1.9,15.2,39.6,39.6,0,0,1-4.9,19.1,33.8,33.8,0,0,1-6.3,8.1,41.6,41.6,0,0,1-7.2,5.8,58.5,58.5,0,0,1-14.5,6.4,85.4,85.4,0,0,1-13.5,2.8,114.5,114.5,0,0,1-12.9.8c-4.2.1-8.3-.1-12.4-.4l-6.1-.5h-2.3a18.1,18.1,0,0,0-5.1,1.3,49.1,49.1,0,0,0-6.6,3.6,105,105,0,0,0-14.1,11.8c-4.6,4.7-9.1,9.7-13.6,15s-8.7,10.9-13.1,16.6l-27.5-21.7,21.3-25.9,26.7,22.5a15.2,15.2,0,0,1-2.1,2l-.6.5.5-.4,2-1.9.8-1c-6.9,9.1-14.2,18-21.7,26.5l-4.5,3.7a15.2,15.2,0,0,0,3.5-2.7,13.8,13.8,0,0,0,1.8-2l.4-.5c.2-.3-1.3,1.7-1.4,1.7l-.2.2-.3.5-.8.8-1.4,1.6-2.9,3.2-5.9,6.4-6,6.3-6.1,6.2c-8.2,8.2-16.7,16.1-25.4,23.7s-17.6,14.9-26.8,22c-2.2,1.8-4.6,3.5-6.8,5.2l-7.1,5.3-7.3,5-7.2,4.8a586.1,586.1,0,0,1-60.2,34.2,666.2,666.2,0,0,1-63.3,27.2l-23.1,8.6v-24.9l22.9,16-5.2,1.9-5,1.7-10.2,3.4c-6.7,2.3-13.5,4.4-20.3,6.5q-20.2,6.5-40.8,12c-13.7,3.7-27.4,7.3-41.1,10.6l-20.7,4.8c-6.9,1.6-13.9,3-20.9,4.5l-1.4.3-1.3.2-2.7.5-5.2,1-10.4,1.8-20.9,3.5-20.9,3.2-20.9,3c-28,3.7-56.1,6.9-84.3,8.5a8.5,8.5,0,0,1-9-8,8.4,8.4,0,0,1,6.8-8.8Z" transform="translate(-764.6 -770.5)"/>
      <ellipse class="h" cx="850.7" cy="1140.9" rx="80.1" ry="38.4"/>
      <ellipse class="h" cx="1733.9" cy="1140.9" rx="80.1" ry="38.4"/>
      <path class="a" d="M2177,1851.7s-21,55.1-70.2,42.4c-56.1-14.5-49.3-81.3-49.3-81.3" transform="translate(-764.6 -770.5)"/>
      <path class="a" d="M1935.9,1851.7s21,55.1,70.2,42.4c56-14.5,49.3-81.3,49.3-81.3" transform="translate(-764.6 -770.5)"/>
      <path class="c" d="M2184.9,1854.7l-.5,1.8-.5,1.6-1.2,3.2c-.8,2.1-1.7,4.2-2.6,6.2a98.7,98.7,0,0,1-6.8,11.7,75,75,0,0,1-20.1,20,60.1,60.1,0,0,1-28.4,9.6,67.7,67.7,0,0,1-15-.8c-1.3-.1-2.4-.5-3.6-.7l-3.6-.9-3.4-1-1.7-.5-1.7-.7-3.3-1.3a34.9,34.9,0,0,1-3.4-1.5c-1-.5-2.2-1-3.2-1.6l-3.2-1.9a67.9,67.9,0,0,1-11.6-9c-1.9-1.7-3.4-3.6-5.1-5.4s-3-3.8-4.3-5.8-2.6-4.1-3.8-6.2-2.2-4.2-3-6.4a89.8,89.8,0,0,1-6.7-26.5,116.5,116.5,0,0,1-.5-13.2c.1-2.2.2-4.4.4-6.6s.2-2.2.4-3.3l.2-1.7.3-1.9a8.5,8.5,0,0,1,16.7.2l.2,1.5a4.5,4.5,0,0,1,.1,1.2v1.3c.1.9.1,1.9.2,2.8s.4,3.7.7,5.5c.6,3.6,1.2,7.3,2.1,10.8a83.3,83.3,0,0,0,7.3,19.8,37,37,0,0,0,2.5,4.3,29.2,29.2,0,0,0,2.9,4,27.6,27.6,0,0,0,3.1,3.7c1.1,1.1,2.2,2.3,3.4,3.3a49.7,49.7,0,0,0,16.4,9.5l1.2.4,1.1.4,2.4.7a20.5,20.5,0,0,0,2.4.5l2.3.5,2.3.4,2.3.2h4.6a39.7,39.7,0,0,0,17.2-4.8,60.9,60.9,0,0,0,15.7-12.5,93.3,93.3,0,0,0,6.9-8.2l3.1-4.5,1.5-2.3.7-1.1.7-1,1.3-1.6a8.4,8.4,0,0,1,14.5,7.7Z" transform="translate(-764.6 -770.5)"/>
      <path class="c" d="M1943.8,1848.6l.6,1,.7,1.1,1.5,2.3,3.2,4.5a93.3,93.3,0,0,0,6.9,8.2,62.2,62.2,0,0,0,15.6,12.5,39.8,39.8,0,0,0,17.3,4.8h4.5l2.3-.2,2.3-.4,2.4-.5a18.9,18.9,0,0,0,2.3-.5l2.4-.7,1.2-.4,1.1-.4a49.1,49.1,0,0,0,16.5-9.5c1.2-1,2.3-2.2,3.4-3.3a37.9,37.9,0,0,0,3.1-3.7c1-1.2,1.9-2.6,2.9-4s1.7-2.8,2.5-4.3a83.3,83.3,0,0,0,7.3-19.8c.9-3.5,1.5-7.2,2.1-10.8l.6-5.5.3-2.8v-2.5l.3-1.5a8.3,8.3,0,0,1,9.6-7.1,8.2,8.2,0,0,1,7,6.9l.4,1.9.2,1.7c.1,1.1.3,2.2.4,3.3s.3,4.4.3,6.6a83.3,83.3,0,0,1-.5,13.2,89.6,89.6,0,0,1-6.6,26.5c-.9,2.2-2,4.3-3.1,6.4s-2.3,4.2-3.7,6.2-2.9,3.9-4.4,5.8-3.2,3.7-5,5.4a72.1,72.1,0,0,1-11.6,9l-3.2,1.9-3.3,1.6-3.3,1.5-3.4,1.3-1.7.7-1.7.5-3.4,1a35.8,35.8,0,0,1-3.5.9c-1.2.2-2.4.6-3.6.7a68,68,0,0,1-15,.8,60.1,60.1,0,0,1-28.5-9.6,73.2,73.2,0,0,1-20-20,86.6,86.6,0,0,1-6.8-11.7c-1-2-1.9-4.1-2.7-6.2s-.7-2.1-1.1-3.2l-.5-1.6-.6-1.8a8.4,8.4,0,0,1,14.6-7.7Z" transform="translate(-764.6 -770.5)"/>
      <path class="c" d="M1988.9,1777.8c0,15.8,20.7,29.7,39.6,39.2a67.8,67.8,0,0,0,61.7,0c19-9.5,39.6-23.4,39.6-39.2C2129.8,1730.1,1988.9,1730.1,1988.9,1777.8Z" transform="translate(-764.6 -770.5)"/>
      <g class="f">
        <path class="a" d="M2031.4,1768.4c0,4.6,8.2,8.6,15.7,11.3a35.6,35.6,0,0,0,24.5,0c7.5-2.7,15.7-6.7,15.7-11.3C2087.3,1754.7,2031.4,1754.7,2031.4,1768.4Z" transform="translate(-764.6 -770.5)"/>
      </g>
      <path class="a" d="M2666.3,2637c41,2.7,133.1-2.7,181.1-103.4s-21.9-297.6-113.2-322.3c-13.2-3.6-37.8,2.3-45.2,22.8-14.6,40.4,24.1,105.3,24.1,105.3s-141.5,40.5-141.2,133.1C2572.1,2534.1,2582.7,2631.6,2666.3,2637Z" transform="translate(-764.6 -770.5)"/>
      <g class="b">
        <path class="c" d="M2847.4,2533.6c-48,100.7-140,106.1-181.1,103.4-83.6-5.4-94.1-102.9-94.4-164.5a87.8,87.8,0,0,1,2.5-20.8c6.1,55.4,35.7,85.5,100.4,93,51.7,6,142.4-6,172.6-77.1a187.9,187.9,0,0,0,13.5-47.4C2865.8,2461.9,2862.2,2502.4,2847.4,2533.6Z" transform="translate(-764.6 -770.5)"/>
      </g>
      <path class="c" d="M2680.7,2654.5c-5.6,0-10.7-.2-15.5-.5h0c-43.2-2.8-75.4-27.7-93.1-71.9-11.4-28.4-17-64.2-17.2-109.6-.2-82.6,92.5-127,134-142.8-3-6.2-6.2-13.7-9.3-21.9-11.8-32.1-14-58.9-6.6-79.5,4.9-13.7,15.6-24.5,30-30.4,11.7-4.8,25-5.9,35.7-3,40.7,11,80,51.9,107.6,112,17.2,37.4,28.7,80.1,32.3,120,4.1,44.2-1.5,83.7-15.9,114-22.7,47.7-57.1,81-102.2,99C2731.6,2651.4,2703,2654.5,2680.7,2654.5Zm-13.3-34.4c43.5,2.8,122.7-5.7,164.6-93.8,23.3-48.9,16.5-133.3-16.5-205.2-23.1-50.2-55.2-85.1-85.7-93.4-5.4-1.5-20.8,1-24.8,12.1-9.6,26.7,13.7,75.8,22.7,90.9l11.2,19-21.1,6.1c-1.3.3-129.1,38-128.9,116.6.2,40.4,5.1,73.1,14.7,97.1,12.9,32.1,33.8,48.6,63.8,50.6Z" transform="translate(-764.6 -770.5)"/>
      <path class="a" d="M1691.4,2673.5s153.8,60.9,170.2,211.5c22.9,209.9-153.2,328.3-153.2,328.3" transform="translate(-764.6 -770.5)"/>
      <path class="c" d="M1694.6,2665.6l2.7.9,2.6.9,5,1.8,10,4.1c6.6,2.9,13,6.1,19.3,9.4a313.9,313.9,0,0,1,36.6,22.7,280.5,280.5,0,0,1,62.3,60.8c2.2,2.9,4.3,6,6.3,9.1l3.1,4.5,2.9,4.8,2.9,4.7.7,1.2.7,1.2,1.3,2.5,2.6,4.9c.9,1.6,1.8,3.3,2.5,4.9l4.7,10.1,4.2,10.4a27.7,27.7,0,0,1,1,2.6l.9,2.6,1.8,5.3,1.8,5.3,1.5,5.4,1.4,5.4.8,2.7.6,2.7,2.3,11c.6,3.6,1.1,7.3,1.7,11,.2,1.8.5,3.7.7,5.5l.6,5.4a341.8,341.8,0,0,1-2.2,87.3c-.5,3.6-1.2,7.2-1.8,10.8s-1.4,7.1-2.2,10.7-1.6,7.2-2.5,10.7l-1.4,5.3-1.5,5.2a360.3,360.3,0,0,1-34.3,80.2c-3.6,6.3-7.4,12.5-11.4,18.5s-8,12.1-12.3,17.9a433.7,433.7,0,0,1-58,64.1c-2.7,2.4-5.4,4.8-8.2,7.1l-8.4,6.9c-2.8,2.3-5.7,4.5-8.6,6.7l-4.5,3.2-2.3,1.7-2.6,1.7a17,17,0,0,1-19.6-27.7l.7-.5,1.6-1.2,1.9-1.4,3.8-3,7.5-6.3q7.5-6.5,14.7-13.2c9.6-9.1,18.8-18.7,27.5-28.7a390.6,390.6,0,0,0,24.6-31.1c3.8-5.3,7.6-10.8,11.1-16.3s7-11.2,10.2-16.9c1.7-2.8,3.2-5.7,4.8-8.6s3-5.8,4.4-8.8c3-5.8,5.7-11.8,8.3-17.8a300.5,300.5,0,0,0,13.3-36.9,328.4,328.4,0,0,0,8.7-38.1,318.3,318.3,0,0,0,3.9-38.9,368.4,368.4,0,0,0-1-39.3l-.4-4.9c-.1-1.6-.4-3.2-.6-4.8s-.7-6.3-1.2-9.5l-1.8-9.4-.4-2.3-.6-2.3-1.2-4.7-1.2-4.6c-.4-1.5-.9-3-1.4-4.6l-1.4-4.5-.7-2.3-.9-2.3-3.4-8.9-3.8-8.8c-.6-1.5-1.4-2.9-2.1-4.3l-2.2-4.3-1.1-2.2-.5-1-.6-1.1-2.4-4.2-2.4-4.2-2.5-4.1c-1.8-2.7-3.4-5.5-5.3-8.1-14.5-21.5-32.4-40.9-52.4-58.3-10.1-8.7-20.7-16.8-31.6-24.5q-8.2-5.7-16.8-11.1l-4.2-2.6-4.4-2.6-4.3-2.5-4.2-2.3-.5-.3a8.5,8.5,0,0,1,6.8-15.5Z" transform="translate(-764.6 -770.5)"/>
      <path class="a" d="M1534.1,3162c102.8-11.3,221.7,8.1,237.1,59.9,14.8,49.7,46.9,149.5-197.3,114.7" transform="translate(-764.6 -770.5)"/>
      <path class="c" d="M1534.1,3204.5c9-7.2,19.4-12.6,30.2-17.1a216.1,216.1,0,0,1,33.4-10.6,308.2,308.2,0,0,1,69.8-8.1,284.7,284.7,0,0,1,35.6,2.2,192.7,192.7,0,0,1,35.7,8,118.6,118.6,0,0,1,17.7,7.7,72.1,72.1,0,0,1,16.9,12.6,52.2,52.2,0,0,1,7.2,9.3,47.3,47.3,0,0,1,2.8,5.5l1.2,3,.7,2.4q2.9,8.4,5.1,17.4a180,180,0,0,1,3.5,18.6c.4,3.2.6,6.5.8,9.8s0,6.7-.2,10.1a90.3,90.3,0,0,1-1.2,10.3,75.7,75.7,0,0,1-2.7,10.4,64.4,64.4,0,0,1-4.2,10.2,69.2,69.2,0,0,1-5.7,9.4,75.1,75.1,0,0,1-15.2,15.6,90.6,90.6,0,0,1-17.6,10.8,127.2,127.2,0,0,1-18.4,7.2c-6.2,1.8-12.3,3.2-18.5,4.4a254.3,254.3,0,0,1-36.5,3.9,328.6,328.6,0,0,1-35.8-.2c-11.8-.6-23.6-1.6-35.2-3s-23.2-3-34.7-5a17,17,0,0,1,5-33.6h.1c11.1,1.4,22.2,2.7,33.3,3.8s22.2,2,33.2,2.5l8.3.4h8.2c5.4.1,10.9.1,16.3-.1h4l4.1-.3c2.7-.1,5.3-.4,8-.6l3.9-.4,4-.4,3.9-.5,3.8-.7c10.2-1.7,20.1-4.2,28.7-8s15.9-8.9,20.9-15.3a42.2,42.2,0,0,0,6-10.6,54.3,54.3,0,0,0,1.8-6.1c.5-2.2.9-4.4,1.2-6.7.9-9.1.1-19.2-1.9-29.6-1-5.1-2.2-10.4-3.6-15.7l-.5-1.8a3.8,3.8,0,0,0-.3-1,8.5,8.5,0,0,0-.9-2.2,20.2,20.2,0,0,0-3-4.4,43.6,43.6,0,0,0-10.2-8.4,82.9,82.9,0,0,0-13.3-6.8,167.1,167.1,0,0,0-30.6-9.2,291.2,291.2,0,0,0-32.6-5.1,365.6,365.6,0,0,0-67-.2,268,268,0,0,0-33.3,5.2,160,160,0,0,0-16.4,4.6A113.6,113.6,0,0,0,1534.1,3204.5Z" transform="translate(-764.6 -770.5)"/>
      <g class="b">
        <path class="c" d="M1424.8,3236c19.7,21.9,27.5,52.8,49.3,71.8s134,37.7,199,37.7h80.1l9.1-94.1s-146.5,57.1-233.9,0c-61.5-40.3-24.9-80.2-38-106.8-16.9-34.1-115.7,1.9-155.7-168.4C1326.6,3065.4,1349.1,3152,1424.8,3236Z" transform="translate(-764.6 -770.5)"/>
      </g>
      <ellipse class="c" cx="1777.1" cy="1645.1" rx="165.7" ry="119.6" transform="translate(-846.6 2426.5) rotate(-82.6)"/>
      <ellipse class="a" cx="1822.5" cy="1617" rx="57.2" ry="32.1" transform="translate(-748.5 2481.5) rotate(-83.7)"/>
      <ellipse class="a" cx="1714.8" cy="1682.3" rx="28.6" ry="16" transform="translate(-988.9 2329.9) rotate(-80.6)"/>
      <ellipse class="c" cx="2355.5" cy="1645.1" rx="119.6" ry="165.7" transform="translate(-955.8 -455.3) rotate(-7.4)"/>
      <ellipse class="a" cx="2310.1" cy="1617" rx="32.1" ry="57.2" transform="translate(-927.4 -508.5) rotate(-6.3)"/>
      <ellipse class="a" cx="2417.8" cy="1682.3" rx="16" ry="28.6" transform="translate(-1006.2 -354.4) rotate(-9.4)"/>
    </g>
    <g>
      <path class="i" d="M3256,2031.6h0c-24.7-40.2-78.8-47-119.1-22.2l-6.3,3.8-3.8-6.2c-24.8-40.3-76.1-58.7-116.4-33.9h0a85.6,85.6,0,0,0-28.1,117.7l3.9,6.3,77.8,126.6a22.7,22.7,0,0,0,31.1,7.4l126.6-77.9,6.2-3.8A85.6,85.6,0,0,0,3256,2031.6Z" transform="translate(-764.6 -770.5)"/>
      <g class="d">
        <path class="c" d="M3256,2031.6h0a69.4,69.4,0,0,0-10.8-13.7,85.4,85.4,0,0,1-39.7,86.3l-6.2,3.9-126.6,77.8a22.6,22.6,0,0,1-31.1-7.4l-69.8-113.6a85.1,85.1,0,0,0,10.5,25.9l3.9,6.3,77.8,126.6a22.7,22.7,0,0,0,31.1,7.4l126.6-77.9,6.2-3.8A85.6,85.6,0,0,0,3256,2031.6Z" transform="translate(-764.6 -770.5)"/>
      </g>
      <g class="j">
        <path class="a" d="M3017.7,1998.1h0c40.3-24.8,91.6-6.4,116.4,33.9l3.8,6.2,6.3-3.8c40.3-24.8,94.4-18,119.1,22.2h0a80.3,80.3,0,0,1,4.7,8.6,86.6,86.6,0,0,0-12-33.6h0c-24.7-40.2-78.8-47-119.1-22.2l-6.3,3.8-3.8-6.2c-24.8-40.3-76.1-58.7-116.4-33.9h0a85.5,85.5,0,0,0-32.7,109.1A85.4,85.4,0,0,1,3017.7,1998.1Z" transform="translate(-764.6 -770.5)"/>
      </g>
      <path class="c" d="M3083.3,2246.9a34.9,34.9,0,0,1-29.9-16.7l-81.7-132.8a98.2,98.2,0,0,1,32.2-135c22.1-13.6,48.5-16.7,74.2-8.7a106.7,106.7,0,0,1,56.6,42.5,106.4,106.4,0,0,1,69.6-12.4c26.6,4.4,48.7,19.1,62.4,41.3h0a98.2,98.2,0,0,1-32.2,134.9l-132.9,81.7A33.9,33.9,0,0,1,3083.3,2246.9Zm-33.2-272.5a62.5,62.5,0,0,0-33.1,9.3,73,73,0,0,0-24,100.6l81.7,132.8a9.9,9.9,0,0,0,13.8,3.3l132.9-81.7a73.2,73.2,0,0,0,24-100.5c-9.8-16-25.9-26.5-45.2-29.7s-39.6,1-56.8,11.5l-6.2,3.9a12.7,12.7,0,0,1-9.5,1.5,12.6,12.6,0,0,1-7.7-5.6l-3.9-6.3c-10.5-17.1-27.1-30.2-45.4-35.9A67.5,67.5,0,0,0,3050.1,1974.4Z" transform="translate(-764.6 -770.5)"/>
    </g>
  </g>
</svg>
