<svg xmlns="http://www.w3.org/2000/svg" viewBox="0 0 840.3 1343.8">
  <defs>
    <style>
      .a {
        opacity: 0.2;
      }

      .b {
        fill: #6d4c41;
      }

      .c {
        fill: #ffcb6e;
      }

      .d {
        fill: #ff795f;
      }

      .e {
        fill: #ffdc9c;
      }

      .f {
        opacity: 0.3;
      }

      .g {
        opacity: 0.65;
      }

      .h {
        fill: #fff;
      }

      .i {
        fill: #b5b4bf;
      }
    </style>
  </defs>
  <g>
    <g class="a">
      <path class="b" d="M2165.6,1367.5l-373.7,788.1a185.1,185.1,0,0,0-11.4,31.2h0a183,183,0,0,0-4.1,75.5l23,148.3,13.4,86.9a35.7,35.7,0,0,0,53.4,25.3l75.8-44.6,129.4-76a183.3,183.3,0,0,0,51.9-45.6h.1a186,186,0,0,0,20.9-33.9l372.2-785c46.2-97.5,5.5-217.7-92.3-263.4a195.1,195.1,0,0,0-258.6,93.2Z" transform="translate(-1713.1 -1202.1)"/>
      <path class="b" d="M2530.6,1354.9a229.4,229.4,0,0,1,9.9,23.3c19.6,54.5,16.8,115.4-7.8,167.2l-372.2,785a200.4,200.4,0,0,1-79.9,87.4l-205.3,120.6a53.6,53.6,0,0,1-80.2-38l-36.5-235.2a200.8,200.8,0,0,1,17.1-117.3l373.7-788.1A212.8,212.8,0,0,1,2431.8,1258,208.3,208.3,0,0,1,2530.6,1354.9ZM1832.3,2500.1a17,17,0,0,0,8.3,8,17.3,17.3,0,0,0,16.5-.7l205.2-120.6A164.7,164.7,0,0,0,2128,2315l372.2-785c20.5-43.2,22.8-94.1,6.4-139.6s-48.1-80.2-90-99.8a176.9,176.9,0,0,0-234.7,84.6l-373.7,788.1a164.7,164.7,0,0,0-14,96.3l36.4,235.2A18.3,18.3,0,0,0,1832.3,2500.1Z" transform="translate(-1713.1 -1202.1)"/>
    </g>
    <path class="c" d="M2122.5,1331.6l-373.7,788.1a188.4,188.4,0,0,0-11.4,31.2h0a181.3,181.3,0,0,0-4.1,75.5l23,148.3,13.4,86.9a35.7,35.7,0,0,0,53.4,25.3l75.8-44.5,129.4-76.1a183.3,183.3,0,0,0,51.9-45.6h.1a190.3,190.3,0,0,0,20.9-34l372.2-785c46.2-97.5,5.5-217.7-92.3-263.4a195.1,195.1,0,0,0-258.6,93.2Z" transform="translate(-1713.1 -1202.1)"/>
    <g>
      <path class="d" d="M2122.5,1331.6l-34.1,72,352.3,167.1,32.7-68.9c46.2-97.5,5.5-217.7-92.3-263.4a195.1,195.1,0,0,0-258.6,93.2Z" transform="translate(-1713.1 -1202.1)"/>
      <path class="b" d="M2473.6,1325.9a220.7,220.7,0,0,1,9.2,21.7c18.2,50.6,15.6,107.2-7.2,155.3l-33.7,71.1L2085,1404.8l35.2-74.2a197.4,197.4,0,0,1,262-94.4C2422.1,1254.8,2453.9,1286.2,2473.6,1325.9Zm-34.1,241.5,31.6-66.7c22.2-46.8,24.8-102,7-151.5s-52.3-87.2-98-108.5a192.3,192.3,0,0,0-255.3,92l-33.1,69.8Z" transform="translate(-1713.1 -1202.1)"/>
    </g>
    <g>
      <path class="e" d="M1737.4,2150.9h0a181.3,181.3,0,0,0-4.1,75.5l23,148.3,13.4,86.9a35.7,35.7,0,0,0,53.4,25.3l75.8-44.5,129.4-76.1a183.3,183.3,0,0,0,51.9-45.6h.1c3.3-46-32-102.8-95.2-76.2-6.3-83.9-70.2-108.6-134-63.5C1844.3,2121.3,1774.9,2107.5,1737.4,2150.9Z" transform="translate(-1713.1 -1202.1)"/>
      <path class="b" d="M2073.7,2273.8a92.2,92.2,0,0,1,9.3,47.2l-.6,1.5a187.1,187.1,0,0,1-52.7,46.3l-205.2,120.6a38.5,38.5,0,0,1-57.5-27.3l-36.4-235.2a183.4,183.4,0,0,1,4.2-76.6l.5-1.1c19.3-22.4,48.8-31.6,75-23.5,22.8,7.1,38.6,25.8,42.9,50.7,31.1-20.8,63.3-25.8,88.8-13.8s41.8,39.8,45.5,78.1c30-11.4,51.1-3.4,63.6,5.6A74,74,0,0,1,2073.7,2273.8Zm3.9,46c1.7-27.4-10.1-55.1-29.7-69.1-17-12.2-38.3-13.4-61.8-3.5l-3.4,1.4-.3-3.8c-2.9-38.2-18.1-65.7-42.8-77.3s-56.3-5.8-86.9,15.8l-3.8,2.7-.5-4.6c-2.9-24.8-17.7-43.7-39.7-50.5-24-7.4-51,1-68.9,21.4a178,178,0,0,0-3.8,73.8l36.4,235.2a33.1,33.1,0,0,0,49.4,23.4L2027,2364.1A182,182,0,0,0,2077.6,2319.8Z" transform="translate(-1713.1 -1202.1)"/>
    </g>
    <g class="f">
      <path class="b" d="M2122.5,1331.6l-373.7,788.1a188.4,188.4,0,0,0-11.4,31.2h0a181.3,181.3,0,0,0-4.1,75.5l23,148.3,13.4,86.9a35.7,35.7,0,0,0,53.4,25.3l15.3-8.9-10.8-69.4-23-148.4a183,183,0,0,1,4.1-75.5h0a174.4,174.4,0,0,1,11.5-31.2l373.6-788.1a195,195,0,0,1,222-106.1,197.7,197.7,0,0,0-34.7-21,195.1,195.1,0,0,0-258.6,93.2Z" transform="translate(-1713.1 -1202.1)"/>
    </g>
    <g class="g">
      <path class="h" d="M1774.9,2464.2a32.9,32.9,0,0,1-4.2,2.1,35.7,35.7,0,0,0,52.4,20.7l75.8-44.5,129.4-76.1a183.3,183.3,0,0,0,51.9-45.6h.1a190.3,190.3,0,0,0,20.9-34l372.2-785c46.2-97.5,5.5-217.7-92.3-263.4a186.9,186.9,0,0,0-24.1-9.3c80.1,52.7,110.4,160.8,68.2,249.9l-193.4,407.7c-77.6,33.6-143.4,149.5-110.8,233.8l-68,143.4a190.3,190.3,0,0,1-20.9,34h-.1a182.1,182.1,0,0,1-51.9,45.7l-129.4,76Z" transform="translate(-1713.1 -1202.1)"/>
    </g>
    <path class="b" d="M2487.5,1319a229.4,229.4,0,0,1,9.9,23.3c19.6,54.5,16.8,115.5-7.8,167.2l-372.2,785a200.1,200.1,0,0,1-80,87.4l-205.2,120.6a53.6,53.6,0,0,1-80.2-38l-36.5-235.2a200.9,200.9,0,0,1,17.1-117.3l373.6-788.1a212.9,212.9,0,0,1,282.5-101.8A208.3,208.3,0,0,1,2487.5,1319ZM1789.2,2464.2a17.2,17.2,0,0,0,8.2,8,17.5,17.5,0,0,0,16.6-.7l205.2-120.6a165.3,165.3,0,0,0,65.7-71.8l372.2-785c20.5-43.2,22.8-94.1,6.4-139.6s-48.1-80.2-90-99.7a176.7,176.7,0,0,0-234.7,84.5l-373.7,788.1a164.7,164.7,0,0,0-14,96.3l36.4,235.3A18.7,18.7,0,0,0,1789.2,2464.2Z" transform="translate(-1713.1 -1202.1)"/>
    <g>
      <path class="i" d="M2041.6,1533.7l328.7,155.8a30.7,30.7,0,0,0,40.8-14.5l32.7-68.9a30.7,30.7,0,0,0-14.6-40.8l-328.7-155.9a30.7,30.7,0,0,0-40.8,14.6l-32.6,68.9A30.6,30.6,0,0,0,2041.6,1533.7Z" transform="translate(-1713.1 -1202.1)"/>
      <path class="b" d="M2445.7,1578.2a30,30,0,0,1,1.6,3.6,32.7,32.7,0,0,1-1.3,25.3l-32.6,68.9a33.3,33.3,0,0,1-44.2,15.8l-328.6-155.9a33,33,0,0,1-15.8-44.1l32.7-68.9a33.1,33.1,0,0,1,18.8-17,32.7,32.7,0,0,1,25.3,1.3L2430.3,1563A32,32,0,0,1,2445.7,1578.2Zm-416.1-59.7a27.4,27.4,0,0,0,13.1,12.9l328.7,155.8a28,28,0,0,0,37.4-13.3l32.7-68.9a28.1,28.1,0,0,0-13.4-37.5l-328.6-155.8A28.2,28.2,0,0,0,2062,1425l-32.7,68.9a27.7,27.7,0,0,0-1,21.5A16.9,16.9,0,0,0,2029.6,1518.5Z" transform="translate(-1713.1 -1202.1)"/>
    </g>
    <g class="f">
      <path class="b" d="M2059.8,1423.9l-32.7,69a30.4,30.4,0,0,0,14.5,40.7l85.8,40.7a30.6,30.6,0,0,1-14.5-40.7l32.7-69a30.7,30.7,0,0,1,40.8-14.5l-85.9-40.7A30.6,30.6,0,0,0,2059.8,1423.9Z" transform="translate(-1713.1 -1202.1)"/>
    </g>
    <g class="g">
      <path class="h" d="M2329.7,1670.2l40.6,19.3a30.6,30.6,0,0,0,40.8-14.5l32.7-69a30.6,30.6,0,0,0-14.6-40.7l-40.6-19.3a30.6,30.6,0,0,1,14.5,40.8l-32.7,68.9A30.5,30.5,0,0,1,2329.7,1670.2Z" transform="translate(-1713.1 -1202.1)"/>
    </g>
    <path class="b" d="M2459.6,1571.3a49.9,49.9,0,0,1,2.3,5.3,48.1,48.1,0,0,1-1.9,37.2l-32.6,68.9a48.8,48.8,0,0,1-64.8,23.1l-328.7-155.9a48.7,48.7,0,0,1-23.1-64.7l32.7-68.9a48.6,48.6,0,0,1,64.8-23.1L2436.9,1549A47.7,47.7,0,0,1,2459.6,1571.3Zm-416.2-59.7a12.8,12.8,0,0,0,5.9,5.8h0L2378,1673.2a12.5,12.5,0,0,0,16.8-6l32.7-68.9a12.6,12.6,0,0,0-6-16.8l-328.7-155.8a12.3,12.3,0,0,0-9.6-.5,12.4,12.4,0,0,0-7.2,6.5l-32.7,68.9a12.3,12.3,0,0,0-.4,9.6A5.8,5.8,0,0,0,2043.4,1511.6Zm-1.8,22.1h0Z" transform="translate(-1713.1 -1202.1)"/>
    <path class="b" d="M2087.3,2267a108,108,0,0,1,10.9,55.1,16.2,16.2,0,0,1-1.6,6.1,18,18,0,0,1-34.2-9.5c1.3-21.9-8.2-44.7-23.4-55.6-12.6-9-28.4-9.7-46.9-1.9a18,18,0,0,1-16.4-1.2,18.2,18.2,0,0,1-8.6-14c-2.4-32.5-14.5-55.5-34-64.7s-45.6-3.9-71.6,14.5a18,18,0,0,1-17.8,1.7,17.8,17.8,0,0,1-10.5-14.4c-2.1-18.9-12.7-32.6-29-37.6-18.3-5.6-39,1-52.9,16.9a18,18,0,0,1-30.3-18.9h0a17.7,17.7,0,0,1,2.8-4.3c23.3-27,59-38,91-28.1a75.2,75.2,0,0,1,47.4,42.4c30.2-14.9,60.8-16.8,86.3-4.8s44.3,37.9,51.5,72.7c22-4.1,42.8.1,60,12.4C2071.3,2242,2080.7,2253.6,2087.3,2267Z" transform="translate(-1713.1 -1202.1)"/>
    <path class="b" d="M1915.1,2434.5a18.2,18.2,0,0,1-5.8,22.7,18,18,0,0,1-25.1-4.4c-31.2-44.3-72.6-63.9-126.6-60a18,18,0,1,1-2.6-35.9c66.7-4.8,120.1,20.5,158.6,75.2A15.8,15.8,0,0,1,1915.1,2434.5Z" transform="translate(-1713.1 -1202.1)"/>
    <path class="b" d="M1756.3,2374.8l13.5,86.9a35.6,35.6,0,0,0,53.3,25.3l75.8-44.5Q1846.9,2368.3,1756.3,2374.8Z" transform="translate(-1713.1 -1202.1)"/>
  </g>
</svg>
