<svg xmlns="http://www.w3.org/2000/svg" viewBox="0 0 2313 2980.9">
  <defs>
    <style>
      .a {
        fill: #f9a429;
      }

      .b {
        opacity: 0.3;
      }

      .c {
        fill: #703b51;
      }

      .d {
        fill: #f9d3b7;
      }

      .e {
        fill: #fff3e9;
      }

      .f {
        fill: #ea4b4b;
      }

      .g {
        fill: red;
      }

      .h {
        opacity: 0.5;
      }

      .i {
        fill: #fff;
      }

      .j {
        fill: #512717;
      }

      .k {
        fill: #ff8080;
      }

      .l {
        fill: #ff6c6c;
      }

      .m {
        fill: #b199c5;
      }
    </style>
  </defs>
  <g>
    <g>
      <path class="a" d="M1314.9,3369.2c419.6-38.5,570.1-443.4,570.1-443.4l-97.3-70.5c-80.5,84.9-163.8,127.9-240.6,142.3a317.5,317.5,0,0,1-62,5.8c-71.7-.2-134.8-24.5-180.3-60-49.4-38.5-78.3-90-75.5-138.1,2.2-36.4,25.3-61.2,56.9-52.4,58.6,16.2,25.5,87.5,64.9,100.8,34.9,11.7,102.1-15.2,123.3-74.9,2.5-6.8,4.6-13.6,6.4-20.5h0c1.9-6.6,3.4-13.1,4.7-19.7,40.1-203-161.3-390.7-427.2-318.3-174.1,47.3-268.2,211.9-280.8,391.4C757.9,3090.2,935,3404.1,1314.9,3369.2Z" transform="translate(-758.5 -513.2)"/>
      <g class="b">
        <path class="c" d="M1304.8,2943.4c-49.4-38.5-78.3-90-75.5-138.1,2.2-36.4,25.3-61.2,56.9-52.4,58.6,16.2,25.5,87.5,64.9,100.8,34.9,11.7,102.1-15.2,123.3-74.9,2.5-6.8,4.6-13.6,6.4-20.5h0c1.9-6.6,3.4-13.1,4.7-19.7-23.8,35.5-69.5,92.4-95,52-31.8-50.3-81.6-185.7-180.9-135.7C1124.1,2698.1,1170.3,2886.9,1304.8,2943.4Z" transform="translate(-758.5 -513.2)"/>
      </g>
      <g class="b">
        <path class="c" d="M1314.9,3369.2c419.6-38.5,570.1-443.4,570.1-443.4l-97.3-70.5c-80.5,84.9-163.8,127.9-240.6,142.3a317.5,317.5,0,0,1-62,5.8c-55.3,65.5-169.2,158.1-361.8,138.4-235.2-24-317.4-197.6-345.8-330.1C757.9,3090.2,935,3404.1,1314.9,3369.2Z" transform="translate(-758.5 -513.2)"/>
      </g>
      <path class="d" d="M783.3,2946.8c36.6,235.2,212.6,451.7,531.6,422.4,419.6-38.5,570.1-443.4,570.1-443.4l-97.3-70.5c-80.5,84.9-163.8,127.9-240.6,142.3-56.9,80.8-141.3,217.8-362.3,201.7-101.5-7.4-172.2-47.4-217.5-104.3-118.8-65.9-168.9-185.6-189.8-283.2-.1.9-.1,1.7-.2,2.6-.3,3.6-.5,7.2-.6,10.9s-.4,10.3-.5,15.5c-.1,2.7-.2,5.3-.1,8-.1,4.5-.1,9,0,13.4s.2,10.8.5,16.1a3.3,3.3,0,0,0,0,1.4c.2,4.7.5,9.5.8,14.2l.2,2.3c.3,5.6.8,11.3,1.4,16.9s1.2,11.3,1.9,16.9S782.4,2941.3,783.3,2946.8Z" transform="translate(-758.5 -513.2)"/>
      <path class="e" d="M1314.9,3369.2c419.6-38.5,570.1-443.4,570.1-443.4l-97.3-70.5c-80.5,84.9-163.8,127.9-240.6,142.3-56.9,80.8-141.3,217.8-362.3,201.7-366.3-26.7-331.3-477.4-149.5-616.3,148.6-113.5,445.8-54.3,445.5,175.3,57.7-210.4-148-412.7-422.5-338C614,2541,690.2,3426.6,1314.9,3369.2Z" transform="translate(-758.5 -513.2)"/>
      <g class="b">
        <path class="c" d="M783.3,2946.8c36.6,235.2,212.6,451.7,531.6,422.4,419.6-38.5,570.1-443.4,570.1-443.4l-97.3-70.5c-80.5,84.9-163.8,127.9-240.6,142.3-56.9,80.8-141.3,217.8-362.3,201.7-101.5-7.4-172.2-47.4-217.5-104.3-118.8-65.9-168.9-185.6-189.8-283.2-.1.9-.1,1.7-.2,2.6-.3,3.6-.5,7.2-.6,10.9s-.4,10.3-.5,15.5c-.1,2.7-.2,5.3-.1,8-.1,4.5-.1,9,0,13.4s.2,10.8.5,16.1a3.3,3.3,0,0,0,0,1.4c.2,4.7.5,9.5.8,14.2l.2,2.3c.3,5.6.8,11.3,1.4,16.9s1.2,11.3,1.9,16.9S782.4,2941.3,783.3,2946.8Z" transform="translate(-758.5 -513.2)"/>
      </g>
      <path class="c" d="M1256.7,3389.4c-302.3,0-451.8-223.7-488.2-425.4-21.7-120.2-7.9-242.4,38.9-344,51.5-111.8,136.7-186.7,246.3-216.5,146.9-39.9,287.8-6.3,377.1,90.1,74,79.8,96.4,188.6,60,291-23.7,66.5-98.8,101.2-145.2,85.5-27.5-9.3-32.1-35.3-35.7-56.3-4.3-24.4-7.7-38.5-28.3-44.2-7.8-2.2-14.5-1.2-20.1,2.7-8.4,6-13.9,18.8-14.8,34.1-3.4,58.7,47.9,123,124.8,156.3,129,55.8,279.8,11.2,403.6-119.4a17.4,17.4,0,1,1,25.2,23.9c-134.2,141.6-299.7,189.3-442.6,127.4-90-39-149.9-117.2-145.7-190.3,1.5-26,12.2-48,29.3-60.2,14.1-10.1,31.7-12.9,49.6-8,42.8,11.9,49,47.9,53.2,71.8,3.5,20.3,5.7,27,12.6,29.3,24.6,8.3,83-12.6,101.4-64.3,32-89.9,12.2-185.5-52.8-255.7-80.3-86.7-208.3-116.7-342.5-80.2-219.2,59.6-297.6,312.8-260.1,520.9,36.1,200.1,191.6,423.4,510.6,394.1,168.9-15.5,313.6-92.7,430-229.3,87.4-102.5,125.1-202,125.5-203a17.3,17.3,0,0,1,32.5,12.1c-1.6,4.3-39.7,105.4-130.7,212.5-84.3,99.2-231.5,221.8-454.1,242.2C1296,3388.4,1276,3389.4,1256.7,3389.4Z" transform="translate(-758.5 -513.2)"/>
    </g>
    <path class="a" d="M2741.5,3129.5c-12,94-55.8,183.3-117,234.1-151,125.3-296.8,85.5-450.7,69.8-29.2-3.1-58.6-5.2-88.3-5.2s-57.8,2-86.3,4.9c-154.6,15.7-301,56.4-452.8-69.5-61.2-50.8-105-140-116.9-234.1-15.3-120.1,21.5-247.8,140.8-312.9,19.5-76.6,38.4-155,61.9-233.8,38.7-129.8,89.6-260.6,175.2-385.9h556.1c48.2,70.6,85.4,142.9,115.6,215.8,56,135.1,88.1,272.1,121.6,403.9C2720,2881.7,2756.8,3009.4,2741.5,3129.5Z" transform="translate(-758.5 -513.2)"/>
    <g class="b">
      <path class="c" d="M2540.6,2589.3c-39.4,44.9-105.5,120-171.6,194.6-67.6,76.4-166.8,149.5-229.7,178.2a190.3,190.3,0,0,1-53.9,15.1,190.1,190.1,0,0,1-53.8-15.1c-62.9-28.7-162.1-101.8-229.7-178.2-66.1-74.6-132.1-149.7-171.6-194.6.6-2.1,1.2-4.4,1.9-6.5,38.7-129.8,89.6-260.6,175.1-385.9h556.2c48.2,70.6,85.4,142.9,115.6,215.8C2503.4,2471.4,2523.2,2530.5,2540.6,2589.3Z" transform="translate(-758.5 -513.2)"/>
    </g>
    <g class="b">
      <path class="c" d="M2275.3,2872.8c-48.7,39.6-98.7,72.3-136,89.3a190.3,190.3,0,0,1-53.9,15.1,190.1,190.1,0,0,1-53.8-15.1c-36.3-16.6-84.8-48-132.4-86.3-179.6-339.4-134.3-576.1,187.3-576.1S2453.1,2535,2275.3,2872.8Z" transform="translate(-758.5 -513.2)"/>
    </g>
    <g class="b">
      <path class="c" d="M2741.5,3129.5c-12,94-55.8,183.3-117,234.1-151,125.3-296.8,85.5-450.7,69.8-29.2-3.1-58.6-5.2-88.3-5.2s-57.8,2-86.3,4.9c-154.6,15.7-301,56.4-452.8-69.5-61.2-50.8-105-140-116.9-234.1l1.1-1.2s107.2,89.1,170.6-16.1c35.1-58.3-7.2-223.7,0-328.3,145.5,314.1,281.4,222.3,372.4,218.3,52,116.2,111.9,116.5,111.9,116.5s59.8-.3,111.8-116.5c90.9,4,226.9,95.8,372.4-218.3,7.2,104.6-35.1,270,0,328.3,63.4,105.2,170.6,16.1,170.6,16.1Z" transform="translate(-758.5 -513.2)"/>
    </g>
    <path class="d" d="M2160.5,3208.8c4.4,89.2,9.4,168.1,13.3,224.6-29.2-3.1-58.6-5.2-88.3-5.2s-57.8,2-86.3,4.9c3.9-56.4,8.9-135.2,13.3-224.3,3.9-76-17.1-143.2-41.1-206.5h2.2c52,116.2,111.9,116.5,111.9,116.5s59.8-.3,111.8-116.5c1.5.1,2.9.1,4.3.3C2177.6,3065.7,2156.7,3132.9,2160.5,3208.8Z" transform="translate(-758.5 -513.2)"/>
    <path class="e" d="M2199.4,3002.2c-4.9,68.1-9.5,126.7-9.5,201.1,0,89.3-20,173.4-16.1,229.8a779.2,779.2,0,0,0-174.5,0c3.8-56.4-16.2-140.5-16.2-229.8,0-74.4-4.6-133-9.5-201.1-260.9-405.6-247.3-702.5,112.9-702.5S2460.3,2596.6,2199.4,3002.2Z" transform="translate(-758.5 -513.2)"/>
    <g class="b">
      <path class="c" d="M2275.3,2872.8c-48.7,39.6-98.7,72.3-136,89.3a190.3,190.3,0,0,1-53.9,15.1,190.1,190.1,0,0,1-53.8-15.1c-36.3-16.6-84.8-48-132.4-86.3-179.6-339.4-134.3-576.1,187.3-576.1S2453.1,2535,2275.3,2872.8Z" transform="translate(-758.5 -513.2)"/>
    </g>
    <g class="b">
      <path class="c" d="M2204,3208.8c4.4,89.2-34.1,168.1-30.2,224.6-29.2-3.1-58.6-5.2-88.3-5.2s-57.8,2-86.3,4.9c3.9-56.4-34.6-135.2-30.1-224.3,3.8-76,26.3-143.2,2.3-206.5h2.2c52,116.2,111.9,116.5,111.9,116.5s59.8-.3,111.8-116.5c1.5.1,2.9.1,4.3.3C2177.6,3065.7,2200.2,3132.9,2204,3208.8Z" transform="translate(-758.5 -513.2)"/>
    </g>
    <path class="c" d="M2373.6,3469.9c-47.8,0-95.2-5.9-142-11.7s-96.9-12-146.1-12-98.5,6.1-146.2,12c-131.3,16.3-267.1,33.2-404.4-80.8-85.9-71.3-137.3-209.8-125-336.9,10.1-104,61.4-187.5,144.8-235.8,2.8-11,5.5-22,8.3-33.1,48.9-193.8,99.4-394.1,229.5-584.9a18,18,0,0,1,29.8,20.3c-126.5,185.5-176.2,382.7-224.3,573.4-3.4,13.6-6.8,27.2-10.3,40.6a17.8,17.8,0,0,1-8.8,11.4c-76.6,41.8-123.9,117-133.1,211.6-11,114,36.1,242.5,112.2,305.7,125.2,103.9,247.5,88.8,376.9,72.7,48.7-6,99.1-12.3,150.6-12.3s101.8,6.3,150.5,12.3c129.4,16.1,251.7,31.2,377-72.7,76-63.2,123.2-191.7,112.1-305.7-9.2-94.6-56.4-169.8-133.1-211.6a17.8,17.8,0,0,1-8.8-11.4c-3.4-13.4-6.8-26.9-10.3-40.5-48-190.7-97.8-388-224.2-573.5a18,18,0,0,1,29.8-20.3c130,190.8,180.6,391.2,229.4,585,2.8,11,5.6,22,8.3,33,83.4,48.3,134.7,131.8,144.8,235.8,12.3,127.1-39.1,265.6-125,336.9C2547.7,3450.7,2459.9,3469.9,2373.6,3469.9Z" transform="translate(-758.5 -513.2)"/>
    <g>
      <path class="e" d="M2561.4,3264.2c25.2-5.4,98.2-14.6,159.5,4,90.5,27.5,112,108.9,54.5,160.8-33.4,30.1-222.7,26.2-271,12.3-24.2-7-74-26.5-59.8-122.8,0,0,13.5-10.7,48.7-29.6A254.1,254.1,0,0,1,2561.4,3264.2Z" transform="translate(-758.5 -513.2)"/>
      <g class="b">
        <path class="c" d="M2807.3,3363c0,23.2-10.5,46.7-31.9,66-33.4,30.1-222.7,26.2-271,12.3-24.2-7-74-26.5-59.9-122.8,0,0,13.6-10.7,48.8-29.6a254.1,254.1,0,0,1,68.1-24.7c5-1.1,11.9-2.3,20.3-3.4-3.2,1.5-59.1,27.9-46.9,84.6C2548.1,3407.7,2718.6,3406.5,2807.3,3363Z" transform="translate(-758.5 -513.2)"/>
      </g>
      <path class="c" d="M2559.5,3255.5c16.6-6.4,33.4-10.1,50.6-12.5a284.6,284.6,0,0,1,104.9,4.6,184.5,184.5,0,0,1,51.5,20.2c16.3,9.6,31.4,22.7,42.5,39.5s17.7,37.4,17,58.2-8.3,40.8-20,56.8c-1.4,2-2.9,3.9-4.5,5.8a64.4,64.4,0,0,1-4.8,5.6c-1.7,1.8-3.3,3.5-5.1,5.2l-2.7,2.5-1.3,1.2-2,1.7c-5.5,4.3-10.5,6.5-15.3,8.6s-9.4,3.4-13.9,4.7c-18.1,4.9-35.3,7-52.5,8.8s-34.3,2.5-51.3,2.9c-34.1.6-67.9,0-102.1-3-8.6-.7-17.1-1.6-25.8-2.9a194.5,194.5,0,0,1-27.1-5.5,118.8,118.8,0,0,1-27.2-11.7,93.1,93.1,0,0,1-23.4-20.5,95.6,95.6,0,0,1-15-26.7,127.2,127.2,0,0,1-6.7-28.4c-2.3-18.9-1.1-37.1,1.4-54.7a18,18,0,1,1,35.7,5h0c-2.2,15.4-3.2,30.8-1.4,45.1s6.1,27.4,14,37.1,18.8,16.2,32.8,20.3a145.8,145.8,0,0,0,21.9,4.5q11.9,1.7,24,2.7a841.7,841.7,0,0,0,98,2.9c16.3-.5,32.6-1.4,48.7-3s31.9-4,46.1-8a90.9,90.9,0,0,0,9.7-3.4,30.7,30.7,0,0,0,6.6-3.6l.3-.3,1-.9,1.8-1.9a44,44,0,0,0,3.7-3.8,30.9,30.9,0,0,0,3.3-3.9,40.1,40.1,0,0,0,3.1-4.1c7.8-11.1,12.2-23.7,12.5-36.3a63.2,63.2,0,0,0-11-36.4c-7.3-11.1-18.1-20.5-30.3-28.1-24.7-15-55.8-21.8-87.3-24.6s-64.1-3-96.6-2.5h-.4a9.1,9.1,0,0,1-9.1-8.9A9.2,9.2,0,0,1,2559.5,3255.5Z" transform="translate(-758.5 -513.2)"/>
      <path class="c" d="M2638.8,3344.2a99.3,99.3,0,0,1,19.7,38.5,104.4,104.4,0,0,1,3.1,22.6v5.9c-.2,2.1-.4,4.2-.7,6.4a53.4,53.4,0,0,1-3.6,13.1,59.5,59.5,0,0,1-16.9,22.2,71.1,71.1,0,0,1-23.2,12.2,76.3,76.3,0,0,1-11.9,2.9,80.3,80.3,0,0,1-11.8,1.3,76.1,76.1,0,0,1-11.7-.1,72.4,72.4,0,0,1-12.1-1.8,17.5,17.5,0,0,1,2.2-34.5l2.1-.2,16.7-1.4a144.6,144.6,0,0,0,16-2.6c10.1-2.5,18.1-5.7,23.2-12.4a32,32,0,0,0,3.6-5.8c.5-1.1.9-2.3,1.4-3.4l1.1-4.2a85.8,85.8,0,0,0,2.5-17.8c.7-12.4-.9-25.5-4-38.5v-.2a2.5,2.5,0,0,1,4.4-2.2Z" transform="translate(-758.5 -513.2)"/>
      <path class="c" d="M2728.5,3340c11,9.3,18.9,21.7,24,35.7a90.5,90.5,0,0,1,4.8,22.2,64.3,64.3,0,0,1-2.7,25,59.1,59.1,0,0,1-14.2,23.4,68.7,68.7,0,0,1-21.9,14.4,102.5,102.5,0,0,1-44.4,7.4,17.7,17.7,0,0,1-2.9-34.9h.1c12.5-2.8,23.8-4.4,33.1-7.9s15.9-7.2,20.5-14.5a42.2,42.2,0,0,0,4.9-13.8,94.9,94.9,0,0,0,1.5-17.2,109.9,109.9,0,0,0-6.8-36.7v-.3a2.6,2.6,0,0,1,1.6-3.3A2.5,2.5,0,0,1,2728.5,3340Z" transform="translate(-758.5 -513.2)"/>
    </g>
    <g>
      <path class="e" d="M1609.5,3264.2c-25.2-5.4-98.2-14.6-159.5,4-90.5,27.5-112,108.9-54.5,160.8,33.4,30.1,222.7,26.2,271,12.3,24.2-7,74-26.5,59.8-122.8,0,0-13.5-10.7-48.7-29.6A254.1,254.1,0,0,0,1609.5,3264.2Z" transform="translate(-758.5 -513.2)"/>
      <g class="b">
        <path class="c" d="M1363.6,3363c0,23.2,10.5,46.7,31.9,66,33.4,30.1,222.7,26.2,271,12.3,24.2-7,74-26.5,59.9-122.8,0,0-13.6-10.7-48.8-29.6a254.1,254.1,0,0,0-68.1-24.7c-5-1.1-11.9-2.3-20.3-3.4,3.2,1.5,59.1,27.9,47,84.6C1622.8,3407.7,1452.3,3406.5,1363.6,3363Z" transform="translate(-758.5 -513.2)"/>
      </g>
      <path class="c" d="M1607.7,3272.9c-32.6-.5-65.2-.4-96.7,2.5s-62.6,9.6-87.3,24.6c-12.2,7.6-22.9,17-30.3,28.1a63.2,63.2,0,0,0-11,36.4c.3,12.6,4.7,25.2,12.5,36.3a40.1,40.1,0,0,0,3.1,4.1,25,25,0,0,0,3.4,3.9,42.7,42.7,0,0,0,3.6,3.8l1.8,1.9,1,.9.3.3a30.7,30.7,0,0,0,6.6,3.6,90.9,90.9,0,0,0,9.7,3.4c14.2,4,30.2,6.3,46.2,8s32.3,2.5,48.6,3a841.7,841.7,0,0,0,98-2.9q12.1-1.1,24-2.7a145.8,145.8,0,0,0,21.9-4.5c14-4.1,25.1-10.6,32.8-20.3s12.3-22.7,14-37.1.8-29.7-1.4-45.1h0a18,18,0,1,1,35.7-5.2h0c2.5,17.6,3.7,35.8,1.4,54.7a121.9,121.9,0,0,1-6.7,28.4,95.6,95.6,0,0,1-15,26.7,91.4,91.4,0,0,1-23.4,20.5,120.1,120.1,0,0,1-27.1,11.7,197.5,197.5,0,0,1-27.1,5.5c-8.7,1.3-17.3,2.2-25.9,2.9-34.2,3-68,3.6-102.1,3-17-.4-34.1-1.3-51.3-2.9s-34.4-3.9-52.5-8.8c-4.5-1.3-9.1-2.8-13.9-4.7s-9.8-4.3-15.3-8.6l-2-1.7-1.3-1.2-2.7-2.5-5.1-5.2c-1.6-1.8-3.3-3.6-4.8-5.6s-3.1-3.8-4.5-5.8c-11.7-16-19.5-36-20-56.8s5.9-41.5,17-58.2,26.2-29.9,42.5-39.5a184.5,184.5,0,0,1,51.5-20.2,284.8,284.8,0,0,1,104.9-4.6c17.2,2.4,34,6.1,50.6,12.5a9,9,0,0,1,5.1,11.6,9.2,9.2,0,0,1-8.5,5.8Z" transform="translate(-758.5 -513.2)"/>
      <path class="c" d="M1536.4,3346.6c-3.1,13-4.7,26.1-4,38.5a93.1,93.1,0,0,0,2.5,17.8l1.1,4.2c.5,1.1.9,2.3,1.4,3.4a32,32,0,0,0,3.6,5.8c5.1,6.7,13.1,9.9,23.2,12.4a148.5,148.5,0,0,0,16,2.6l16.7,1.4,2,.2a17.5,17.5,0,0,1,2.3,34.5,72.4,72.4,0,0,1-12.1,1.8,74.8,74.8,0,0,1-11.6.1,80.2,80.2,0,0,1-11.9-1.3,76.3,76.3,0,0,1-11.9-2.9,71.1,71.1,0,0,1-23.2-12.2,59.5,59.5,0,0,1-16.9-22.2,58.2,58.2,0,0,1-3.6-13.1c-.3-2.2-.5-4.3-.7-6.4v-5.9a104.4,104.4,0,0,1,3.1-22.6c4-14.4,10.4-27.5,19.7-38.5a2.5,2.5,0,0,1,3.6-.3,2.6,2.6,0,0,1,.8,2.5Z" transform="translate(-758.5 -513.2)"/>
      <path class="c" d="M1446.4,3343.1a112.5,112.5,0,0,0-6.8,36.7,94.9,94.9,0,0,0,1.5,17.2,40.1,40.1,0,0,0,5,13.8c4.5,7.3,11,11.1,20.4,14.5s20.6,5.1,33.1,7.9h.1a17.7,17.7,0,0,1-2.9,34.9,102.5,102.5,0,0,1-44.4-7.4,68.7,68.7,0,0,1-21.9-14.4,59.1,59.1,0,0,1-14.2-23.4,64.3,64.3,0,0,1-2.7-25,90.5,90.5,0,0,1,4.8-22.2c5.2-14,13-26.4,24-35.7a2.5,2.5,0,0,1,3.6.3,2.6,2.6,0,0,1,.5,2.5Z" transform="translate(-758.5 -513.2)"/>
    </g>
    <path class="a" d="M1972.2,3002.2s22.8,261,40.4,361.5l-284.8,35.4s-177.8-472.1-100-802.5" transform="translate(-758.5 -513.2)"/>
    <path class="c" d="M1981.1,3001.4c7.4,29.7,12.3,59.7,16.5,89.7,2.1,15,3.9,30.1,5.7,45.1l5.4,45.1,10.7,90,5.2,44.9,5.7,44.4v3.4a17.6,17.6,0,0,1-15.5,17.6L1730,3417h-.2a17.9,17.9,0,0,1-18.9-11.6c-12-32.8-22.5-65.2-32.5-98.2s-19.3-65.9-27.8-99.2c-17.1-66.5-31.3-133.9-42-201.9s-17.4-136.9-18.4-206.1c-.2-34.6.5-69.4,3.8-104a792.3,792.3,0,0,1,16.2-103.5,18,18,0,0,1,35.2,8v.3a771.8,771.8,0,0,0-15.4,98.4c-3.1,33.2-3.8,66.8-3.6,100.3,1,67.1,7.6,134.4,18,201s24.4,133,41.2,198.5q12.6,49.2,27.4,97.8c9.8,32.2,20.3,64.7,31.7,95.9l-19.1-11.5,284.9-35.4-15.6,21.1h0c-1.4-7.5-3.1-15.1-4.3-22.7l-3.7-22.7c-2.4-15.1-4.4-30.3-6.3-45.4-3.8-30.2-7-60.5-9.7-90.7-1.5-15.2-2.7-30.3-3.9-45.5s-2.4-30.2-3.2-45.4c-1.6-30.4-2.4-60.8-.3-91.5a9,9,0,0,1,9.6-8.3A9.2,9.2,0,0,1,1981.1,3001.4Z" transform="translate(-758.5 -513.2)"/>
    <path class="a" d="M2199.2,3002.2s-22.7,261-40.4,361.5l284.9,35.4s177.7-472.1,99.9-802.5" transform="translate(-758.5 -513.2)"/>
    <path class="c" d="M2208,3002.9c2.1,30.7,1.4,61.1-.2,91.5-.9,15.2-2,30.3-3.3,45.4s-2.3,30.3-3.8,45.5c-2.8,30.2-6,60.5-9.8,90.7-1.8,15.1-3.9,30.3-6.3,45.4l-3.7,22.7c-1.2,7.6-2.9,15.2-4.3,22.7h0l-15.5-21.1,284.8,35.4-19.1,11.5c11.4-31.2,21.9-63.7,31.8-95.9s18.9-65,27.3-97.8c16.8-65.5,30.8-131.8,41.2-198.5s17-133.9,18-201c.3-33.5-.5-67.1-3.6-100.3a771.8,771.8,0,0,0-15.4-98.4v-.3a18,18,0,1,1,35.2-8,809.9,809.9,0,0,1,16.3,103.5c3.2,34.6,3.9,69.4,3.7,104-1,69.2-7.9,138.1-18.4,206.1s-24.9,135.4-42,201.9q-12.7,50-27.7,99.2c-10.1,33-20.5,65.4-32.6,98.2a17.7,17.7,0,0,1-18.9,11.6h-.2l-284.8-35.4a17.6,17.6,0,0,1-15.5-17.6v-3.4l5.7-44.4,5.2-44.9,10.7-90,5.5-45.1c1.8-15,3.6-30.1,5.6-45.1,4.2-30,9.1-60,16.5-89.7a9,9,0,0,1,17.7,1.5Z" transform="translate(-758.5 -513.2)"/>
    <path class="d" d="M2206.6,3458.5c46.7,15.4,209.1,35.2,250-8.5,21.2-22.6,28-47.5,22.8-71.5a102,102,0,0,1-16.1,22.7c-41,43.7-203.4,23.9-250.1,8.5-19.7-6.5-44-25.3-47.8-68.2a61.8,61.8,0,0,0-6.5,22.3C2153.4,3425.7,2183.2,3450.8,2206.6,3458.5Z" transform="translate(-758.5 -513.2)"/>
    <path class="e" d="M2230.8,3292.4c38.5-10.1,114.6-23.1,170.7-6.2,93.1,28.2,101.1,128.5,55.1,163.8-55.5,42.7-203.3,23.9-250,8.5-23.4-7.7-53.2-32.8-47.8-94.8,1.3-14.6,8.6-29.1,20.4-42.1" transform="translate(-758.5 -513.2)"/>
    <g class="b">
      <path class="c" d="M2456.6,3450c-55.5,42.7-203.3,24-250,8.6-23.4-7.8-53.2-32.9-47.8-94.9a67.3,67.3,0,0,1,9.3-27.3c2.4,46.3,27.8,66.3,48.3,73,46.6,15.4,194.4,34.2,249.9-8.5a63.7,63.7,0,0,0,17.3-20.5C2485.9,3408.4,2476.1,3435.1,2456.6,3450Z" transform="translate(-758.5 -513.2)"/>
    </g>
    <path class="c" d="M2228.6,3283.8a295.6,295.6,0,0,1,49.3-15.2c8.5-1.9,17-3.4,25.6-4.7s17.3-2,26-2.6c17.5-.9,35.4-.6,53.4,2.3s36.3,8,53.3,17.1a130.9,130.9,0,0,1,44,37.9,121.7,121.7,0,0,1,21.5,54.7c2.5,19.7.4,40.4-8.4,59.3a87.3,87.3,0,0,1-18.3,25.9c-8,7.8-16.9,13-25.7,17.2-17.8,8.3-35.8,12.2-53.4,14.9a360.1,360.1,0,0,1-52.6,3.4,635.8,635.8,0,0,1-103.1-8.7c-8.6-1.4-17.2-3.1-25.9-5.2-4.3-1-8.7-2.2-13.2-3.7a80.7,80.7,0,0,1-14.8-6.4,86.9,86.9,0,0,1-24.6-20.5,94,94,0,0,1-14.9-27.4,121.9,121.9,0,0,1-4.6-57l.5-3.5c.3-1.3.5-2.7.8-4a47.8,47.8,0,0,1,2.3-7.6,65.6,65.6,0,0,1,6.8-13.8,71.2,71.2,0,0,1,20-20.5,9.1,9.1,0,0,1,12.7,2.4,9,9,0,0,1,.6,9.1l-.2.4a130.5,130.5,0,0,0-8.3,20.6,61.4,61.4,0,0,0-1.9,9.7c-.2,1.6-.3,3.1-.4,4.6v5c.4,15.1,1.5,29.8,6.5,42s12.5,21.8,23,27.7a41.7,41.7,0,0,0,8.1,3.6c3.5,1.1,7.1,2.2,10.9,3.2,7.5,2,15.3,3.8,23.2,5.3,31.5,6,64.2,9.4,96.4,9a336.9,336.9,0,0,0,47.4-3.4c15.3-2.4,30.4-6.1,42.8-12.2,6.2-3.1,11.8-6.7,15.7-10.7a50.3,50.3,0,0,0,10.2-15c5.2-11.5,6.9-25.4,5.1-38.8a83.9,83.9,0,0,0-15-37.6,92.9,92.9,0,0,0-31-27.3c-24.8-14.2-56.4-17.9-88.1-18.3s-64.5,2.4-97.2,5.9h-.1a9,9,0,0,1-4.4-17.2Z" transform="translate(-758.5 -513.2)"/>
    <path class="c" d="M2276.3,3364.4c-1.6,10.3-3.2,20.4-4.2,30.2a159.4,159.4,0,0,0-1.1,28.1c.4,8.7,2.4,16.4,4.9,21.5s5,7.8,10,12.4l2.5,2.3a17.4,17.4,0,0,1,.9,24.7,17.2,17.2,0,0,1-17.9,4.8,46.7,46.7,0,0,1-19-11.3,48.2,48.2,0,0,1-12-19.2c-4.8-14.1-3.5-27.3-.8-38.7a123.7,123.7,0,0,1,12.7-31.2,127.6,127.6,0,0,1,19.6-26,2.6,2.6,0,0,1,4.4,2.3Z" transform="translate(-758.5 -513.2)"/>
    <path class="c" d="M2405.6,3362.4a135.5,135.5,0,0,1,16.3,30.8c3.9,11.1,7,22.8,7.5,35.7a83,83,0,0,1-1.6,20.2,56.1,56.1,0,0,1-9.1,20.8,51.5,51.5,0,0,1-18.1,16,53,53,0,0,1-21.6,6.1,17.5,17.5,0,0,1-9-33.1l2.6-1.3c3.6-1.8,6.8-3.3,9.3-4.9a31,31,0,0,0,6.4-5.6c3.8-4.2,7.6-11.5,9.6-20.5s3.1-19.3,3.4-29.8,0-21.5-.4-32.7h0a2.5,2.5,0,0,1,2.5-2.7A2.7,2.7,0,0,1,2405.6,3362.4Z" transform="translate(-758.5 -513.2)"/>
    <path class="d" d="M1964.1,3458.5c-46.7,15.4-209.1,35.2-250-8.5-21.1-22.6-27.9-47.5-22.8-71.5a102.6,102.6,0,0,0,16.2,22.7c41,43.7,203.3,23.9,250,8.5,19.8-6.5,44-25.3,47.9-68.2a63.8,63.8,0,0,1,6.5,22.3C2017.4,3425.7,1987.6,3450.8,1964.1,3458.5Z" transform="translate(-758.5 -513.2)"/>
    <path class="e" d="M1939.9,3292.4c-38.5-10.1-114.5-23.1-170.6-6.2-93.1,28.2-101.1,128.5-55.2,163.8,55.6,42.7,203.4,23.9,250,8.5,23.5-7.7,53.3-32.8,47.8-94.8-1.3-14.6-8.5-29.1-20.3-42.1" transform="translate(-758.5 -513.2)"/>
    <g class="b">
      <path class="c" d="M1714.1,3450c55.6,42.7,203.4,24,250,8.6,23.5-7.8,53.3-32.9,47.8-94.9a64.4,64.4,0,0,0-9.3-27.3c-2.4,46.3-27.7,66.3-48.2,73-46.7,15.4-194.4,34.2-250-8.5a63.5,63.5,0,0,1-17.2-20.5C1684.9,3408.4,1694.6,3435.1,1714.1,3450Z" transform="translate(-758.5 -513.2)"/>
    </g>
    <path class="c" d="M1937.7,3300.9c-32.8-3.5-65.4-6.2-97.2-5.9s-63.3,4.1-88.1,18.3a93.2,93.2,0,0,0-31.1,27.3,83.7,83.7,0,0,0-14.9,37.6c-1.8,13.4-.1,27.3,5.1,38.8a48.5,48.5,0,0,0,10.2,15c3.9,4,9.5,7.6,15.7,10.7,12.4,6.1,27.4,9.8,42.8,12.2a335.8,335.8,0,0,0,47.4,3.4c32.1.4,64.8-3,96.4-9,7.9-1.5,15.7-3.3,23.2-5.3,3.8-1,7.4-2.1,10.8-3.2a40,40,0,0,0,8.2-3.6c10.4-5.9,18.2-15.5,23-27.7s6.1-26.9,6.4-42a41.4,41.4,0,0,0,0-5,36.7,36.7,0,0,0-.3-4.6,75.2,75.2,0,0,0-1.9-9.7,131.5,131.5,0,0,0-8.4-20.6l-.2-.3a9.3,9.3,0,0,1,4.2-12.3,9,9,0,0,1,9.1.7A69.8,69.8,0,0,1,2025,3350a47.8,47.8,0,0,1,2.3,7.6c.3,1.3.5,2.7.7,4l.6,3.5a123.2,123.2,0,0,1-4.6,57,94.3,94.3,0,0,1-15,27.4,85.1,85.1,0,0,1-24.5,20.5,80.7,80.7,0,0,1-14.8,6.4c-4.5,1.5-8.9,2.7-13.3,3.7-8.7,2.1-17.2,3.8-25.8,5.2a636,636,0,0,1-103.2,8.7,358.7,358.7,0,0,1-52.5-3.4c-17.7-2.7-35.6-6.6-53.4-14.9-8.8-4.2-17.7-9.4-25.7-17.2a87.3,87.3,0,0,1-18.3-25.9c-8.8-18.9-10.9-39.6-8.5-59.3a121.9,121.9,0,0,1,21.6-54.7,129.9,129.9,0,0,1,44-37.9c17-9.1,35.4-14.3,53.3-17.1s35.8-3.2,53.3-2.3c8.8.6,17.5,1.4,26.1,2.6s17.1,2.8,25.5,4.7a293.8,293.8,0,0,1,49.4,15.2,9,9,0,0,1-4.4,17.2Z" transform="translate(-758.5 -513.2)"/>
    <path class="c" d="M1898.9,3362a127.2,127.2,0,0,1,19.5,26,120.3,120.3,0,0,1,12.8,31.2c2.7,11.4,4,24.6-.8,38.7a48.5,48.5,0,0,1-12.1,19.2,46.4,46.4,0,0,1-18.9,11.3,17.4,17.4,0,0,1-21.8-11.5,17.2,17.2,0,0,1,4.8-17.9l2.5-2.4c5-4.6,7.5-7.2,10-12.4a59,59,0,0,0,4.8-21.5c.6-8.7,0-18.3-1-28.1s-2.6-19.9-4.2-30.2h0a2.6,2.6,0,0,1,2.2-3A2.9,2.9,0,0,1,1898.9,3362Z" transform="translate(-758.5 -513.2)"/>
    <path class="c" d="M1769.9,3364.1c-.5,11.2-.8,22.2-.5,32.7s1.3,20.8,3.4,29.8,5.8,16.3,9.7,20.5a28.6,28.6,0,0,0,6.4,5.6c2.5,1.6,5.6,3.1,9.2,4.9l2.6,1.3a17.4,17.4,0,0,1,7.9,23.4,17.6,17.6,0,0,1-16.9,9.7,53.4,53.4,0,0,1-21.6-6.1,52.4,52.4,0,0,1-18.1-16,55.8,55.8,0,0,1-9-20.8,78.3,78.3,0,0,1-1.6-20.2c.4-12.9,3.5-24.6,7.5-35.7a131.7,131.7,0,0,1,16.3-30.8,2.5,2.5,0,0,1,3.6-.6,2.7,2.7,0,0,1,1.1,2.2Z" transform="translate(-758.5 -513.2)"/>
    <path class="f" d="M2520.7,2518.9c-137.3,219.7-353,395.7-434.2,395.7s-296.8-176-434.1-395.7c-6.6-29.6-1-53.3,25.5-82.1-17.8-106.2,62.7-86.7,62.7-86.7s187.5,133.3,345.9,133.3,345.9-133.3,345.9-133.3,80.6-19.5,62.7,86.7C2521.6,2465.6,2527.2,2489.3,2520.7,2518.9Z" transform="translate(-758.5 -513.2)"/>
    <path class="g" d="M2520.7,2518.9c-137.3,219.7-353,395.7-434.2,395.7s-296.8-176-434.1-395.7c-6-27.2-1.8-49.6,19.7-75.4,1.8-2.2,3.7-4.4,5.8-6.7-17.8-106.2,62.8-86.7,62.8-86.7s187.4,133.3,345.8,133.3,345.9-133.3,345.9-133.3,74.2-17.9,64.4,74.5c-.4,3.8-1,7.9-1.7,12.2C2521.6,2465.6,2527.2,2489.4,2520.7,2518.9Z" transform="translate(-758.5 -513.2)"/>
    <g class="b">
      <path class="c" d="M2520.7,2518.9c-137.3,219.7-353,395.7-434.2,395.7s-296.8-176-434.1-395.7c-6-27.2-1.8-49.6,19.7-75.4,18.5,17,40.3,37.7,60.1,58,25,25.7,142.5,117.6,138.6,117.6s-121.8-70.6-83.4,3.7,176.4,203.4,274.2,219.1,310.7-158.6,324-217.2-106,7-106,7,174.6-141.2,217.2-207.1c-.4,3.8-1,7.9-1.7,12.2C2521.6,2465.6,2527.2,2489.4,2520.7,2518.9Z" transform="translate(-758.5 -513.2)"/>
    </g>
    <g class="b">
      <path class="c" d="M2497.6,2405c-58.4-48.4-234,153.4-405.2,162.3-132.9,6.9-305.1-124.1-364.1-148.7-37.6-15.6-48.8-3.8-52,6.8-10.3-93.3,64.4-75.3,64.4-75.3s187.4,133.3,345.8,133.3,345.9-133.3,345.9-133.3S2495.5,2334.9,2497.6,2405Z" transform="translate(-758.5 -513.2)"/>
    </g>
    <path class="c" d="M2086.5,2932.7c-89.2,0-309.5-180.3-449.4-404.3a18.6,18.6,0,0,1-2.4-5.6c-7.6-34.6-.4-62.5,24.2-91.6-4.9-38.1,1.9-66.1,20.5-83.4,26.1-24.4,63.9-15.6,65.5-15.3a18.5,18.5,0,0,1,6.2,2.9c1.8,1.3,184.7,130,335.4,130s333.6-128.7,335.4-130a18.5,18.5,0,0,1,6.2-2.9c1.6-.3,39.4-9.1,65.5,15.3,18.6,17.3,25.5,45.3,20.6,83.4,24.5,29.1,31.7,57,24.1,91.6a21.3,21.3,0,0,1-2.3,5.6C2396.1,2752.4,2175.7,2932.7,2086.5,2932.7ZM1669.4,2512c138,219.7,347.8,384.6,417.1,384.6s279.1-164.9,417.2-384.6c3.9-20.1,1.1-38.1-21.9-63a18,18,0,0,1-4.5-15.2c4.9-29.2,2.1-49.8-8.1-59.5s-23.6-8-29.8-7.2c-27.2,18.8-200.5,134.3-352.9,134.3s-325.8-115.5-352.9-134.3c-6.1-.7-20.6-1.5-29.7,7.2s-13.1,30.3-8.2,59.5a18,18,0,0,1-4.5,15.2C1668.3,2473.9,1665.5,2491.9,1669.4,2512Zm851.3,6.9Z" transform="translate(-758.5 -513.2)"/>
    <g>
      <g>
        <path class="a" d="M2034.9,890.5l338.4,143.3,458.1,194c99-128.3,162.8-509.9,69.9-645.8-28.1-41-70.4-59.6-130.4-42C2620.1,584.1,2378.8,831.8,2034.9,890.5Z" transform="translate(-758.5 -513.2)"/>
        <g class="h">
          <path class="i" d="M2034.9,890.5l60.8,25.8c315.3-73.7,539.1-297.9,681.9-339.6,60-17.6,102.3,1,130.4,42,14.6,21.4,25.4,49,32.7,80.7-6.6-47.2-19.4-88-39.4-117.4-28.1-41-70.4-59.6-130.4-42C2620.1,584.1,2378.8,831.8,2034.9,890.5Z" transform="translate(-758.5 -513.2)"/>
        </g>
        <g class="b">
          <path class="c" d="M2373.3,1033.8l458.1,194c99-128.3,162.8-509.9,69.9-645.8-20.6-7.9-46.1-6.5-76.4,15.6C2747.4,654,2559.6,959,2373.3,1033.8Z" transform="translate(-758.5 -513.2)"/>
        </g>
        <path class="c" d="M2831.4,1248a20.2,20.2,0,0,1-16-32.5c45.7-59.2,86-180.9,102.9-310.3,17.9-138,5.4-254.5-33.6-311.7-25.2-36.9-60.6-48.1-108.1-34.2-52,15.2-118.5,58-195.6,107.5-142.4,91.6-319.7,205.5-542.7,243.6a20.2,20.2,0,1,1-6.8-39.8c214.9-36.7,388.4-148.1,527.7-237.7,79.7-51.2,148.5-95.4,206.1-112.3,64.6-18.9,117.4-1.5,152.7,50.2,45.1,66,59.8,189.8,40.3,339.7-18,137.9-60.5,264.3-110.9,329.6A20.2,20.2,0,0,1,2831.4,1248Z" transform="translate(-758.5 -513.2)"/>
        <path class="e" d="M2815,1157.9h0a172.2,172.2,0,0,1-17,25.6L2475.1,867.4c193-126.5,322.2-248.9,360.9-231,6.1,2.8,12.3,10.5,18,22.6,15.5,32.5,28.1,97.4,27.6,188.6C2881,957.4,2853.8,1088,2815,1157.9Z" transform="translate(-758.5 -513.2)"/>
        <g class="b">
          <path class="c" d="M2815,1157.9h0a172.2,172.2,0,0,1-17,25.6L2475.1,867.4c193-126.5,322.2-248.9,360.9-231,6.1,2.8,12.3,10.5,18,22.6-14.4,6.3-34.2,21.8-61.1,53.8-84.9,100.8-87.7,207.7-53.2,308C2749.7,1049.8,2784.5,1108.7,2815,1157.9Z" transform="translate(-758.5 -513.2)"/>
        </g>
        <path class="c" d="M2798,1201a16.8,16.8,0,0,1-12.2-5L2462.9,880a17.5,17.5,0,0,1,2.7-27.2c70.6-46.3,131.4-91.1,185-130.7,113-83.4,160.2-116.6,192.8-101.5,34.5,15.9,56.3,105.1,55.7,227.1-.6,118.6-33.6,280.8-87.6,346.9a17.4,17.4,0,0,1-12.5,6.4ZM2502.9,870.1l292.6,286.5c38.1-62.3,68-193.8,68.6-309.1.7-131.8-26.1-190-35.5-195.2-.8-.3-10.1-2.6-47.9,20.7-28.6,17.7-66,45.3-109.3,77.3C2624.4,784.9,2567,827.3,2502.9,870.1Z" transform="translate(-758.5 -513.2)"/>
        <path class="c" d="M2618.2,1024.9a17.5,17.5,0,0,1-12.3-4.9l-143-140.1a17.4,17.4,0,0,1,2.6-27.1c54-35.4,103-70.5,139.5-97.2a17.7,17.7,0,0,1,6.9-3c36.6-7.4,63.3-2.2,79.4,15.4,13.6,15,15.3,30,14.3,39.9-1.6,15.5-10.5,28.8-20.3,39.3,17.7,6,35.2,16.2,44.2,33.2,6,11.6,10.3,31-3.7,57.6h-.1c-12.4,23.6-67.4,64-97.9,84.1A17.8,17.8,0,0,1,2618.2,1024.9ZM2502.8,870.1,2620.2,985c39.1-26.9,69.5-53.6,74.6-63.3s6.8-19,3.7-25c-5.6-10.7-25.7-19.3-52.3-22.6l-2.4-.3a17.7,17.7,0,0,1-13.7-13.5c-2.5-11.4,5.9-17.4,10.4-20.7,19.1-13.9,29.3-25.8,30.3-35.3.2-2.6,0-6.8-5.4-12.7s-21.8-9.2-42.9-5.4C2590.1,809.8,2548.7,839.5,2502.8,870.1Zm207.5,59.8Z" transform="translate(-758.5 -513.2)"/>
      </g>
      <g>
        <path class="a" d="M2136,890.5l-338.5,143.3-458,194c-99-128.3-162.8-509.9-69.9-645.8,28.1-41,70.4-59.6,130.3-42C1550.8,584.1,1792,831.8,2136,890.5Z" transform="translate(-758.5 -513.2)"/>
        <g class="h">
          <path class="i" d="M2136,890.5l-60.8,25.8c-315.3-73.7-539.1-297.9-682-339.6-59.9-17.6-102.2,1-130.3,42-14.6,21.4-25.4,49-32.8,80.7,6.7-47.2,19.4-88,39.5-117.4,28.1-41,70.4-59.6,130.3-42C1550.8,584.1,1792,831.8,2136,890.5Z" transform="translate(-758.5 -513.2)"/>
        </g>
        <g class="b">
          <path class="c" d="M1797.5,1033.8l-458,194c-99-128.3-162.8-509.9-69.9-645.8,20.6-7.9,46.1-6.5,76.4,15.6C1423.4,654,1611.3,959,1797.5,1033.8Z" transform="translate(-758.5 -513.2)"/>
        </g>
        <path class="c" d="M1339.5,1248a20.2,20.2,0,0,1-16-7.9c-50.4-65.3-92.9-191.7-110.9-329.6-19.5-149.9-4.8-273.7,40.3-339.7,35.3-51.7,88.1-69.1,152.7-50.2,57.6,16.9,126.4,61.1,206.1,112.3,139.3,89.6,312.7,201,527.7,237.7a20.2,20.2,0,0,1-6.8,39.8c-223-38.1-400.3-152-542.8-243.6-77-49.5-143.5-92.3-195.6-107.5-47.4-13.9-82.8-2.7-108,34.2-39,57.2-51.6,173.7-33.6,311.7,16.8,129.4,57.2,251.1,102.9,310.3a20.2,20.2,0,0,1-16,32.5Z" transform="translate(-758.5 -513.2)"/>
        <path class="e" d="M1355.8,1157.9h0a172.3,172.3,0,0,0,17.1,25.6l322.8-316.1c-192.9-126.5-322.1-248.9-360.9-231-6,2.8-12.2,10.5-18,22.6-15.5,32.5-28,97.4-27.5,188.6C1289.8,957.4,1317,1088,1355.8,1157.9Z" transform="translate(-758.5 -513.2)"/>
        <g class="b">
          <path class="c" d="M1355.8,1157.9h0a172.3,172.3,0,0,0,17.1,25.6l322.8-316.1c-192.9-126.5-322.1-248.9-360.9-231-6,2.8-12.2,10.5-18,22.6,14.5,6.3,34.2,21.8,61.2,53.8,84.8,100.8,87.6,207.7,53.2,308C1421.2,1049.8,1386.4,1108.7,1355.8,1157.9Z" transform="translate(-758.5 -513.2)"/>
        </g>
        <path class="c" d="M1372.9,1201h-1a17.7,17.7,0,0,1-12.6-6.4c-54-66.1-86.9-228.3-87.5-346.9-.7-122,21.2-211.2,55.7-227.1,32.6-15.1,79.7,18.1,192.8,101.5,53.6,39.6,114.4,84.4,185,130.7a17.6,17.6,0,0,1,7.8,13A18,18,0,0,1,1708,880l-322.9,316A17.2,17.2,0,0,1,1372.9,1201Zm-29-548.9a11.1,11.1,0,0,0-1.8.2c-9.2,5.2-36,63.4-35.3,195.2.6,115.3,30.4,246.8,68.5,309.1L1668,870.1c-64.1-42.8-121.6-85.2-168.5-119.8-43.3-32-80.8-59.6-109.4-77.3S1348.1,652.1,1343.9,652.1Z" transform="translate(-758.5 -513.2)"/>
        <path class="c" d="M1552.7,1024.9a17.6,17.6,0,0,1-9.6-2.8c-30.5-20.1-85.5-60.5-98-84.1h0c-14-26.6-9.7-46-3.7-57.6,8.9-17,26.5-27.2,44.1-33.2-9.7-10.5-18.6-23.8-20.2-39.3-1-9.9.6-24.9,14.3-39.8,16-17.7,42.7-22.9,79.4-15.5a17.3,17.3,0,0,1,6.8,3c36.6,26.7,85.6,61.8,139.5,97.2a17.7,17.7,0,0,1,7.9,12.9,17.5,17.5,0,0,1-5.2,14.2L1565,1020A17.9,17.9,0,0,1,1552.7,1024.9Zm-76.6-103.2c5.1,9.7,35.5,36.4,74.6,63.3L1668,870.1c-45.9-30.6-87.3-60.3-119.6-83.9-21.2-3.8-36.3-1.9-43,5.4s-5.6,10.1-5.3,12.7c1,9.5,11.2,21.4,30.3,35.3,4.5,3.3,12.8,9.3,10.3,20.7a17.6,17.6,0,0,1-13.7,13.5l-2.3.3c-26.7,3.3-46.7,11.9-52.3,22.6C1469.3,902.7,1470.5,911.1,1476.1,921.7Z" transform="translate(-758.5 -513.2)"/>
      </g>
      <path class="a" d="M2990.5,2056.1c-209.8,338.5-771.8,348.3-905.1,348.3s-695.3-9.8-905-348.3c-86.7-139.8-62.4-254.9-28.3-324.9,19.5-40.2,42.2-65.6,48.9-72.2,29.3-172.6,65.6-951.8,884.4-951.8s855.1,779.2,884.4,951.8c6.8,6.6,29.5,32,49,72.2C3052.8,1801.2,3077.2,1916.3,2990.5,2056.1Z" transform="translate(-758.5 -513.2)"/>
      <g class="h">
        <path class="i" d="M2899.8,1302.9c-100-265.7-316.4-546-814.4-546s-714.8,280.9-814.6,546.8c85.9-275.6,289.1-596.5,814.6-596.5S2813.7,1027.5,2899.8,1302.9Z" transform="translate(-758.5 -513.2)"/>
      </g>
      <path class="e" d="M1632.6,1199.9c-6-34.4,96.1-143.4,157.7-113.5s52,103.2,14.7,123.4C1750.8,1239.1,1638.7,1234.2,1632.6,1199.9Z" transform="translate(-758.5 -513.2)"/>
      <path class="e" d="M2538.2,1199.9c6.1-34.4-96-143.4-157.6-113.5s-52,103.2-14.7,123.4C2420,1239.1,2532.2,1234.2,2538.2,1199.9Z" transform="translate(-758.5 -513.2)"/>
      <path class="e" d="M2990.5,2056.1c-209.7,338.4-771.6,348.3-905,348.3h-.1c-133.4,0-695.2-9.9-904.9-348.3-86.7-139.8-62.4-254.9-28.4-324.8,73.7-91,203.5-177.7,403-86.5,67.6,30.9,110.5,94.8,224,66.5,60.2-15,144.6-130.9,306.3-130.9h.1c161.7,0,246.1,115.9,306.4,130.9,113.5,28.3,156.4-35.6,224-66.5,199.5-91.2,329.2-4.5,402.9,86.5C3052.8,1801.2,3077.2,1916.3,2990.5,2056.1Z" transform="translate(-758.5 -513.2)"/>
      <g class="b">
        <path class="c" d="M2990.6,2016.2c-209.8,338.4-771.8,348.2-905.1,348.2s-695.3-9.8-905-348.2c-54.6-88.1-65.2-166.4-57-229.7,5.8,46.3,22.8,97.6,57,152.7,209.7,338.5,771.8,348.3,905,348.3s695.3-9.8,905.1-348.3c34.2-55.1,51.1-106.4,57-152.7C3055.7,1849.8,3045.1,1928.1,2990.6,2016.2Z" transform="translate(-758.5 -513.2)"/>
      </g>
      <polygon class="j" points="1336.5 1296.6 1334.1 1297 1334.1 1296.3 1336.5 1296.6"/>
      <polygon class="j" points="1338.8 1296.3 1338.8 1297 1336.5 1296.6 1338.8 1296.3"/>
      <path class="c" d="M1506.1,895.3a673.4,673.4,0,0,1,124.8-95.7A731,731,0,0,1,1774.6,734c50-16.9,101.7-28.2,153.8-35.9s104.6-10.5,157-11A1180.4,1180.4,0,0,1,2242.5,698c52,7.7,103.8,19,153.8,35.9A731,731,0,0,1,2540,799.5c45.2,27.1,87.4,59.1,124.8,95.8a9.9,9.9,0,0,1-13.2,14.8h-.1c-39.4-32.2-81.5-60.8-126.2-84.4s-91.6-42.8-139.9-57.5A912.1,912.1,0,0,0,2237.2,737a1183.1,1183.1,0,0,0-151.8-9.6,1199.8,1199.8,0,0,0-151.7,9.5A922.8,922.8,0,0,0,1785.5,768c-48.3,14.7-95.4,33.6-140,57.5s-86.8,52.2-126.1,84.5h-.1a10.1,10.1,0,0,1-14-1.4A9.9,9.9,0,0,1,1506.1,895.3Z" transform="translate(-758.5 -513.2)"/>
      <path class="c" d="M1949,2409.9c-109.1-3.7-218.3-17.5-325-44.3-53.3-13.7-106-30.7-156.9-52.5s-100.3-48.2-146-80.4-87.9-70.4-123.2-114.5-64.3-93.8-81.9-148.8-22.1-114.9-9.3-171.7a302.7,302.7,0,0,1,12.1-41.8,333.8,333.8,0,0,1,17.4-39.7,342.9,342.9,0,0,1,22.4-37.2c4.2-5.9,8.5-11.7,13.1-17.4a208.6,208.6,0,0,1,15.2-16.9h0l-5.7,10.9c1.9-13.1,3.4-26.8,5.2-40.5l5.1-41.2c3.5-27.5,7.5-55.2,12.3-82.7a1447.4,1447.4,0,0,1,37.4-163.8c8-26.9,16.7-53.7,26.6-80s20.5-52.4,32.5-77.9c23.9-51,53.5-99.7,90.5-142.2a10,10,0,0,1,16.4,11.2h0c-12.6,24.5-25.2,48.6-37.1,73s-23.1,49.1-33.7,74c-21.7,49.7-38.8,101.4-53.6,153.7s-26.1,105.7-35.7,159.5q-7,40.4-13.2,81.1c-4.2,27.2-7.7,54.3-13,82.5v.4a20.3,20.3,0,0,1-5.6,10.5h0a169.4,169.4,0,0,0-11.7,13.7c-3.8,4.9-7.4,10.1-11,15.3a316.4,316.4,0,0,0-19.1,32.9,276,276,0,0,0-14.8,35,258.7,258.7,0,0,0-10.1,36.4c-10.3,49.4-7,101.2,8.8,149.7s42.2,94.2,74.1,135.2,70.9,76.8,113.6,107.5c85.7,61.4,185.4,103.1,288.1,132.7a1487.4,1487.4,0,0,0,156.9,36.3c26.5,4.5,53.1,9,79.8,12.6s53.5,6.7,80.4,9.5h0a9.9,9.9,0,0,1-1.3,19.8Z" transform="translate(-758.5 -513.2)"/>
      <path class="c" d="M2780,1027.3c37.5,42.2,67,91,90.7,142.1s43.2,104.1,59,158c8,26.9,14.9,54.1,21.1,81.5s11.7,54.7,16.3,82.3,8.8,55.2,12.3,82.7,6.6,55.3,10.3,81.7l-5.7-10.9h0c5.8,5.8,10.4,11.1,15.1,16.8s8.9,11.5,13.1,17.4a354.6,354.6,0,0,1,22.3,36.9,337.6,337.6,0,0,1,17.3,39.5,300.4,300.4,0,0,1,12.2,41.6c12.9,56.5,8.7,116.5-8.7,171a428,428,0,0,1-33.7,78.3,520.3,520.3,0,0,1-47.1,70.1c-35,44.1-76.8,82.3-122.1,114.6s-94.3,59-145.1,80.6-103,39-155.9,52.9c-106.2,27.1-214.8,41.1-323.4,45.1a9.9,9.9,0,0,1-1.4-19.8h0c26.8-2.9,53.4-6.1,80-9.8s53.1-8.1,79.4-12.8a1474.1,1474.1,0,0,0,156.1-36.6c102.2-29.5,201.1-71.9,286.1-133.2,42.3-30.8,80.7-66.7,112.5-107.6s57.9-86.4,73.2-134.8a290.3,290.3,0,0,0,8.2-149,266.1,266.1,0,0,0-10.1-36.2,288.5,288.5,0,0,0-14.8-34.8,312.7,312.7,0,0,0-19-32.7c-3.6-5.2-7.2-10.4-11-15.3s-7.9-9.8-11.6-13.6h0a20,20,0,0,1-5.6-10.6v-.3c-5.2-28.2-8.8-55.3-13-82.5s-8.4-54.2-13.2-81.1-10.1-53.7-16-80.3-12.5-53-19.7-79.2c-14.9-52.3-32-103.9-53.7-153.6-10.8-24.8-22-49.5-33.8-73.9s-24.4-48.6-36.8-73.2v-.2a10,10,0,0,1,16.4-11.1Z" transform="translate(-758.5 -513.2)"/>
      <ellipse class="k" cx="634.1" cy="1338.4" rx="194.4" ry="139.2"/>
      <ellipse class="k" cx="2017.3" cy="1338.4" rx="194.4" ry="139.2"/>
      <polygon class="j" points="1336.5 1245.8 1334.1 1246.1 1334.1 1245.4 1336.5 1245.8"/>
      <polygon class="j" points="1338.9 1245.4 1338.9 1246.1 1336.5 1245.8 1338.9 1245.4"/>
      <path class="c" d="M2228.7,1781c0,30.2-40.1,175.5-143.1,175.5S1942,1811.2,1942,1781l143.6-49.6Z" transform="translate(-758.5 -513.2)"/>
      <path class="c" d="M2085.6,1976.7c-121.1,0-163.8-161.2-163.8-195.7a20.3,20.3,0,0,1,13.6-19.1l143.6-49.6a20.6,20.6,0,0,1,13.2,0l143.1,49.6a20.3,20.3,0,0,1,13.6,19.1C2248.9,1815.5,2206.3,1976.7,2085.6,1976.7Zm-121.6-182c8.3,40.8,45.1,141.6,121.6,141.6s112.9-100.8,121.1-141.6l-121.2-42Z" transform="translate(-758.5 -513.2)"/>
      <path class="e" d="M2248.2,1753.9s17.5,50.8-28.3,76.8c-44.1,25-96-7.5-120.4-26.5a36.5,36.5,0,0,1-14-28.7v0a36.2,36.2,0,0,1-14,28.7c-24.4,19-76.3,51.5-120.4,26.5-45.8-26-28.3-76.8-28.3-76.8s10.9-135.9,162.8-135.9S2248.2,1753.9,2248.2,1753.9Z" transform="translate(-758.5 -513.2)"/>
      <g class="b">
        <path class="c" d="M2219.9,1830.7c-44.1,25-96-7.5-120.3-26.5a36.3,36.3,0,0,1-14.1-28.7,36.2,36.2,0,0,1-14,28.7c-24.4,19-76.3,51.5-120.4,26.5-45.8-26-28.3-76.8-28.3-76.8a116.1,116.1,0,0,1,2-12.4c4.5,10.2,12.6,20.3,26.3,28.1,44.1,25.1,96-7.4,120.4-26.4a36.3,36.3,0,0,0,14-28.8,36.4,36.4,0,0,0,14.1,28.8c24.3,19,76.2,51.5,120.3,26.4,13.8-7.8,21.9-17.9,26.4-28.1a98.6,98.6,0,0,1,1.9,12.4S2265.7,1804.7,2219.9,1830.7Z" transform="translate(-758.5 -513.2)"/>
      </g>
      <path class="c" d="M2257.6,1750.6a72.6,72.6,0,0,1,4.7,10.5,66.1,66.1,0,0,1,2.9,10.8,71.8,71.8,0,0,1,.7,23.2,65.2,65.2,0,0,1-7.4,23.4,58.2,58.2,0,0,1-7,10.5c-1.3,1.7-2.6,3.3-4,4.9l-4.5,4.2a88.1,88.1,0,0,1-43.6,20.7c-16.1,2.8-32,1.1-46.3-2.8a174.9,174.9,0,0,1-39.9-16.7,188.1,188.1,0,0,1-17.7-11.1l-8.5-6.1-1.1-.8-1.4-1.2-2.9-2.5c-1.8-1.8-3.5-3.6-5.2-5.6a58.6,58.6,0,0,1-12.2-27.5,65.3,65.3,0,0,1-.8-7.6v-52.8a22.3,22.3,0,1,1,44.6-.1h0v52.8a48.8,48.8,0,0,1-.7,7.6,58.7,58.7,0,0,1-12.3,27.5,54.8,54.8,0,0,1-5.2,5.6l-2.8,2.5-1.5,1.2-1.1.8c-2.8,2.1-5.6,4.2-8.4,6.1a189.7,189.7,0,0,1-17.8,11.1A172.3,172.3,0,0,1,2018,1856c-14.3,3.9-30.3,5.7-46.4,2.9a88.9,88.9,0,0,1-43.6-20.7l-4.5-4.3c-1.4-1.5-2.8-3.2-4.1-4.8a66.1,66.1,0,0,1-14.4-34,69.1,69.1,0,0,1,.7-23.2,78.3,78.3,0,0,1,3-10.8,72.6,72.6,0,0,1,4.7-10.5,10,10,0,0,1,13.6-3.8,10.3,10.3,0,0,1,5.1,8.1v2.2l.4,8c.3,2.8.5,5.5,1,8.1a63.7,63.7,0,0,0,3.9,14.6c3.4,8.9,8.8,15.2,15.7,20.5a54.3,54.3,0,0,0,24.7,10.5c8.9,1.3,18.8.1,28.7-3a133.6,133.6,0,0,0,29.7-13.6c4.8-2.9,9.5-6.1,14.2-9.5,2.3-1.6,4.6-3.4,6.8-5.1l.8-.7.4-.3.7-.6,1.2-1.4a14.5,14.5,0,0,0,2.8-6.9,11.1,11.1,0,0,0,.2-1.9v-51.7h44.6v51.7a11.1,11.1,0,0,0,.2,1.9,14.5,14.5,0,0,0,2.8,6.9l1.2,1.4.7.6.4.4.8.6c2.2,1.7,4.5,3.5,6.9,5.1,4.6,3.4,9.3,6.6,14.1,9.5a133.6,133.6,0,0,0,29.7,13.6c9.9,3.1,19.8,4.3,28.8,3s17.4-5,24.7-10.4a45.4,45.4,0,0,0,15.8-20.6,63.7,63.7,0,0,0,3.9-14.6c.4-2.6.6-5.3.9-8.1l.3-8,.2-2.1a9.9,9.9,0,0,1,10.4-9.5A10,10,0,0,1,2257.6,1750.6Z" transform="translate(-758.5 -513.2)"/>
      <path class="c" d="M2200.6,1633.8c-21.8,60.9-115,95.2-115,95.2s-93.3-34.3-115-95.2c-15.6-43.6,94.1-50.7,115-50.7S2216.1,1590.2,2200.6,1633.8Z" transform="translate(-758.5 -513.2)"/>
      <g class="h">
        <path class="i" d="M2133.3,1610.8c-9,15.4-47.7,15.1-47.7,15.1s-38.7.3-47.7-15.1c-6.4-11,39.1-12.8,47.7-12.8S2139.7,1599.8,2133.3,1610.8Z" transform="translate(-758.5 -513.2)"/>
      </g>
      <path class="l" d="M2085.6,2040.4c-35.6,0-114.6-8.8-107.9-158.3,0,0,82.1-20.1,107.8-.1,25.7-20,107.7.1,107.7.1C2200,2031.6,2121.2,2040.4,2085.6,2040.4Z" transform="translate(-758.5 -513.2)"/>
      <g class="h">
        <path class="i" d="M2085.6,2040.4c-35.6,0-114.4-8.8-107.9-157.8,5.9,117,75.2,124.5,107.9,124.5s101.7-7.5,107.6-124.4C2199.7,2031.7,2121.2,2040.4,2085.6,2040.4Z" transform="translate(-758.5 -513.2)"/>
      </g>
      <path class="c" d="M2085.6,2055.3c-13.5,0-54.5,0-85.4-32.3-27.7-29-40.3-76.7-37.3-141.6a14.9,14.9,0,0,1,11.3-13.8c13.5-3.3,77.4-17.7,111.3-2.7,33.9-14.9,97.7-.6,111.2,2.7a14.9,14.9,0,0,1,11.3,13.8c3,65-9.5,112.6-37.2,141.6C2139.9,2055.3,2099,2055.3,2085.6,2055.3Zm-93.4-161.2c-.8,50.6,9.1,87,29.5,108.3s46,23.2,63.9,23.2,43.9-2.4,63.7-23.1,30.2-57.8,29.4-108.4c-30.4-6.1-72-9.8-84.1-.4a14.9,14.9,0,0,1-18.3,0C2064.2,1884.3,2022.6,1888,1992.2,1894.1Z" transform="translate(-758.5 -513.2)"/>
      <path class="c" d="M2124.7,1888.3s-27.3-1.6-39.4,57.6c-12-59.2-39.3-57.6-39.3-57.6l39.3-29.5Z" transform="translate(-758.5 -513.2)"/>
      <g>
        <g>
          <path class="c" d="M1761.9,1352.2c-82.1-16.3-164.9,59.2-185,168.5s30.1,211.2,112.1,227.5,164.8-59.2,185-168.5S1843.9,1368.5,1761.9,1352.2Z" transform="translate(-758.5 -513.2)"/>
          <path class="i" d="M1752.4,1397.9c-27.1,7.4-41.4,43.9-31.8,81.4s39.2,62,66.3,54.6,41.4-43.8,31.9-81.4S1779.6,1390.5,1752.4,1397.9Z" transform="translate(-758.5 -513.2)"/>
          <path class="m" d="M1645.3,1626.4c-13.2,7.2-16.3,27.8-7.1,46s27.5,27,40.6,19.8,16.3-27.8,7-45.9S1658.4,1619.2,1645.3,1626.4Z" transform="translate(-758.5 -513.2)"/>
        </g>
        <g>
          <path class="c" d="M2409,1352.2c82-16.3,164.8,59.2,185,168.5s-30.1,211.2-112.1,227.5-164.9-59.2-185-168.5S2327,1368.5,2409,1352.2Z" transform="translate(-758.5 -513.2)"/>
          <path class="i" d="M2418.4,1397.9c27.1,7.4,41.4,43.9,31.9,81.4s-39.2,62-66.3,54.6-41.4-43.8-31.9-81.4S2391.3,1390.5,2418.4,1397.9Z" transform="translate(-758.5 -513.2)"/>
          <path class="m" d="M2525.6,1626.4c13.1,7.2,16.3,27.8,7,46s-27.4,27-40.5,19.8-16.3-27.8-7-45.9S2512.5,1619.2,2525.6,1626.4Z" transform="translate(-758.5 -513.2)"/>
        </g>
      </g>
    </g>
    <path class="c" d="M2271.8,2636.4c21.6-17,41-36.2,60.7-55.6,9.7-9.8,19.7-19.4,29.8-29.1s20.4-19,31.4-28.3c22.9-18.5,46.5-31.8,63-50.1s25.3-40.6,27.7-66.2a13.3,13.3,0,0,1,26.5,1.3h0a135.9,135.9,0,0,1-7.9,45,115.2,115.2,0,0,1-24.6,39.8c-21.2,22.9-47.4,35.9-68.2,51.2s-42.9,33.9-64.7,51-44.8,34.2-70.2,46.5a3.3,3.3,0,0,1-3.5-5.6Z" transform="translate(-758.5 -513.2)"/>
    <path class="c" d="M1897.7,2642c-25.4-12.3-48.3-29.3-70.2-46.5s-43.1-34.9-64.7-51-47-28.3-68.2-51.2a115.2,115.2,0,0,1-24.6-39.8,135.9,135.9,0,0,1-7.9-45h0a13.3,13.3,0,0,1,26.5-1.3c2.4,25.6,11,48.4,27.7,66.2s40.1,31.6,63,50.1c11,9.3,21.2,18.7,31.4,28.3s20.1,19.3,29.8,29.1c19.7,19.4,39.1,38.6,60.7,55.6a3.2,3.2,0,0,1,.5,4.6A3.3,3.3,0,0,1,1897.7,2642Z" transform="translate(-758.5 -513.2)"/>
    <g class="h">
      <path class="i" d="M2242.6,2596.6c-3.4-3,47.5-42.4,82.4-76.3s107.4-86,112.1-86,1.6,39.1-55.8,74S2246,2599.6,2242.6,2596.6Z" transform="translate(-758.5 -513.2)"/>
    </g>
  </g>
</svg>
